G04 EAGLE Gerber RS-274X export*
G75*
%MOMM*%
%FSLAX34Y34*%
%LPD*%
%IN*%
%IPPOS*%
%AMOC8*
5,1,8,0,0,1.08239X$1,22.5*%
G01*
%ADD10C,0.254000*%


D10*
X0Y0D02*
X707900Y0D01*
X707900Y482500D01*
X0Y482500D01*
X0Y0D01*
X39850Y37928D02*
X39783Y37590D01*
X39651Y37271D01*
X39459Y36984D01*
X39216Y36741D01*
X38929Y36549D01*
X38610Y36417D01*
X38272Y36350D01*
X37928Y36350D01*
X37590Y36417D01*
X37271Y36549D01*
X36984Y36741D01*
X36741Y36984D01*
X36549Y37271D01*
X36417Y37590D01*
X36350Y37928D01*
X36350Y38272D01*
X36417Y38610D01*
X36549Y38929D01*
X36741Y39216D01*
X36984Y39459D01*
X37271Y39651D01*
X37590Y39783D01*
X37928Y39850D01*
X38272Y39850D01*
X38610Y39783D01*
X38929Y39651D01*
X39216Y39459D01*
X39459Y39216D01*
X39651Y38929D01*
X39783Y38610D01*
X39850Y38272D01*
X39850Y37928D01*
X624050Y126828D02*
X623983Y126490D01*
X623851Y126171D01*
X623659Y125884D01*
X623416Y125641D01*
X623129Y125449D01*
X622810Y125317D01*
X622472Y125250D01*
X622128Y125250D01*
X621790Y125317D01*
X621471Y125449D01*
X621184Y125641D01*
X620941Y125884D01*
X620749Y126171D01*
X620617Y126490D01*
X620550Y126828D01*
X620550Y127172D01*
X620617Y127510D01*
X620749Y127829D01*
X620941Y128116D01*
X621184Y128359D01*
X621471Y128551D01*
X621790Y128683D01*
X622128Y128750D01*
X622472Y128750D01*
X622810Y128683D01*
X623129Y128551D01*
X623416Y128359D01*
X623659Y128116D01*
X623851Y127829D01*
X623983Y127510D01*
X624050Y127172D01*
X624050Y126828D01*
X230350Y444328D02*
X230283Y443990D01*
X230151Y443671D01*
X229959Y443384D01*
X229716Y443141D01*
X229429Y442949D01*
X229110Y442817D01*
X228772Y442750D01*
X228428Y442750D01*
X228090Y442817D01*
X227771Y442949D01*
X227484Y443141D01*
X227241Y443384D01*
X227049Y443671D01*
X226917Y443990D01*
X226850Y444328D01*
X226850Y444672D01*
X226917Y445010D01*
X227049Y445329D01*
X227241Y445616D01*
X227484Y445859D01*
X227771Y446051D01*
X228090Y446183D01*
X228428Y446250D01*
X228772Y446250D01*
X229110Y446183D01*
X229429Y446051D01*
X229716Y445859D01*
X229959Y445616D01*
X230151Y445329D01*
X230283Y445010D01*
X230350Y444672D01*
X230350Y444328D01*
M02*
