G04 EAGLE Gerber RS-274X export*
G75*
%MOMM*%
%FSLAX34Y34*%
%LPD*%
%INSoldermask Bottom*%
%IPPOS*%
%AMOC8*
5,1,8,0,0,1.08239X$1,22.5*%
G01*
%ADD10C,0.553200*%
%ADD11C,2.082800*%
%ADD12R,1.854200X1.854200*%
%ADD13C,1.854200*%
%ADD14C,1.676400*%


D10*
X38100Y38100D03*
X622300Y127000D03*
X228600Y444500D03*
D11*
X203200Y50800D03*
X228600Y50800D03*
D12*
X228400Y127000D03*
D13*
X203400Y127000D03*
D11*
X279400Y50800D03*
X304800Y50800D03*
X330200Y50800D03*
X381000Y50800D03*
X406400Y50800D03*
X558800Y50800D03*
X584200Y50800D03*
X622300Y50800D03*
X647700Y50800D03*
X558800Y88900D03*
X558800Y165100D03*
X76200Y127000D03*
X152400Y127000D03*
X292100Y127000D03*
X368300Y127000D03*
X508000Y88900D03*
X508000Y165100D03*
X457200Y88900D03*
X457200Y165100D03*
X457200Y50800D03*
X482600Y50800D03*
X508000Y50800D03*
D14*
X127000Y241300D03*
X152400Y241300D03*
X177800Y241300D03*
X203200Y241300D03*
X228600Y241300D03*
X254000Y241300D03*
X279400Y241300D03*
X304800Y241300D03*
X330200Y241300D03*
X355600Y241300D03*
X381000Y241300D03*
X406400Y241300D03*
X406400Y393700D03*
X381000Y393700D03*
X355600Y393700D03*
X330200Y393700D03*
X304800Y393700D03*
X279400Y393700D03*
X254000Y393700D03*
X228600Y393700D03*
X203200Y393700D03*
X177800Y393700D03*
X152400Y393700D03*
X101600Y241300D03*
X127000Y393700D03*
X101600Y393700D03*
X76200Y241300D03*
X76200Y393700D03*
X431800Y241300D03*
X431800Y393700D03*
X457200Y241300D03*
X482600Y241300D03*
X508000Y241300D03*
X533400Y241300D03*
X558800Y241300D03*
X584200Y241300D03*
X609600Y241300D03*
X635000Y241300D03*
X660400Y241300D03*
X660400Y393700D03*
X635000Y393700D03*
X609600Y393700D03*
X584200Y393700D03*
X558800Y393700D03*
X533400Y393700D03*
X508000Y393700D03*
X482600Y393700D03*
X457200Y393700D03*
X533400Y266700D03*
X533400Y317500D03*
X533400Y342900D03*
X533400Y292100D03*
X533400Y368300D03*
X101600Y368300D03*
X152400Y368300D03*
X177800Y368300D03*
X203200Y368300D03*
X139700Y273050D03*
X165100Y273050D03*
X190500Y273050D03*
X215900Y273050D03*
X241300Y273050D03*
M02*
