G04 EAGLE Gerber RS-274X export*
G75*
%MOMM*%
%FSLAX34Y34*%
%LPD*%
%INTop Copper*%
%IPPOS*%
%AMOC8*
5,1,8,0,0,1.08239X$1,22.5*%
G01*
%ADD10C,1.879600*%
%ADD11C,1.574800*%
%ADD12R,1.651000X1.651000*%
%ADD13C,1.651000*%
%ADD14C,1.422400*%
%ADD15R,1.879600X1.879600*%
%ADD16C,0.304800*%


D10*
X88900Y38100D03*
X114300Y38100D03*
X152400Y38100D03*
X177800Y38100D03*
X203200Y38100D03*
X419100Y38100D03*
X444500Y38100D03*
X520700Y330200D03*
X546100Y330200D03*
X482600Y38100D03*
X508000Y38100D03*
X533400Y38100D03*
D11*
X38100Y165100D03*
X63500Y165100D03*
X88900Y165100D03*
X114300Y165100D03*
X139700Y165100D03*
X165100Y165100D03*
X190500Y165100D03*
X215900Y165100D03*
X241300Y165100D03*
X266700Y165100D03*
X292100Y165100D03*
X317500Y165100D03*
X342900Y165100D03*
X368300Y165100D03*
X368300Y317500D03*
X342900Y317500D03*
X317500Y317500D03*
X292100Y317500D03*
X266700Y317500D03*
X241300Y317500D03*
X215900Y317500D03*
X190500Y317500D03*
X165100Y317500D03*
X139700Y317500D03*
X114300Y317500D03*
X88900Y317500D03*
X63500Y317500D03*
X38100Y317500D03*
X63500Y292100D03*
X114300Y292100D03*
X139700Y292100D03*
X165100Y292100D03*
D10*
X241300Y38100D03*
X266700Y38100D03*
X292100Y38100D03*
X330200Y38100D03*
X355600Y38100D03*
X381000Y38100D03*
X427990Y229870D03*
X504190Y229870D03*
X596900Y101600D03*
X520700Y101600D03*
X381000Y101600D03*
X304800Y101600D03*
X152400Y114300D03*
X228600Y114300D03*
X228600Y76200D03*
X152400Y76200D03*
D12*
X89100Y101600D03*
D13*
X114100Y101600D03*
D12*
X545900Y203200D03*
D13*
X520900Y203200D03*
D12*
X545900Y279400D03*
D13*
X520900Y279400D03*
D14*
X635000Y101600D03*
X660400Y101600D03*
X469900Y177800D03*
X444500Y177800D03*
D15*
X647700Y266700D03*
D10*
X647700Y241300D03*
X647700Y215900D03*
X483870Y148590D03*
X483870Y72390D03*
D16*
X126800Y114300D02*
X114100Y101600D01*
X126800Y114300D02*
X152400Y114300D01*
X152400Y76200D01*
X635000Y203200D02*
X647700Y215900D01*
X635000Y203200D02*
X545900Y203200D01*
X520700Y178000D01*
X520700Y177800D01*
X520700Y101600D01*
X533400Y88900D01*
X533400Y38100D01*
X520700Y101600D02*
X457200Y101600D01*
X431800Y76200D01*
X368300Y76200D01*
X330200Y38100D01*
X330200Y25400D01*
X317500Y12700D01*
X254000Y12700D01*
X241300Y25400D01*
X241300Y38100D01*
X254000Y12700D02*
X228600Y12700D01*
X203200Y38100D01*
X228600Y114300D02*
X203200Y139700D01*
X12700Y139700D01*
X12700Y292100D01*
X38100Y317500D01*
X483870Y148590D02*
X491490Y148590D01*
X520700Y177800D01*
X177800Y62230D02*
X177800Y38100D01*
X177800Y62230D02*
X209550Y93980D01*
X246380Y93980D01*
X292100Y139700D02*
X292100Y165100D01*
X292100Y139700D02*
X246380Y93980D01*
X635000Y279400D02*
X647700Y266700D01*
X635000Y279400D02*
X545900Y279400D01*
X546100Y279600D01*
X546100Y330200D01*
X88900Y101400D02*
X88900Y38100D01*
X88900Y101400D02*
X89100Y101600D01*
X266700Y88900D02*
X266700Y38100D01*
X266700Y88900D02*
X304800Y127000D01*
X406400Y127000D01*
X431800Y152400D01*
X431800Y203200D01*
X317500Y317500D01*
X469900Y177800D02*
X504190Y212090D01*
X504190Y229870D01*
X596900Y101600D02*
X635000Y101600D01*
M02*
