G04 EAGLE Gerber RS-274X export*
G75*
%MOMM*%
%FSLAX34Y34*%
%LPD*%
%INTop Copper*%
%IPPOS*%
%AMOC8*
5,1,8,0,0,1.08239X$1,22.5*%
G01*
%ADD10C,1.879600*%
%ADD11C,1.473200*%
%ADD12R,1.651000X1.651000*%
%ADD13C,1.651000*%
%ADD14C,1.320800*%
%ADD15R,1.879600X1.879600*%
%ADD16C,0.304800*%


D10*
X88900Y38100D03*
X114300Y38100D03*
X152400Y38100D03*
X177800Y38100D03*
X203200Y38100D03*
X508000Y38100D03*
X533400Y38100D03*
X571500Y38100D03*
X596900Y38100D03*
X419100Y38100D03*
X444500Y38100D03*
X469900Y38100D03*
D11*
X38100Y165100D03*
X63500Y165100D03*
X88900Y165100D03*
X114300Y165100D03*
X139700Y165100D03*
X165100Y165100D03*
X190500Y165100D03*
X215900Y165100D03*
X241300Y165100D03*
X266700Y165100D03*
X292100Y165100D03*
X317500Y165100D03*
X342900Y165100D03*
X368300Y165100D03*
X368300Y317500D03*
X342900Y317500D03*
X317500Y317500D03*
X292100Y317500D03*
X266700Y317500D03*
X241300Y317500D03*
X215900Y317500D03*
X190500Y317500D03*
X165100Y317500D03*
X139700Y317500D03*
X114300Y317500D03*
X88900Y317500D03*
X63500Y317500D03*
X38100Y317500D03*
X63500Y292100D03*
X114300Y292100D03*
X139700Y292100D03*
X165100Y292100D03*
D10*
X241300Y38100D03*
X266700Y38100D03*
X292100Y38100D03*
X330200Y38100D03*
X355600Y38100D03*
X381000Y38100D03*
X520700Y381000D03*
X596900Y381000D03*
X596900Y101600D03*
X520700Y101600D03*
X342900Y139700D03*
X342900Y63500D03*
X152400Y114300D03*
X228600Y114300D03*
X228600Y76200D03*
X152400Y76200D03*
D12*
X114100Y101600D03*
D13*
X89100Y101600D03*
D12*
X545900Y292100D03*
D13*
X520900Y292100D03*
D12*
X545900Y203200D03*
D13*
X520900Y203200D03*
D14*
X635000Y101600D03*
X660400Y101600D03*
X635000Y381000D03*
X660400Y381000D03*
D15*
X647700Y266700D03*
D10*
X647700Y241300D03*
X647700Y215900D03*
D16*
X342900Y317500D02*
X203200Y177800D01*
X152400Y177800D01*
X152400Y114300D01*
X101600Y107950D02*
X95250Y101600D01*
X101600Y107950D02*
X101600Y114300D01*
X152400Y114300D01*
X95250Y101600D02*
X89100Y101600D01*
X152400Y114300D02*
X152400Y76200D01*
X330200Y38100D02*
X349250Y19050D01*
X469900Y19050D01*
X469900Y38100D01*
X50800Y304800D02*
X38100Y317500D01*
X50800Y304800D02*
X50800Y57150D01*
X88900Y19050D01*
X203200Y19050D01*
X203200Y38100D01*
X209550Y38100D02*
X241300Y38100D01*
X209550Y95250D02*
X228600Y114300D01*
X209550Y95250D02*
X209550Y38100D01*
X203200Y38100D01*
X311150Y38100D02*
X330200Y38100D01*
X311150Y38100D02*
X292100Y19050D01*
X241300Y19050D01*
X241300Y38100D01*
X260350Y133350D02*
X292100Y165100D01*
X260350Y133350D02*
X177800Y133350D01*
X177800Y38100D01*
X342900Y139700D02*
X342900Y165100D01*
X368300Y165100D02*
X444500Y88900D01*
X444500Y38100D01*
X577850Y171450D02*
X546100Y203200D01*
X577850Y127000D02*
X577850Y57150D01*
X577850Y127000D02*
X577850Y171450D01*
X577850Y57150D02*
X596900Y38100D01*
X546100Y203200D02*
X545900Y203200D01*
X647700Y266700D02*
X666750Y247650D01*
X666750Y215900D01*
X577850Y127000D01*
X628650Y209550D02*
X577850Y260350D01*
X546100Y292100D01*
X628650Y209550D02*
X647700Y209550D01*
X647700Y215900D01*
X546100Y292100D02*
X545900Y292100D01*
X533400Y114300D02*
X520700Y101600D01*
X533400Y114300D02*
X533400Y215900D01*
X577850Y260350D01*
X520700Y368300D02*
X317500Y165100D01*
X520700Y368300D02*
X520700Y381000D01*
X107950Y101600D02*
X88900Y82550D01*
X88900Y38100D01*
X107950Y101600D02*
X114100Y101600D01*
X292100Y317500D02*
X374650Y400050D01*
X539750Y400050D01*
X539750Y355600D01*
X355600Y171450D01*
X355600Y146050D01*
X361950Y139700D01*
X361950Y44450D01*
X355600Y38100D01*
X317500Y317500D02*
X330200Y330200D01*
X355600Y330200D01*
X355600Y222250D01*
X304800Y171450D01*
X304800Y76200D01*
X266700Y38100D01*
X596900Y381000D02*
X635000Y381000D01*
X635000Y101600D02*
X596900Y101600D01*
M02*
