G04 EAGLE Gerber RS-274X export*
G75*
%MOMM*%
%FSLAX34Y34*%
%LPD*%
%INBottom Copper*%
%IPPOS*%
%AMOC8*
5,1,8,0,0,1.08239X$1,22.5*%
G01*
%ADD10C,1.879600*%
%ADD11C,1.473200*%
%ADD12R,1.651000X1.651000*%
%ADD13C,1.651000*%
%ADD14C,1.320800*%
%ADD15R,1.879600X1.879600*%
%ADD16C,0.304800*%

G36*
X696998Y10164D02*
X696998Y10164D01*
X697017Y10162D01*
X697119Y10184D01*
X697221Y10200D01*
X697238Y10210D01*
X697258Y10214D01*
X697347Y10267D01*
X697438Y10316D01*
X697452Y10330D01*
X697469Y10340D01*
X697536Y10419D01*
X697608Y10494D01*
X697616Y10512D01*
X697629Y10527D01*
X697668Y10623D01*
X697711Y10717D01*
X697713Y10737D01*
X697721Y10755D01*
X697739Y10922D01*
X697739Y471578D01*
X697736Y471598D01*
X697738Y471617D01*
X697716Y471719D01*
X697700Y471821D01*
X697690Y471838D01*
X697686Y471858D01*
X697633Y471947D01*
X697584Y472038D01*
X697570Y472052D01*
X697560Y472069D01*
X697481Y472136D01*
X697406Y472208D01*
X697388Y472216D01*
X697373Y472229D01*
X697277Y472268D01*
X697183Y472311D01*
X697163Y472313D01*
X697145Y472321D01*
X696978Y472339D01*
X10922Y472339D01*
X10902Y472336D01*
X10883Y472338D01*
X10781Y472316D01*
X10679Y472300D01*
X10662Y472290D01*
X10642Y472286D01*
X10553Y472233D01*
X10462Y472184D01*
X10448Y472170D01*
X10431Y472160D01*
X10364Y472081D01*
X10292Y472006D01*
X10284Y471988D01*
X10271Y471973D01*
X10232Y471877D01*
X10189Y471783D01*
X10187Y471763D01*
X10179Y471745D01*
X10161Y471578D01*
X10161Y10922D01*
X10164Y10902D01*
X10162Y10883D01*
X10184Y10781D01*
X10200Y10679D01*
X10210Y10662D01*
X10214Y10642D01*
X10267Y10553D01*
X10316Y10462D01*
X10330Y10448D01*
X10340Y10431D01*
X10419Y10364D01*
X10494Y10292D01*
X10512Y10284D01*
X10527Y10271D01*
X10623Y10232D01*
X10717Y10189D01*
X10737Y10187D01*
X10755Y10179D01*
X10922Y10161D01*
X696978Y10161D01*
X696998Y10164D01*
G37*
%LPC*%
G36*
X505625Y26161D02*
X505625Y26161D01*
X501237Y27979D01*
X497879Y31337D01*
X496956Y33565D01*
X496894Y33665D01*
X496834Y33765D01*
X496830Y33769D01*
X496826Y33774D01*
X496736Y33849D01*
X496648Y33925D01*
X496642Y33927D01*
X496637Y33931D01*
X496528Y33973D01*
X496419Y34017D01*
X496412Y34018D01*
X496407Y34019D01*
X496389Y34020D01*
X496253Y34035D01*
X493616Y34035D01*
X398589Y129062D01*
X398515Y129115D01*
X398446Y129175D01*
X398416Y129187D01*
X398390Y129206D01*
X398303Y129233D01*
X398218Y129267D01*
X398177Y129271D01*
X398154Y129278D01*
X398122Y129277D01*
X398051Y129285D01*
X353916Y129285D01*
X352181Y131021D01*
X352165Y131032D01*
X352152Y131048D01*
X352065Y131104D01*
X351981Y131164D01*
X351962Y131170D01*
X351946Y131181D01*
X351845Y131206D01*
X351746Y131236D01*
X351726Y131236D01*
X351707Y131241D01*
X351604Y131233D01*
X351500Y131230D01*
X351482Y131223D01*
X351462Y131222D01*
X351367Y131181D01*
X351269Y131146D01*
X351254Y131133D01*
X351235Y131125D01*
X351104Y131021D01*
X349663Y129579D01*
X345275Y127761D01*
X340525Y127761D01*
X336137Y129579D01*
X332779Y132937D01*
X330961Y137325D01*
X330961Y142075D01*
X332779Y146463D01*
X336137Y149821D01*
X340525Y151639D01*
X345275Y151639D01*
X349663Y149821D01*
X353021Y146463D01*
X354839Y142075D01*
X354839Y140175D01*
X354853Y140085D01*
X354861Y139994D01*
X354873Y139964D01*
X354878Y139932D01*
X354921Y139852D01*
X354957Y139768D01*
X354983Y139736D01*
X354994Y139715D01*
X355017Y139693D01*
X355062Y139637D01*
X357061Y137638D01*
X357135Y137585D01*
X357204Y137525D01*
X357234Y137513D01*
X357260Y137494D01*
X357347Y137467D01*
X357432Y137433D01*
X357473Y137429D01*
X357496Y137422D01*
X357528Y137423D01*
X357599Y137415D01*
X401734Y137415D01*
X496021Y43128D01*
X496058Y43101D01*
X496089Y43067D01*
X496157Y43029D01*
X496221Y42984D01*
X496264Y42971D01*
X496305Y42948D01*
X496381Y42935D01*
X496456Y42912D01*
X496502Y42913D01*
X496547Y42905D01*
X496624Y42916D01*
X496702Y42918D01*
X496745Y42934D01*
X496790Y42940D01*
X496859Y42976D01*
X496933Y43002D01*
X496968Y43031D01*
X497009Y43052D01*
X497064Y43108D01*
X497125Y43156D01*
X497149Y43195D01*
X497182Y43228D01*
X497248Y43347D01*
X497258Y43363D01*
X497259Y43368D01*
X497262Y43375D01*
X497879Y44863D01*
X501237Y48221D01*
X505625Y50039D01*
X510375Y50039D01*
X514763Y48221D01*
X518121Y44863D01*
X519939Y40475D01*
X519939Y35725D01*
X518121Y31337D01*
X514763Y27979D01*
X510375Y26161D01*
X505625Y26161D01*
G37*
%LPD*%
%LPC*%
G36*
X637250Y254761D02*
X637250Y254761D01*
X635761Y256250D01*
X635761Y277150D01*
X637250Y278639D01*
X658150Y278639D01*
X659639Y277150D01*
X659639Y256250D01*
X658150Y254761D01*
X637250Y254761D01*
G37*
%LPD*%
%LPC*%
G36*
X536593Y281304D02*
X536593Y281304D01*
X535104Y282793D01*
X535104Y301407D01*
X536593Y302896D01*
X555207Y302896D01*
X556696Y301407D01*
X556696Y282793D01*
X555207Y281304D01*
X536593Y281304D01*
G37*
%LPD*%
%LPC*%
G36*
X536593Y192404D02*
X536593Y192404D01*
X535104Y193893D01*
X535104Y212507D01*
X536593Y213996D01*
X555207Y213996D01*
X556696Y212507D01*
X556696Y193893D01*
X555207Y192404D01*
X536593Y192404D01*
G37*
%LPD*%
%LPC*%
G36*
X104793Y90804D02*
X104793Y90804D01*
X103304Y92293D01*
X103304Y110907D01*
X104793Y112396D01*
X123407Y112396D01*
X124896Y110907D01*
X124896Y92293D01*
X123407Y90804D01*
X104793Y90804D01*
G37*
%LPD*%
%LPC*%
G36*
X238925Y26161D02*
X238925Y26161D01*
X234537Y27979D01*
X231179Y31337D01*
X229361Y35725D01*
X229361Y40475D01*
X231179Y44863D01*
X234537Y48221D01*
X238925Y50039D01*
X243675Y50039D01*
X248063Y48221D01*
X251421Y44863D01*
X253239Y40475D01*
X253239Y35725D01*
X251421Y31337D01*
X248063Y27979D01*
X243675Y26161D01*
X238925Y26161D01*
G37*
%LPD*%
%LPC*%
G36*
X264325Y26161D02*
X264325Y26161D01*
X259937Y27979D01*
X256579Y31337D01*
X254761Y35725D01*
X254761Y40475D01*
X256579Y44863D01*
X259937Y48221D01*
X264325Y50039D01*
X269075Y50039D01*
X273463Y48221D01*
X276821Y44863D01*
X278639Y40475D01*
X278639Y35725D01*
X276821Y31337D01*
X273463Y27979D01*
X269075Y26161D01*
X264325Y26161D01*
G37*
%LPD*%
%LPC*%
G36*
X353225Y26161D02*
X353225Y26161D01*
X348837Y27979D01*
X345479Y31337D01*
X343661Y35725D01*
X343661Y40475D01*
X345479Y44863D01*
X348837Y48221D01*
X353225Y50039D01*
X357975Y50039D01*
X362363Y48221D01*
X365721Y44863D01*
X367539Y40475D01*
X367539Y35725D01*
X365721Y31337D01*
X362363Y27979D01*
X357975Y26161D01*
X353225Y26161D01*
G37*
%LPD*%
%LPC*%
G36*
X442125Y26161D02*
X442125Y26161D01*
X437737Y27979D01*
X434379Y31337D01*
X432561Y35725D01*
X432561Y40475D01*
X434379Y44863D01*
X437737Y48221D01*
X442125Y50039D01*
X446875Y50039D01*
X451263Y48221D01*
X454621Y44863D01*
X456439Y40475D01*
X456439Y35725D01*
X454621Y31337D01*
X451263Y27979D01*
X446875Y26161D01*
X442125Y26161D01*
G37*
%LPD*%
%LPC*%
G36*
X467525Y26161D02*
X467525Y26161D01*
X463137Y27979D01*
X459779Y31337D01*
X457961Y35725D01*
X457961Y40475D01*
X459779Y44863D01*
X463137Y48221D01*
X467525Y50039D01*
X472275Y50039D01*
X476663Y48221D01*
X480021Y44863D01*
X481839Y40475D01*
X481839Y35725D01*
X480021Y31337D01*
X476663Y27979D01*
X472275Y26161D01*
X467525Y26161D01*
G37*
%LPD*%
%LPC*%
G36*
X594525Y26161D02*
X594525Y26161D01*
X590137Y27979D01*
X586779Y31337D01*
X584961Y35725D01*
X584961Y40475D01*
X586779Y44863D01*
X590137Y48221D01*
X594525Y50039D01*
X599275Y50039D01*
X603663Y48221D01*
X607021Y44863D01*
X608839Y40475D01*
X608839Y35725D01*
X607021Y31337D01*
X603663Y27979D01*
X599275Y26161D01*
X594525Y26161D01*
G37*
%LPD*%
%LPC*%
G36*
X518325Y369061D02*
X518325Y369061D01*
X513937Y370879D01*
X510579Y374237D01*
X508761Y378625D01*
X508761Y383375D01*
X510579Y387763D01*
X513937Y391121D01*
X518325Y392939D01*
X523075Y392939D01*
X527463Y391121D01*
X530821Y387763D01*
X532639Y383375D01*
X532639Y378625D01*
X530821Y374237D01*
X527463Y370879D01*
X523075Y369061D01*
X518325Y369061D01*
G37*
%LPD*%
%LPC*%
G36*
X340525Y51561D02*
X340525Y51561D01*
X336137Y53379D01*
X332779Y56737D01*
X330961Y61125D01*
X330961Y65875D01*
X332779Y70263D01*
X336137Y73621D01*
X340525Y75439D01*
X345275Y75439D01*
X349663Y73621D01*
X353021Y70263D01*
X354839Y65875D01*
X354839Y61125D01*
X353021Y56737D01*
X349663Y53379D01*
X345275Y51561D01*
X340525Y51561D01*
G37*
%LPD*%
%LPC*%
G36*
X150025Y64261D02*
X150025Y64261D01*
X145637Y66079D01*
X142279Y69437D01*
X140461Y73825D01*
X140461Y78575D01*
X142279Y82963D01*
X145637Y86321D01*
X150025Y88139D01*
X154775Y88139D01*
X159163Y86321D01*
X162521Y82963D01*
X164339Y78575D01*
X164339Y73825D01*
X162521Y69437D01*
X159163Y66079D01*
X154775Y64261D01*
X150025Y64261D01*
G37*
%LPD*%
%LPC*%
G36*
X200825Y26161D02*
X200825Y26161D01*
X196437Y27979D01*
X193079Y31337D01*
X191261Y35725D01*
X191261Y40475D01*
X193079Y44863D01*
X196437Y48221D01*
X200825Y50039D01*
X205575Y50039D01*
X209963Y48221D01*
X213321Y44863D01*
X215139Y40475D01*
X215139Y35725D01*
X213321Y31337D01*
X209963Y27979D01*
X205575Y26161D01*
X200825Y26161D01*
G37*
%LPD*%
%LPC*%
G36*
X518325Y89661D02*
X518325Y89661D01*
X513937Y91479D01*
X510579Y94837D01*
X508761Y99225D01*
X508761Y103975D01*
X510579Y108363D01*
X513937Y111721D01*
X518325Y113539D01*
X523075Y113539D01*
X527463Y111721D01*
X530821Y108363D01*
X532639Y103975D01*
X532639Y99225D01*
X530821Y94837D01*
X527463Y91479D01*
X523075Y89661D01*
X518325Y89661D01*
G37*
%LPD*%
%LPC*%
G36*
X594525Y89661D02*
X594525Y89661D01*
X590137Y91479D01*
X586779Y94837D01*
X584961Y99225D01*
X584961Y103975D01*
X586779Y108363D01*
X590137Y111721D01*
X594525Y113539D01*
X599275Y113539D01*
X603663Y111721D01*
X607021Y108363D01*
X608839Y103975D01*
X608839Y99225D01*
X607021Y94837D01*
X603663Y91479D01*
X599275Y89661D01*
X594525Y89661D01*
G37*
%LPD*%
%LPC*%
G36*
X150025Y102361D02*
X150025Y102361D01*
X145637Y104179D01*
X142279Y107537D01*
X140461Y111925D01*
X140461Y116675D01*
X142279Y121063D01*
X145637Y124421D01*
X150025Y126239D01*
X154775Y126239D01*
X159163Y124421D01*
X162521Y121063D01*
X164339Y116675D01*
X164339Y111925D01*
X162521Y107537D01*
X159163Y104179D01*
X154775Y102361D01*
X150025Y102361D01*
G37*
%LPD*%
%LPC*%
G36*
X226225Y102361D02*
X226225Y102361D01*
X221837Y104179D01*
X218479Y107537D01*
X216661Y111925D01*
X216661Y116675D01*
X218479Y121063D01*
X221837Y124421D01*
X226225Y126239D01*
X230975Y126239D01*
X235363Y124421D01*
X238721Y121063D01*
X240539Y116675D01*
X240539Y111925D01*
X238721Y107537D01*
X235363Y104179D01*
X230975Y102361D01*
X226225Y102361D01*
G37*
%LPD*%
%LPC*%
G36*
X594525Y369061D02*
X594525Y369061D01*
X590137Y370879D01*
X586779Y374237D01*
X584961Y378625D01*
X584961Y383375D01*
X586779Y387763D01*
X590137Y391121D01*
X594525Y392939D01*
X599275Y392939D01*
X603663Y391121D01*
X607021Y387763D01*
X608839Y383375D01*
X608839Y378625D01*
X607021Y374237D01*
X603663Y370879D01*
X599275Y369061D01*
X594525Y369061D01*
G37*
%LPD*%
%LPC*%
G36*
X175425Y26161D02*
X175425Y26161D01*
X171037Y27979D01*
X167679Y31337D01*
X165861Y35725D01*
X165861Y40475D01*
X167679Y44863D01*
X171037Y48221D01*
X175425Y50039D01*
X180175Y50039D01*
X184563Y48221D01*
X187921Y44863D01*
X189739Y40475D01*
X189739Y35725D01*
X187921Y31337D01*
X184563Y27979D01*
X180175Y26161D01*
X175425Y26161D01*
G37*
%LPD*%
%LPC*%
G36*
X645325Y203961D02*
X645325Y203961D01*
X640937Y205779D01*
X637579Y209137D01*
X635761Y213525D01*
X635761Y218275D01*
X637579Y222663D01*
X640937Y226021D01*
X645325Y227839D01*
X650075Y227839D01*
X654463Y226021D01*
X657821Y222663D01*
X659639Y218275D01*
X659639Y213525D01*
X657821Y209137D01*
X654463Y205779D01*
X650075Y203961D01*
X645325Y203961D01*
G37*
%LPD*%
%LPC*%
G36*
X86525Y26161D02*
X86525Y26161D01*
X82137Y27979D01*
X78779Y31337D01*
X76961Y35725D01*
X76961Y40475D01*
X78779Y44863D01*
X82137Y48221D01*
X86525Y50039D01*
X91275Y50039D01*
X95663Y48221D01*
X99021Y44863D01*
X100839Y40475D01*
X100839Y35725D01*
X99021Y31337D01*
X95663Y27979D01*
X91275Y26161D01*
X86525Y26161D01*
G37*
%LPD*%
%LPC*%
G36*
X327825Y26161D02*
X327825Y26161D01*
X323437Y27979D01*
X320079Y31337D01*
X318261Y35725D01*
X318261Y40475D01*
X320079Y44863D01*
X323437Y48221D01*
X327825Y50039D01*
X332575Y50039D01*
X336963Y48221D01*
X340321Y44863D01*
X342139Y40475D01*
X342139Y35725D01*
X340321Y31337D01*
X336963Y27979D01*
X332575Y26161D01*
X327825Y26161D01*
G37*
%LPD*%
%LPC*%
G36*
X619931Y115089D02*
X619931Y115089D01*
X615553Y116903D01*
X612203Y120253D01*
X610389Y124631D01*
X610389Y129369D01*
X612203Y133747D01*
X615553Y137097D01*
X619931Y138911D01*
X624669Y138911D01*
X629047Y137097D01*
X632397Y133747D01*
X634211Y129369D01*
X634211Y124631D01*
X632397Y120253D01*
X629047Y116903D01*
X624669Y115089D01*
X619931Y115089D01*
G37*
%LPD*%
%LPC*%
G36*
X226231Y432589D02*
X226231Y432589D01*
X221853Y434403D01*
X218503Y437753D01*
X216689Y442131D01*
X216689Y446869D01*
X218503Y451247D01*
X221853Y454597D01*
X226231Y456411D01*
X230969Y456411D01*
X235347Y454597D01*
X238697Y451247D01*
X240511Y446869D01*
X240511Y442131D01*
X238697Y437753D01*
X235347Y434403D01*
X230969Y432589D01*
X226231Y432589D01*
G37*
%LPD*%
%LPC*%
G36*
X35731Y26189D02*
X35731Y26189D01*
X31353Y28003D01*
X28003Y31353D01*
X26189Y35731D01*
X26189Y40469D01*
X28003Y44847D01*
X31353Y48197D01*
X35731Y50011D01*
X40469Y50011D01*
X44847Y48197D01*
X48197Y44847D01*
X50011Y40469D01*
X50011Y35731D01*
X48197Y31353D01*
X44847Y28003D01*
X40469Y26189D01*
X35731Y26189D01*
G37*
%LPD*%
%LPC*%
G36*
X86953Y90804D02*
X86953Y90804D01*
X82985Y92448D01*
X79948Y95485D01*
X78304Y99453D01*
X78304Y103747D01*
X79948Y107715D01*
X82985Y110752D01*
X86953Y112396D01*
X91247Y112396D01*
X95215Y110752D01*
X98252Y107715D01*
X99896Y103747D01*
X99896Y99453D01*
X98252Y95485D01*
X95215Y92448D01*
X91247Y90804D01*
X86953Y90804D01*
G37*
%LPD*%
%LPC*%
G36*
X61529Y282193D02*
X61529Y282193D01*
X57888Y283701D01*
X55101Y286488D01*
X53593Y290129D01*
X53593Y294071D01*
X55101Y297712D01*
X57888Y300499D01*
X61529Y302007D01*
X65471Y302007D01*
X69112Y300499D01*
X71899Y297712D01*
X73407Y294071D01*
X73407Y290129D01*
X71899Y286488D01*
X69112Y283701D01*
X65471Y282193D01*
X61529Y282193D01*
G37*
%LPD*%
%LPC*%
G36*
X112329Y282193D02*
X112329Y282193D01*
X108688Y283701D01*
X105901Y286488D01*
X104393Y290129D01*
X104393Y294071D01*
X105901Y297712D01*
X108688Y300499D01*
X112329Y302007D01*
X116271Y302007D01*
X119912Y300499D01*
X122699Y297712D01*
X124207Y294071D01*
X124207Y290129D01*
X122699Y286488D01*
X119912Y283701D01*
X116271Y282193D01*
X112329Y282193D01*
G37*
%LPD*%
%LPC*%
G36*
X290129Y307593D02*
X290129Y307593D01*
X286488Y309101D01*
X283701Y311888D01*
X282193Y315529D01*
X282193Y319471D01*
X283701Y323112D01*
X286488Y325899D01*
X290129Y327407D01*
X294071Y327407D01*
X297712Y325899D01*
X300499Y323112D01*
X302007Y319471D01*
X302007Y315529D01*
X300499Y311888D01*
X297712Y309101D01*
X294071Y307593D01*
X290129Y307593D01*
G37*
%LPD*%
%LPC*%
G36*
X264729Y307593D02*
X264729Y307593D01*
X261088Y309101D01*
X258301Y311888D01*
X256793Y315529D01*
X256793Y319471D01*
X258301Y323112D01*
X261088Y325899D01*
X264729Y327407D01*
X268671Y327407D01*
X272312Y325899D01*
X275099Y323112D01*
X276607Y319471D01*
X276607Y315529D01*
X275099Y311888D01*
X272312Y309101D01*
X268671Y307593D01*
X264729Y307593D01*
G37*
%LPD*%
%LPC*%
G36*
X366329Y307593D02*
X366329Y307593D01*
X362688Y309101D01*
X359901Y311888D01*
X358393Y315529D01*
X358393Y319471D01*
X359901Y323112D01*
X362688Y325899D01*
X366329Y327407D01*
X370271Y327407D01*
X373912Y325899D01*
X376699Y323112D01*
X378207Y319471D01*
X378207Y315529D01*
X376699Y311888D01*
X373912Y309101D01*
X370271Y307593D01*
X366329Y307593D01*
G37*
%LPD*%
%LPC*%
G36*
X36129Y307593D02*
X36129Y307593D01*
X32488Y309101D01*
X29701Y311888D01*
X28193Y315529D01*
X28193Y319471D01*
X29701Y323112D01*
X32488Y325899D01*
X36129Y327407D01*
X40071Y327407D01*
X43712Y325899D01*
X46499Y323112D01*
X48007Y319471D01*
X48007Y315529D01*
X46499Y311888D01*
X43712Y309101D01*
X40071Y307593D01*
X36129Y307593D01*
G37*
%LPD*%
%LPC*%
G36*
X340929Y307593D02*
X340929Y307593D01*
X337288Y309101D01*
X334501Y311888D01*
X332993Y315529D01*
X332993Y319471D01*
X334501Y323112D01*
X337288Y325899D01*
X340929Y327407D01*
X344871Y327407D01*
X348512Y325899D01*
X351299Y323112D01*
X352807Y319471D01*
X352807Y315529D01*
X351299Y311888D01*
X348512Y309101D01*
X344871Y307593D01*
X340929Y307593D01*
G37*
%LPD*%
%LPC*%
G36*
X315529Y307593D02*
X315529Y307593D01*
X311888Y309101D01*
X309101Y311888D01*
X307593Y315529D01*
X307593Y319471D01*
X309101Y323112D01*
X311888Y325899D01*
X315529Y327407D01*
X319471Y327407D01*
X323112Y325899D01*
X325899Y323112D01*
X327407Y319471D01*
X327407Y315529D01*
X325899Y311888D01*
X323112Y309101D01*
X319471Y307593D01*
X315529Y307593D01*
G37*
%LPD*%
%LPC*%
G36*
X163129Y282193D02*
X163129Y282193D01*
X159488Y283701D01*
X156701Y286488D01*
X155193Y290129D01*
X155193Y294071D01*
X156701Y297712D01*
X159488Y300499D01*
X163129Y302007D01*
X167071Y302007D01*
X170712Y300499D01*
X173499Y297712D01*
X175007Y294071D01*
X175007Y290129D01*
X173499Y286488D01*
X170712Y283701D01*
X167071Y282193D01*
X163129Y282193D01*
G37*
%LPD*%
%LPC*%
G36*
X137729Y282193D02*
X137729Y282193D01*
X134088Y283701D01*
X131301Y286488D01*
X129793Y290129D01*
X129793Y294071D01*
X131301Y297712D01*
X134088Y300499D01*
X137729Y302007D01*
X141671Y302007D01*
X145312Y300499D01*
X148099Y297712D01*
X149607Y294071D01*
X149607Y290129D01*
X148099Y286488D01*
X145312Y283701D01*
X141671Y282193D01*
X137729Y282193D01*
G37*
%LPD*%
%LPC*%
G36*
X239329Y307593D02*
X239329Y307593D01*
X235688Y309101D01*
X232901Y311888D01*
X231393Y315529D01*
X231393Y319471D01*
X232901Y323112D01*
X235688Y325899D01*
X239329Y327407D01*
X243271Y327407D01*
X246912Y325899D01*
X249699Y323112D01*
X251207Y319471D01*
X251207Y315529D01*
X249699Y311888D01*
X246912Y309101D01*
X243271Y307593D01*
X239329Y307593D01*
G37*
%LPD*%
%LPC*%
G36*
X61529Y307593D02*
X61529Y307593D01*
X57888Y309101D01*
X55101Y311888D01*
X53593Y315529D01*
X53593Y319471D01*
X55101Y323112D01*
X57888Y325899D01*
X61529Y327407D01*
X65471Y327407D01*
X69112Y325899D01*
X71899Y323112D01*
X73407Y319471D01*
X73407Y315529D01*
X71899Y311888D01*
X69112Y309101D01*
X65471Y307593D01*
X61529Y307593D01*
G37*
%LPD*%
%LPC*%
G36*
X86929Y307593D02*
X86929Y307593D01*
X83288Y309101D01*
X80501Y311888D01*
X78993Y315529D01*
X78993Y319471D01*
X80501Y323112D01*
X83288Y325899D01*
X86929Y327407D01*
X90871Y327407D01*
X94512Y325899D01*
X97299Y323112D01*
X98807Y319471D01*
X98807Y315529D01*
X97299Y311888D01*
X94512Y309101D01*
X90871Y307593D01*
X86929Y307593D01*
G37*
%LPD*%
%LPC*%
G36*
X213929Y307593D02*
X213929Y307593D01*
X210288Y309101D01*
X207501Y311888D01*
X205993Y315529D01*
X205993Y319471D01*
X207501Y323112D01*
X210288Y325899D01*
X213929Y327407D01*
X217871Y327407D01*
X221512Y325899D01*
X224299Y323112D01*
X225807Y319471D01*
X225807Y315529D01*
X224299Y311888D01*
X221512Y309101D01*
X217871Y307593D01*
X213929Y307593D01*
G37*
%LPD*%
%LPC*%
G36*
X188529Y307593D02*
X188529Y307593D01*
X184888Y309101D01*
X182101Y311888D01*
X180593Y315529D01*
X180593Y319471D01*
X182101Y323112D01*
X184888Y325899D01*
X188529Y327407D01*
X192471Y327407D01*
X196112Y325899D01*
X198899Y323112D01*
X200407Y319471D01*
X200407Y315529D01*
X198899Y311888D01*
X196112Y309101D01*
X192471Y307593D01*
X188529Y307593D01*
G37*
%LPD*%
%LPC*%
G36*
X163129Y307593D02*
X163129Y307593D01*
X159488Y309101D01*
X156701Y311888D01*
X155193Y315529D01*
X155193Y319471D01*
X156701Y323112D01*
X159488Y325899D01*
X163129Y327407D01*
X167071Y327407D01*
X170712Y325899D01*
X173499Y323112D01*
X175007Y319471D01*
X175007Y315529D01*
X173499Y311888D01*
X170712Y309101D01*
X167071Y307593D01*
X163129Y307593D01*
G37*
%LPD*%
%LPC*%
G36*
X137729Y307593D02*
X137729Y307593D01*
X134088Y309101D01*
X131301Y311888D01*
X129793Y315529D01*
X129793Y319471D01*
X131301Y323112D01*
X134088Y325899D01*
X137729Y327407D01*
X141671Y327407D01*
X145312Y325899D01*
X148099Y323112D01*
X149607Y319471D01*
X149607Y315529D01*
X148099Y311888D01*
X145312Y309101D01*
X141671Y307593D01*
X137729Y307593D01*
G37*
%LPD*%
%LPC*%
G36*
X112329Y307593D02*
X112329Y307593D01*
X108688Y309101D01*
X105901Y311888D01*
X104393Y315529D01*
X104393Y319471D01*
X105901Y323112D01*
X108688Y325899D01*
X112329Y327407D01*
X116271Y327407D01*
X119912Y325899D01*
X122699Y323112D01*
X124207Y319471D01*
X124207Y315529D01*
X122699Y311888D01*
X119912Y309101D01*
X116271Y307593D01*
X112329Y307593D01*
G37*
%LPD*%
%LPC*%
G36*
X86929Y155193D02*
X86929Y155193D01*
X83288Y156701D01*
X80501Y159488D01*
X78993Y163129D01*
X78993Y167071D01*
X80501Y170712D01*
X83288Y173499D01*
X86929Y175007D01*
X90871Y175007D01*
X94512Y173499D01*
X97299Y170712D01*
X98807Y167071D01*
X98807Y163129D01*
X97299Y159488D01*
X94512Y156701D01*
X90871Y155193D01*
X86929Y155193D01*
G37*
%LPD*%
%LPC*%
G36*
X61529Y155193D02*
X61529Y155193D01*
X57888Y156701D01*
X55101Y159488D01*
X53593Y163129D01*
X53593Y167071D01*
X55101Y170712D01*
X57888Y173499D01*
X61529Y175007D01*
X65471Y175007D01*
X69112Y173499D01*
X71899Y170712D01*
X73407Y167071D01*
X73407Y163129D01*
X71899Y159488D01*
X69112Y156701D01*
X65471Y155193D01*
X61529Y155193D01*
G37*
%LPD*%
%LPC*%
G36*
X366329Y155193D02*
X366329Y155193D01*
X362688Y156701D01*
X359901Y159488D01*
X358393Y163129D01*
X358393Y167071D01*
X359901Y170712D01*
X362688Y173499D01*
X366329Y175007D01*
X370271Y175007D01*
X373912Y173499D01*
X376699Y170712D01*
X378207Y167071D01*
X378207Y163129D01*
X376699Y159488D01*
X373912Y156701D01*
X370271Y155193D01*
X366329Y155193D01*
G37*
%LPD*%
%LPC*%
G36*
X340929Y155193D02*
X340929Y155193D01*
X337288Y156701D01*
X334501Y159488D01*
X332993Y163129D01*
X332993Y167071D01*
X334501Y170712D01*
X337288Y173499D01*
X340929Y175007D01*
X344871Y175007D01*
X348512Y173499D01*
X351299Y170712D01*
X352807Y167071D01*
X352807Y163129D01*
X351299Y159488D01*
X348512Y156701D01*
X344871Y155193D01*
X340929Y155193D01*
G37*
%LPD*%
%LPC*%
G36*
X315529Y155193D02*
X315529Y155193D01*
X311888Y156701D01*
X309101Y159488D01*
X307593Y163129D01*
X307593Y167071D01*
X309101Y170712D01*
X311888Y173499D01*
X315529Y175007D01*
X319471Y175007D01*
X323112Y173499D01*
X325899Y170712D01*
X327407Y167071D01*
X327407Y163129D01*
X325899Y159488D01*
X323112Y156701D01*
X319471Y155193D01*
X315529Y155193D01*
G37*
%LPD*%
%LPC*%
G36*
X290129Y155193D02*
X290129Y155193D01*
X286488Y156701D01*
X283701Y159488D01*
X282193Y163129D01*
X282193Y167071D01*
X283701Y170712D01*
X286488Y173499D01*
X290129Y175007D01*
X294071Y175007D01*
X297712Y173499D01*
X300499Y170712D01*
X302007Y167071D01*
X302007Y163129D01*
X300499Y159488D01*
X297712Y156701D01*
X294071Y155193D01*
X290129Y155193D01*
G37*
%LPD*%
%LPC*%
G36*
X264729Y155193D02*
X264729Y155193D01*
X261088Y156701D01*
X258301Y159488D01*
X256793Y163129D01*
X256793Y167071D01*
X258301Y170712D01*
X261088Y173499D01*
X264729Y175007D01*
X268671Y175007D01*
X272312Y173499D01*
X275099Y170712D01*
X276607Y167071D01*
X276607Y163129D01*
X275099Y159488D01*
X272312Y156701D01*
X268671Y155193D01*
X264729Y155193D01*
G37*
%LPD*%
%LPC*%
G36*
X239329Y155193D02*
X239329Y155193D01*
X235688Y156701D01*
X232901Y159488D01*
X231393Y163129D01*
X231393Y167071D01*
X232901Y170712D01*
X235688Y173499D01*
X239329Y175007D01*
X243271Y175007D01*
X246912Y173499D01*
X249699Y170712D01*
X251207Y167071D01*
X251207Y163129D01*
X249699Y159488D01*
X246912Y156701D01*
X243271Y155193D01*
X239329Y155193D01*
G37*
%LPD*%
%LPC*%
G36*
X213929Y155193D02*
X213929Y155193D01*
X210288Y156701D01*
X207501Y159488D01*
X205993Y163129D01*
X205993Y167071D01*
X207501Y170712D01*
X210288Y173499D01*
X213929Y175007D01*
X217871Y175007D01*
X221512Y173499D01*
X224299Y170712D01*
X225807Y167071D01*
X225807Y163129D01*
X224299Y159488D01*
X221512Y156701D01*
X217871Y155193D01*
X213929Y155193D01*
G37*
%LPD*%
%LPC*%
G36*
X188529Y155193D02*
X188529Y155193D01*
X184888Y156701D01*
X182101Y159488D01*
X180593Y163129D01*
X180593Y167071D01*
X182101Y170712D01*
X184888Y173499D01*
X188529Y175007D01*
X192471Y175007D01*
X196112Y173499D01*
X198899Y170712D01*
X200407Y167071D01*
X200407Y163129D01*
X198899Y159488D01*
X196112Y156701D01*
X192471Y155193D01*
X188529Y155193D01*
G37*
%LPD*%
%LPC*%
G36*
X163129Y155193D02*
X163129Y155193D01*
X159488Y156701D01*
X156701Y159488D01*
X155193Y163129D01*
X155193Y167071D01*
X156701Y170712D01*
X159488Y173499D01*
X163129Y175007D01*
X167071Y175007D01*
X170712Y173499D01*
X173499Y170712D01*
X175007Y167071D01*
X175007Y163129D01*
X173499Y159488D01*
X170712Y156701D01*
X167071Y155193D01*
X163129Y155193D01*
G37*
%LPD*%
%LPC*%
G36*
X137729Y155193D02*
X137729Y155193D01*
X134088Y156701D01*
X131301Y159488D01*
X129793Y163129D01*
X129793Y167071D01*
X131301Y170712D01*
X134088Y173499D01*
X137729Y175007D01*
X141671Y175007D01*
X145312Y173499D01*
X148099Y170712D01*
X149607Y167071D01*
X149607Y163129D01*
X148099Y159488D01*
X145312Y156701D01*
X141671Y155193D01*
X137729Y155193D01*
G37*
%LPD*%
%LPC*%
G36*
X112329Y155193D02*
X112329Y155193D01*
X108688Y156701D01*
X105901Y159488D01*
X104393Y163129D01*
X104393Y167071D01*
X105901Y170712D01*
X108688Y173499D01*
X112329Y175007D01*
X116271Y175007D01*
X119912Y173499D01*
X122699Y170712D01*
X124207Y167071D01*
X124207Y163129D01*
X122699Y159488D01*
X119912Y156701D01*
X116271Y155193D01*
X112329Y155193D01*
G37*
%LPD*%
%LPC*%
G36*
X633181Y371855D02*
X633181Y371855D01*
X629820Y373247D01*
X627247Y375820D01*
X625855Y379181D01*
X625855Y382819D01*
X627247Y386180D01*
X629820Y388753D01*
X633181Y390145D01*
X636819Y390145D01*
X640180Y388753D01*
X642753Y386180D01*
X644145Y382819D01*
X644145Y379181D01*
X642753Y375820D01*
X640180Y373247D01*
X636819Y371855D01*
X633181Y371855D01*
G37*
%LPD*%
%LPC*%
G36*
X633181Y92455D02*
X633181Y92455D01*
X629820Y93847D01*
X627247Y96420D01*
X625855Y99781D01*
X625855Y103419D01*
X627247Y106780D01*
X629820Y109353D01*
X633181Y110745D01*
X636819Y110745D01*
X640180Y109353D01*
X642753Y106780D01*
X644145Y103419D01*
X644145Y99781D01*
X642753Y96420D01*
X640180Y93847D01*
X636819Y92455D01*
X633181Y92455D01*
G37*
%LPD*%
%LPC*%
G36*
X573023Y39623D02*
X573023Y39623D01*
X573023Y49946D01*
X574296Y49745D01*
X576083Y49164D01*
X577757Y48311D01*
X579278Y47206D01*
X580606Y45878D01*
X581711Y44357D01*
X582564Y42683D01*
X583145Y40896D01*
X583346Y39623D01*
X573023Y39623D01*
G37*
%LPD*%
%LPC*%
G36*
X153923Y39623D02*
X153923Y39623D01*
X153923Y49946D01*
X155196Y49745D01*
X156983Y49164D01*
X158657Y48311D01*
X160178Y47206D01*
X161506Y45878D01*
X162611Y44357D01*
X163464Y42683D01*
X164045Y40896D01*
X164246Y39623D01*
X153923Y39623D01*
G37*
%LPD*%
%LPC*%
G36*
X293623Y39623D02*
X293623Y39623D01*
X293623Y49946D01*
X294896Y49745D01*
X296683Y49164D01*
X298357Y48311D01*
X299878Y47206D01*
X301206Y45878D01*
X302311Y44357D01*
X303164Y42683D01*
X303745Y40896D01*
X303946Y39623D01*
X293623Y39623D01*
G37*
%LPD*%
%LPC*%
G36*
X382523Y39623D02*
X382523Y39623D01*
X382523Y49946D01*
X383796Y49745D01*
X385583Y49164D01*
X387257Y48311D01*
X388778Y47206D01*
X390106Y45878D01*
X391211Y44357D01*
X392064Y42683D01*
X392645Y40896D01*
X392846Y39623D01*
X382523Y39623D01*
G37*
%LPD*%
%LPC*%
G36*
X649223Y242823D02*
X649223Y242823D01*
X649223Y253146D01*
X650496Y252945D01*
X652283Y252364D01*
X653957Y251511D01*
X655478Y250406D01*
X656806Y249078D01*
X657911Y247557D01*
X658764Y245883D01*
X659345Y244096D01*
X659546Y242823D01*
X649223Y242823D01*
G37*
%LPD*%
%LPC*%
G36*
X230123Y77723D02*
X230123Y77723D01*
X230123Y88046D01*
X231396Y87845D01*
X233183Y87264D01*
X234857Y86411D01*
X236378Y85306D01*
X237706Y83978D01*
X238811Y82457D01*
X239664Y80783D01*
X240245Y78996D01*
X240446Y77723D01*
X230123Y77723D01*
G37*
%LPD*%
%LPC*%
G36*
X420623Y39623D02*
X420623Y39623D01*
X420623Y49946D01*
X421896Y49745D01*
X423683Y49164D01*
X425357Y48311D01*
X426878Y47206D01*
X428206Y45878D01*
X429311Y44357D01*
X430164Y42683D01*
X430745Y40896D01*
X430946Y39623D01*
X420623Y39623D01*
G37*
%LPD*%
%LPC*%
G36*
X115823Y39623D02*
X115823Y39623D01*
X115823Y49946D01*
X117096Y49745D01*
X118883Y49164D01*
X120557Y48311D01*
X122078Y47206D01*
X123406Y45878D01*
X124511Y44357D01*
X125364Y42683D01*
X125945Y40896D01*
X126146Y39623D01*
X115823Y39623D01*
G37*
%LPD*%
%LPC*%
G36*
X534923Y39623D02*
X534923Y39623D01*
X534923Y49946D01*
X536196Y49745D01*
X537983Y49164D01*
X539657Y48311D01*
X541178Y47206D01*
X542506Y45878D01*
X543611Y44357D01*
X544464Y42683D01*
X545045Y40896D01*
X545246Y39623D01*
X534923Y39623D01*
G37*
%LPD*%
%LPC*%
G36*
X230123Y74677D02*
X230123Y74677D01*
X240446Y74677D01*
X240245Y73404D01*
X239664Y71617D01*
X238811Y69943D01*
X237706Y68422D01*
X236378Y67094D01*
X234857Y65989D01*
X233183Y65136D01*
X231396Y64555D01*
X230123Y64354D01*
X230123Y74677D01*
G37*
%LPD*%
%LPC*%
G36*
X649223Y239777D02*
X649223Y239777D01*
X659546Y239777D01*
X659345Y238504D01*
X658764Y236717D01*
X657911Y235043D01*
X656806Y233522D01*
X655478Y232194D01*
X653957Y231089D01*
X652283Y230236D01*
X650496Y229655D01*
X649223Y229454D01*
X649223Y239777D01*
G37*
%LPD*%
%LPC*%
G36*
X534923Y36577D02*
X534923Y36577D01*
X545246Y36577D01*
X545045Y35304D01*
X544464Y33517D01*
X543611Y31843D01*
X542506Y30322D01*
X541178Y28994D01*
X539657Y27889D01*
X537983Y27036D01*
X536196Y26455D01*
X534923Y26254D01*
X534923Y36577D01*
G37*
%LPD*%
%LPC*%
G36*
X102454Y39623D02*
X102454Y39623D01*
X102655Y40896D01*
X103236Y42683D01*
X104089Y44357D01*
X105194Y45878D01*
X106522Y47206D01*
X108043Y48311D01*
X109717Y49164D01*
X111504Y49745D01*
X112777Y49946D01*
X112777Y39623D01*
X102454Y39623D01*
G37*
%LPD*%
%LPC*%
G36*
X280254Y39623D02*
X280254Y39623D01*
X280455Y40896D01*
X281036Y42683D01*
X281889Y44357D01*
X282994Y45878D01*
X284322Y47206D01*
X285843Y48311D01*
X287517Y49164D01*
X289304Y49745D01*
X290577Y49946D01*
X290577Y39623D01*
X280254Y39623D01*
G37*
%LPD*%
%LPC*%
G36*
X559654Y39623D02*
X559654Y39623D01*
X559855Y40896D01*
X560436Y42683D01*
X561289Y44357D01*
X562394Y45878D01*
X563722Y47206D01*
X565243Y48311D01*
X566917Y49164D01*
X568704Y49745D01*
X569977Y49946D01*
X569977Y39623D01*
X559654Y39623D01*
G37*
%LPD*%
%LPC*%
G36*
X573023Y36577D02*
X573023Y36577D01*
X583346Y36577D01*
X583145Y35304D01*
X582564Y33517D01*
X581711Y31843D01*
X580606Y30322D01*
X579278Y28994D01*
X577757Y27889D01*
X576083Y27036D01*
X574296Y26455D01*
X573023Y26254D01*
X573023Y36577D01*
G37*
%LPD*%
%LPC*%
G36*
X115823Y36577D02*
X115823Y36577D01*
X126146Y36577D01*
X125945Y35304D01*
X125364Y33517D01*
X124511Y31843D01*
X123406Y30322D01*
X122078Y28994D01*
X120557Y27889D01*
X118883Y27036D01*
X117096Y26455D01*
X115823Y26254D01*
X115823Y36577D01*
G37*
%LPD*%
%LPC*%
G36*
X420623Y36577D02*
X420623Y36577D01*
X430946Y36577D01*
X430745Y35304D01*
X430164Y33517D01*
X429311Y31843D01*
X428206Y30322D01*
X426878Y28994D01*
X425357Y27889D01*
X423683Y27036D01*
X421896Y26455D01*
X420623Y26254D01*
X420623Y36577D01*
G37*
%LPD*%
%LPC*%
G36*
X407254Y39623D02*
X407254Y39623D01*
X407455Y40896D01*
X408036Y42683D01*
X408889Y44357D01*
X409994Y45878D01*
X411322Y47206D01*
X412843Y48311D01*
X414517Y49164D01*
X416304Y49745D01*
X417577Y49946D01*
X417577Y39623D01*
X407254Y39623D01*
G37*
%LPD*%
%LPC*%
G36*
X216754Y77723D02*
X216754Y77723D01*
X216955Y78996D01*
X217536Y80783D01*
X218389Y82457D01*
X219494Y83978D01*
X220822Y85306D01*
X222343Y86411D01*
X224017Y87264D01*
X225804Y87845D01*
X227077Y88046D01*
X227077Y77723D01*
X216754Y77723D01*
G37*
%LPD*%
%LPC*%
G36*
X635854Y242823D02*
X635854Y242823D01*
X636055Y244096D01*
X636636Y245883D01*
X637489Y247557D01*
X638594Y249078D01*
X639922Y250406D01*
X641443Y251511D01*
X643117Y252364D01*
X644904Y252945D01*
X646177Y253146D01*
X646177Y242823D01*
X635854Y242823D01*
G37*
%LPD*%
%LPC*%
G36*
X521554Y39623D02*
X521554Y39623D01*
X521755Y40896D01*
X522336Y42683D01*
X523189Y44357D01*
X524294Y45878D01*
X525622Y47206D01*
X527143Y48311D01*
X528817Y49164D01*
X530604Y49745D01*
X531877Y49946D01*
X531877Y39623D01*
X521554Y39623D01*
G37*
%LPD*%
%LPC*%
G36*
X140554Y39623D02*
X140554Y39623D01*
X140755Y40896D01*
X141336Y42683D01*
X142189Y44357D01*
X143294Y45878D01*
X144622Y47206D01*
X146143Y48311D01*
X147817Y49164D01*
X149604Y49745D01*
X150877Y49946D01*
X150877Y39623D01*
X140554Y39623D01*
G37*
%LPD*%
%LPC*%
G36*
X369154Y39623D02*
X369154Y39623D01*
X369355Y40896D01*
X369936Y42683D01*
X370789Y44357D01*
X371894Y45878D01*
X373222Y47206D01*
X374743Y48311D01*
X376417Y49164D01*
X378204Y49745D01*
X379477Y49946D01*
X379477Y39623D01*
X369154Y39623D01*
G37*
%LPD*%
%LPC*%
G36*
X382523Y36577D02*
X382523Y36577D01*
X392846Y36577D01*
X392645Y35304D01*
X392064Y33517D01*
X391211Y31843D01*
X390106Y30322D01*
X388778Y28994D01*
X387257Y27889D01*
X385583Y27036D01*
X383796Y26455D01*
X382523Y26254D01*
X382523Y36577D01*
G37*
%LPD*%
%LPC*%
G36*
X293623Y36577D02*
X293623Y36577D01*
X303946Y36577D01*
X303745Y35304D01*
X303164Y33517D01*
X302311Y31843D01*
X301206Y30322D01*
X299878Y28994D01*
X298357Y27889D01*
X296683Y27036D01*
X294896Y26455D01*
X293623Y26254D01*
X293623Y36577D01*
G37*
%LPD*%
%LPC*%
G36*
X153923Y36577D02*
X153923Y36577D01*
X164246Y36577D01*
X164045Y35304D01*
X163464Y33517D01*
X162611Y31843D01*
X161506Y30322D01*
X160178Y28994D01*
X158657Y27889D01*
X156983Y27036D01*
X155196Y26455D01*
X153923Y26254D01*
X153923Y36577D01*
G37*
%LPD*%
%LPC*%
G36*
X225804Y64555D02*
X225804Y64555D01*
X224017Y65136D01*
X222343Y65989D01*
X220822Y67094D01*
X219494Y68422D01*
X218389Y69943D01*
X217536Y71617D01*
X216955Y73404D01*
X216754Y74677D01*
X227077Y74677D01*
X227077Y64354D01*
X225804Y64555D01*
G37*
%LPD*%
%LPC*%
G36*
X149604Y26455D02*
X149604Y26455D01*
X147817Y27036D01*
X146143Y27889D01*
X144622Y28994D01*
X143294Y30322D01*
X142189Y31843D01*
X141336Y33517D01*
X140755Y35304D01*
X140554Y36577D01*
X150877Y36577D01*
X150877Y26254D01*
X149604Y26455D01*
G37*
%LPD*%
%LPC*%
G36*
X111504Y26455D02*
X111504Y26455D01*
X109717Y27036D01*
X108043Y27889D01*
X106522Y28994D01*
X105194Y30322D01*
X104089Y31843D01*
X103236Y33517D01*
X102655Y35304D01*
X102454Y36577D01*
X112777Y36577D01*
X112777Y26254D01*
X111504Y26455D01*
G37*
%LPD*%
%LPC*%
G36*
X568704Y26455D02*
X568704Y26455D01*
X566917Y27036D01*
X565243Y27889D01*
X563722Y28994D01*
X562394Y30322D01*
X561289Y31843D01*
X560436Y33517D01*
X559855Y35304D01*
X559654Y36577D01*
X569977Y36577D01*
X569977Y26254D01*
X568704Y26455D01*
G37*
%LPD*%
%LPC*%
G36*
X644904Y229655D02*
X644904Y229655D01*
X643117Y230236D01*
X641443Y231089D01*
X639922Y232194D01*
X638594Y233522D01*
X637489Y235043D01*
X636636Y236717D01*
X636055Y238504D01*
X635854Y239777D01*
X646177Y239777D01*
X646177Y229454D01*
X644904Y229655D01*
G37*
%LPD*%
%LPC*%
G36*
X530604Y26455D02*
X530604Y26455D01*
X528817Y27036D01*
X527143Y27889D01*
X525622Y28994D01*
X524294Y30322D01*
X523189Y31843D01*
X522336Y33517D01*
X521755Y35304D01*
X521554Y36577D01*
X531877Y36577D01*
X531877Y26254D01*
X530604Y26455D01*
G37*
%LPD*%
%LPC*%
G36*
X289304Y26455D02*
X289304Y26455D01*
X287517Y27036D01*
X285843Y27889D01*
X284322Y28994D01*
X282994Y30322D01*
X281889Y31843D01*
X281036Y33517D01*
X280455Y35304D01*
X280254Y36577D01*
X290577Y36577D01*
X290577Y26254D01*
X289304Y26455D01*
G37*
%LPD*%
%LPC*%
G36*
X416304Y26455D02*
X416304Y26455D01*
X414517Y27036D01*
X412843Y27889D01*
X411322Y28994D01*
X409994Y30322D01*
X408889Y31843D01*
X408036Y33517D01*
X407455Y35304D01*
X407254Y36577D01*
X417577Y36577D01*
X417577Y26254D01*
X416304Y26455D01*
G37*
%LPD*%
%LPC*%
G36*
X378204Y26455D02*
X378204Y26455D01*
X376417Y27036D01*
X374743Y27889D01*
X373222Y28994D01*
X371894Y30322D01*
X370789Y31843D01*
X369936Y33517D01*
X369355Y35304D01*
X369154Y36577D01*
X379477Y36577D01*
X379477Y26254D01*
X378204Y26455D01*
G37*
%LPD*%
%LPC*%
G36*
X522423Y204723D02*
X522423Y204723D01*
X522423Y213889D01*
X523428Y213730D01*
X525044Y213205D01*
X526558Y212433D01*
X527933Y211434D01*
X529134Y210233D01*
X530133Y208858D01*
X530905Y207344D01*
X531430Y205728D01*
X531589Y204723D01*
X522423Y204723D01*
G37*
%LPD*%
%LPC*%
G36*
X522423Y293623D02*
X522423Y293623D01*
X522423Y302789D01*
X523428Y302630D01*
X525044Y302105D01*
X526558Y301333D01*
X527933Y300334D01*
X529134Y299133D01*
X530133Y297758D01*
X530905Y296244D01*
X531430Y294628D01*
X531589Y293623D01*
X522423Y293623D01*
G37*
%LPD*%
%LPC*%
G36*
X510211Y204723D02*
X510211Y204723D01*
X510370Y205728D01*
X510895Y207344D01*
X511667Y208858D01*
X512666Y210233D01*
X513867Y211434D01*
X515242Y212433D01*
X516756Y213205D01*
X518372Y213730D01*
X519377Y213889D01*
X519377Y204723D01*
X510211Y204723D01*
G37*
%LPD*%
%LPC*%
G36*
X522423Y290577D02*
X522423Y290577D01*
X531589Y290577D01*
X531430Y289572D01*
X530905Y287956D01*
X530133Y286442D01*
X529134Y285067D01*
X527933Y283866D01*
X526558Y282867D01*
X525044Y282095D01*
X523428Y281570D01*
X522423Y281411D01*
X522423Y290577D01*
G37*
%LPD*%
%LPC*%
G36*
X510211Y293623D02*
X510211Y293623D01*
X510370Y294628D01*
X510895Y296244D01*
X511667Y297758D01*
X512666Y299133D01*
X513867Y300334D01*
X515242Y301333D01*
X516756Y302105D01*
X518372Y302630D01*
X519377Y302789D01*
X519377Y293623D01*
X510211Y293623D01*
G37*
%LPD*%
%LPC*%
G36*
X522423Y201677D02*
X522423Y201677D01*
X531589Y201677D01*
X531430Y200672D01*
X530905Y199056D01*
X530133Y197542D01*
X529134Y196167D01*
X527933Y194966D01*
X526558Y193967D01*
X525044Y193195D01*
X523428Y192670D01*
X522423Y192511D01*
X522423Y201677D01*
G37*
%LPD*%
%LPC*%
G36*
X518372Y192670D02*
X518372Y192670D01*
X516756Y193195D01*
X515242Y193967D01*
X513867Y194966D01*
X512666Y196167D01*
X511667Y197542D01*
X510895Y199056D01*
X510370Y200672D01*
X510211Y201677D01*
X519377Y201677D01*
X519377Y192511D01*
X518372Y192670D01*
G37*
%LPD*%
%LPC*%
G36*
X518372Y281570D02*
X518372Y281570D01*
X516756Y282095D01*
X515242Y282867D01*
X513867Y283866D01*
X512666Y285067D01*
X511667Y286442D01*
X510895Y287956D01*
X510370Y289572D01*
X510211Y290577D01*
X519377Y290577D01*
X519377Y281411D01*
X518372Y281570D01*
G37*
%LPD*%
%LPC*%
G36*
X39623Y166623D02*
X39623Y166623D01*
X39623Y174889D01*
X40420Y174763D01*
X41903Y174281D01*
X43292Y173573D01*
X44554Y172656D01*
X45656Y171554D01*
X46573Y170292D01*
X47281Y168903D01*
X47763Y167420D01*
X47889Y166623D01*
X39623Y166623D01*
G37*
%LPD*%
%LPC*%
G36*
X28311Y166623D02*
X28311Y166623D01*
X28437Y167420D01*
X28919Y168903D01*
X29627Y170292D01*
X30544Y171554D01*
X31646Y172656D01*
X32908Y173573D01*
X34297Y174281D01*
X35780Y174763D01*
X36577Y174889D01*
X36577Y166623D01*
X28311Y166623D01*
G37*
%LPD*%
%LPC*%
G36*
X39623Y163577D02*
X39623Y163577D01*
X47889Y163577D01*
X47763Y162780D01*
X47281Y161297D01*
X46573Y159908D01*
X45656Y158646D01*
X44554Y157544D01*
X43292Y156627D01*
X41903Y155919D01*
X40420Y155437D01*
X39623Y155311D01*
X39623Y163577D01*
G37*
%LPD*%
%LPC*%
G36*
X35780Y155437D02*
X35780Y155437D01*
X34297Y155919D01*
X32908Y156627D01*
X31646Y157544D01*
X30544Y158646D01*
X29627Y159908D01*
X28919Y161297D01*
X28437Y162780D01*
X28311Y163577D01*
X36577Y163577D01*
X36577Y155311D01*
X35780Y155437D01*
G37*
%LPD*%
%LPC*%
G36*
X661923Y103123D02*
X661923Y103123D01*
X661923Y110621D01*
X663067Y110393D01*
X664732Y109704D01*
X666230Y108703D01*
X667503Y107430D01*
X668504Y105932D01*
X669193Y104267D01*
X669421Y103123D01*
X661923Y103123D01*
G37*
%LPD*%
%LPC*%
G36*
X661923Y382523D02*
X661923Y382523D01*
X661923Y390021D01*
X663067Y389793D01*
X664732Y389104D01*
X666230Y388103D01*
X667503Y386830D01*
X668504Y385332D01*
X669193Y383667D01*
X669421Y382523D01*
X661923Y382523D01*
G37*
%LPD*%
%LPC*%
G36*
X661923Y379477D02*
X661923Y379477D01*
X669421Y379477D01*
X669193Y378333D01*
X668504Y376668D01*
X667503Y375170D01*
X666230Y373897D01*
X664732Y372896D01*
X663067Y372207D01*
X661923Y371979D01*
X661923Y379477D01*
G37*
%LPD*%
%LPC*%
G36*
X651379Y382523D02*
X651379Y382523D01*
X651607Y383667D01*
X652296Y385332D01*
X653297Y386830D01*
X654570Y388103D01*
X656068Y389104D01*
X657733Y389793D01*
X658877Y390021D01*
X658877Y382523D01*
X651379Y382523D01*
G37*
%LPD*%
%LPC*%
G36*
X651379Y103123D02*
X651379Y103123D01*
X651607Y104267D01*
X652296Y105932D01*
X653297Y107430D01*
X654570Y108703D01*
X656068Y109704D01*
X657733Y110393D01*
X658877Y110621D01*
X658877Y103123D01*
X651379Y103123D01*
G37*
%LPD*%
%LPC*%
G36*
X661923Y100077D02*
X661923Y100077D01*
X669421Y100077D01*
X669193Y98933D01*
X668504Y97268D01*
X667503Y95770D01*
X666230Y94497D01*
X664732Y93496D01*
X663067Y92807D01*
X661923Y92579D01*
X661923Y100077D01*
G37*
%LPD*%
%LPC*%
G36*
X657733Y372207D02*
X657733Y372207D01*
X656068Y372896D01*
X654570Y373897D01*
X653297Y375170D01*
X652296Y376668D01*
X651607Y378333D01*
X651379Y379477D01*
X658877Y379477D01*
X658877Y371979D01*
X657733Y372207D01*
G37*
%LPD*%
%LPC*%
G36*
X657733Y92807D02*
X657733Y92807D01*
X656068Y93496D01*
X654570Y94497D01*
X653297Y95770D01*
X652296Y97268D01*
X651607Y98933D01*
X651379Y100077D01*
X658877Y100077D01*
X658877Y92579D01*
X657733Y92807D01*
G37*
%LPD*%
%LPC*%
G36*
X292099Y38099D02*
X292099Y38099D01*
X292099Y38101D01*
X292101Y38101D01*
X292101Y38099D01*
X292099Y38099D01*
G37*
%LPD*%
%LPC*%
G36*
X380999Y38099D02*
X380999Y38099D01*
X380999Y38101D01*
X381001Y38101D01*
X381001Y38099D01*
X380999Y38099D01*
G37*
%LPD*%
%LPC*%
G36*
X419099Y38099D02*
X419099Y38099D01*
X419099Y38101D01*
X419101Y38101D01*
X419101Y38099D01*
X419099Y38099D01*
G37*
%LPD*%
%LPC*%
G36*
X533399Y38099D02*
X533399Y38099D01*
X533399Y38101D01*
X533401Y38101D01*
X533401Y38099D01*
X533399Y38099D01*
G37*
%LPD*%
%LPC*%
G36*
X571499Y38099D02*
X571499Y38099D01*
X571499Y38101D01*
X571501Y38101D01*
X571501Y38099D01*
X571499Y38099D01*
G37*
%LPD*%
%LPC*%
G36*
X114299Y38099D02*
X114299Y38099D01*
X114299Y38101D01*
X114301Y38101D01*
X114301Y38099D01*
X114299Y38099D01*
G37*
%LPD*%
%LPC*%
G36*
X647699Y241299D02*
X647699Y241299D01*
X647699Y241301D01*
X647701Y241301D01*
X647701Y241299D01*
X647699Y241299D01*
G37*
%LPD*%
%LPC*%
G36*
X660399Y380999D02*
X660399Y380999D01*
X660399Y381001D01*
X660401Y381001D01*
X660401Y380999D01*
X660399Y380999D01*
G37*
%LPD*%
%LPC*%
G36*
X520899Y203199D02*
X520899Y203199D01*
X520899Y203201D01*
X520901Y203201D01*
X520901Y203199D01*
X520899Y203199D01*
G37*
%LPD*%
%LPC*%
G36*
X38099Y165099D02*
X38099Y165099D01*
X38099Y165101D01*
X38101Y165101D01*
X38101Y165099D01*
X38099Y165099D01*
G37*
%LPD*%
%LPC*%
G36*
X660399Y101599D02*
X660399Y101599D01*
X660399Y101601D01*
X660401Y101601D01*
X660401Y101599D01*
X660399Y101599D01*
G37*
%LPD*%
%LPC*%
G36*
X228599Y76199D02*
X228599Y76199D01*
X228599Y76201D01*
X228601Y76201D01*
X228601Y76199D01*
X228599Y76199D01*
G37*
%LPD*%
%LPC*%
G36*
X520899Y292099D02*
X520899Y292099D01*
X520899Y292101D01*
X520901Y292101D01*
X520901Y292099D01*
X520899Y292099D01*
G37*
%LPD*%
%LPC*%
G36*
X152399Y38099D02*
X152399Y38099D01*
X152399Y38101D01*
X152401Y38101D01*
X152401Y38099D01*
X152399Y38099D01*
G37*
%LPD*%
D10*
X88900Y38100D03*
X114300Y38100D03*
X152400Y38100D03*
X177800Y38100D03*
X203200Y38100D03*
X508000Y38100D03*
X533400Y38100D03*
X571500Y38100D03*
X596900Y38100D03*
X419100Y38100D03*
X444500Y38100D03*
X469900Y38100D03*
D11*
X38100Y165100D03*
X63500Y165100D03*
X88900Y165100D03*
X114300Y165100D03*
X139700Y165100D03*
X165100Y165100D03*
X190500Y165100D03*
X215900Y165100D03*
X241300Y165100D03*
X266700Y165100D03*
X292100Y165100D03*
X317500Y165100D03*
X342900Y165100D03*
X368300Y165100D03*
X368300Y317500D03*
X342900Y317500D03*
X317500Y317500D03*
X292100Y317500D03*
X266700Y317500D03*
X241300Y317500D03*
X215900Y317500D03*
X190500Y317500D03*
X165100Y317500D03*
X139700Y317500D03*
X114300Y317500D03*
X88900Y317500D03*
X63500Y317500D03*
X38100Y317500D03*
X63500Y292100D03*
X114300Y292100D03*
X139700Y292100D03*
X165100Y292100D03*
D10*
X241300Y38100D03*
X266700Y38100D03*
X292100Y38100D03*
X330200Y38100D03*
X355600Y38100D03*
X381000Y38100D03*
X520700Y381000D03*
X596900Y381000D03*
X596900Y101600D03*
X520700Y101600D03*
X342900Y139700D03*
X342900Y63500D03*
X152400Y114300D03*
X228600Y114300D03*
X228600Y76200D03*
X152400Y76200D03*
D12*
X114100Y101600D03*
D13*
X89100Y101600D03*
D12*
X545900Y292100D03*
D13*
X520900Y292100D03*
D12*
X545900Y203200D03*
D13*
X520900Y203200D03*
D14*
X635000Y101600D03*
X660400Y101600D03*
X635000Y381000D03*
X660400Y381000D03*
D15*
X647700Y266700D03*
D10*
X647700Y241300D03*
X647700Y215900D03*
D16*
X508000Y38100D02*
X495300Y38100D01*
X400050Y133350D01*
X355600Y133350D01*
X349250Y139700D01*
X342900Y139700D01*
M02*
