G04 EAGLE Gerber RS-274X export*
G75*
%MOMM*%
%FSLAX34Y34*%
%LPD*%
%IN*%
%IPPOS*%
%AMOC8*
5,1,8,0,0,1.08239X$1,22.5*%
G01*
%ADD10C,0.254000*%


D10*
X0Y0D02*
X707900Y0D01*
X707900Y419000D01*
X0Y419000D01*
X0Y0D01*
X688550Y25184D02*
X688482Y24756D01*
X688349Y24344D01*
X688152Y23959D01*
X687898Y23609D01*
X687592Y23302D01*
X687241Y23048D01*
X686856Y22851D01*
X686444Y22718D01*
X686016Y22650D01*
X685584Y22650D01*
X685156Y22718D01*
X684744Y22851D01*
X684359Y23048D01*
X684009Y23302D01*
X683702Y23609D01*
X683448Y23959D01*
X683251Y24344D01*
X683118Y24756D01*
X683050Y25184D01*
X683050Y25616D01*
X683118Y26044D01*
X683251Y26456D01*
X683448Y26841D01*
X683702Y27192D01*
X684009Y27498D01*
X684359Y27752D01*
X684744Y27949D01*
X685156Y28082D01*
X685584Y28150D01*
X686016Y28150D01*
X686444Y28082D01*
X686856Y27949D01*
X687241Y27752D01*
X687592Y27498D01*
X687898Y27192D01*
X688152Y26841D01*
X688349Y26456D01*
X688482Y26044D01*
X688550Y25616D01*
X688550Y25184D01*
X28150Y25184D02*
X28082Y24756D01*
X27949Y24344D01*
X27752Y23959D01*
X27498Y23609D01*
X27192Y23302D01*
X26841Y23048D01*
X26456Y22851D01*
X26044Y22718D01*
X25616Y22650D01*
X25184Y22650D01*
X24756Y22718D01*
X24344Y22851D01*
X23959Y23048D01*
X23609Y23302D01*
X23302Y23609D01*
X23048Y23959D01*
X22851Y24344D01*
X22718Y24756D01*
X22650Y25184D01*
X22650Y25616D01*
X22718Y26044D01*
X22851Y26456D01*
X23048Y26841D01*
X23302Y27192D01*
X23609Y27498D01*
X23959Y27752D01*
X24344Y27949D01*
X24756Y28082D01*
X25184Y28150D01*
X25616Y28150D01*
X26044Y28082D01*
X26456Y27949D01*
X26841Y27752D01*
X27192Y27498D01*
X27498Y27192D01*
X27752Y26841D01*
X27949Y26456D01*
X28082Y26044D01*
X28150Y25616D01*
X28150Y25184D01*
X688550Y393484D02*
X688482Y393056D01*
X688349Y392644D01*
X688152Y392259D01*
X687898Y391909D01*
X687592Y391602D01*
X687241Y391348D01*
X686856Y391151D01*
X686444Y391018D01*
X686016Y390950D01*
X685584Y390950D01*
X685156Y391018D01*
X684744Y391151D01*
X684359Y391348D01*
X684009Y391602D01*
X683702Y391909D01*
X683448Y392259D01*
X683251Y392644D01*
X683118Y393056D01*
X683050Y393484D01*
X683050Y393916D01*
X683118Y394344D01*
X683251Y394756D01*
X683448Y395141D01*
X683702Y395492D01*
X684009Y395798D01*
X684359Y396052D01*
X684744Y396249D01*
X685156Y396382D01*
X685584Y396450D01*
X686016Y396450D01*
X686444Y396382D01*
X686856Y396249D01*
X687241Y396052D01*
X687592Y395798D01*
X687898Y395492D01*
X688152Y395141D01*
X688349Y394756D01*
X688482Y394344D01*
X688550Y393916D01*
X688550Y393484D01*
X28150Y393484D02*
X28082Y393056D01*
X27949Y392644D01*
X27752Y392259D01*
X27498Y391909D01*
X27192Y391602D01*
X26841Y391348D01*
X26456Y391151D01*
X26044Y391018D01*
X25616Y390950D01*
X25184Y390950D01*
X24756Y391018D01*
X24344Y391151D01*
X23959Y391348D01*
X23609Y391602D01*
X23302Y391909D01*
X23048Y392259D01*
X22851Y392644D01*
X22718Y393056D01*
X22650Y393484D01*
X22650Y393916D01*
X22718Y394344D01*
X22851Y394756D01*
X23048Y395141D01*
X23302Y395492D01*
X23609Y395798D01*
X23959Y396052D01*
X24344Y396249D01*
X24756Y396382D01*
X25184Y396450D01*
X25616Y396450D01*
X26044Y396382D01*
X26456Y396249D01*
X26841Y396052D01*
X27192Y395798D01*
X27498Y395492D01*
X27752Y395141D01*
X27949Y394756D01*
X28082Y394344D01*
X28150Y393916D01*
X28150Y393484D01*
M02*
