G04 EAGLE Gerber RS-274X export*
G75*
%MOMM*%
%FSLAX34Y34*%
%LPD*%
%INSilkscreen Top*%
%IPPOS*%
%AMOC8*
5,1,8,0,0,1.08239X$1,22.5*%
G01*
%ADD10C,0.152400*%
%ADD11C,0.203200*%
%ADD12C,0.127000*%
%ADD13C,0.101600*%
%ADD14C,0.254000*%


D10*
X43155Y372872D02*
X43155Y389128D01*
X48574Y380097D01*
X53993Y389128D01*
X53993Y372872D01*
X61635Y375581D02*
X61635Y383709D01*
X61635Y375581D02*
X61637Y375480D01*
X61643Y375379D01*
X61652Y375278D01*
X61665Y375177D01*
X61682Y375077D01*
X61703Y374978D01*
X61727Y374880D01*
X61755Y374783D01*
X61787Y374686D01*
X61822Y374591D01*
X61861Y374498D01*
X61903Y374406D01*
X61949Y374315D01*
X61998Y374227D01*
X62050Y374140D01*
X62106Y374055D01*
X62164Y373972D01*
X62226Y373892D01*
X62291Y373814D01*
X62358Y373738D01*
X62428Y373665D01*
X62501Y373595D01*
X62577Y373528D01*
X62655Y373463D01*
X62735Y373401D01*
X62818Y373343D01*
X62903Y373287D01*
X62990Y373235D01*
X63078Y373186D01*
X63169Y373140D01*
X63261Y373098D01*
X63354Y373059D01*
X63449Y373024D01*
X63546Y372992D01*
X63643Y372964D01*
X63741Y372940D01*
X63840Y372919D01*
X63940Y372902D01*
X64041Y372889D01*
X64142Y372880D01*
X64243Y372874D01*
X64344Y372872D01*
X68860Y372872D01*
X68860Y383709D01*
X77058Y379194D02*
X81573Y377388D01*
X77057Y379194D02*
X76969Y379231D01*
X76883Y379272D01*
X76798Y379316D01*
X76715Y379364D01*
X76635Y379415D01*
X76556Y379469D01*
X76480Y379527D01*
X76406Y379587D01*
X76334Y379651D01*
X76266Y379717D01*
X76200Y379787D01*
X76137Y379858D01*
X76076Y379933D01*
X76019Y380009D01*
X75966Y380088D01*
X75915Y380169D01*
X75868Y380252D01*
X75824Y380337D01*
X75784Y380424D01*
X75747Y380512D01*
X75714Y380602D01*
X75684Y380693D01*
X75659Y380785D01*
X75637Y380878D01*
X75619Y380972D01*
X75604Y381066D01*
X75594Y381161D01*
X75588Y381257D01*
X75585Y381352D01*
X75586Y381448D01*
X75592Y381543D01*
X75601Y381639D01*
X75614Y381733D01*
X75630Y381827D01*
X75651Y381921D01*
X75676Y382013D01*
X75704Y382104D01*
X75736Y382194D01*
X75771Y382283D01*
X75810Y382370D01*
X75853Y382456D01*
X75899Y382540D01*
X75949Y382621D01*
X76001Y382701D01*
X76057Y382779D01*
X76117Y382854D01*
X76179Y382926D01*
X76244Y382996D01*
X76312Y383064D01*
X76382Y383128D01*
X76455Y383190D01*
X76531Y383248D01*
X76609Y383304D01*
X76689Y383356D01*
X76771Y383405D01*
X76855Y383450D01*
X76941Y383492D01*
X77028Y383531D01*
X77117Y383566D01*
X77208Y383597D01*
X77299Y383624D01*
X77392Y383648D01*
X77485Y383668D01*
X77579Y383684D01*
X77674Y383696D01*
X77769Y383705D01*
X77865Y383709D01*
X77960Y383710D01*
X78207Y383703D01*
X78453Y383691D01*
X78699Y383673D01*
X78945Y383648D01*
X79189Y383618D01*
X79433Y383582D01*
X79676Y383541D01*
X79918Y383493D01*
X80159Y383439D01*
X80398Y383380D01*
X80636Y383315D01*
X80872Y383244D01*
X81107Y383168D01*
X81340Y383086D01*
X81570Y382998D01*
X81798Y382905D01*
X82025Y382807D01*
X81573Y377387D02*
X81661Y377350D01*
X81747Y377309D01*
X81832Y377265D01*
X81915Y377217D01*
X81995Y377166D01*
X82074Y377112D01*
X82150Y377054D01*
X82224Y376994D01*
X82296Y376930D01*
X82364Y376864D01*
X82430Y376794D01*
X82493Y376723D01*
X82554Y376648D01*
X82611Y376572D01*
X82664Y376493D01*
X82715Y376412D01*
X82762Y376329D01*
X82806Y376244D01*
X82846Y376157D01*
X82883Y376069D01*
X82916Y375979D01*
X82946Y375888D01*
X82971Y375796D01*
X82993Y375703D01*
X83011Y375609D01*
X83026Y375515D01*
X83036Y375420D01*
X83042Y375324D01*
X83045Y375229D01*
X83044Y375133D01*
X83038Y375038D01*
X83029Y374942D01*
X83016Y374848D01*
X83000Y374754D01*
X82979Y374660D01*
X82954Y374568D01*
X82926Y374477D01*
X82894Y374387D01*
X82859Y374298D01*
X82820Y374211D01*
X82777Y374125D01*
X82731Y374041D01*
X82681Y373960D01*
X82629Y373880D01*
X82573Y373802D01*
X82513Y373727D01*
X82451Y373655D01*
X82386Y373585D01*
X82318Y373517D01*
X82248Y373453D01*
X82175Y373391D01*
X82099Y373333D01*
X82021Y373277D01*
X81941Y373225D01*
X81859Y373176D01*
X81775Y373131D01*
X81689Y373089D01*
X81602Y373050D01*
X81513Y373015D01*
X81422Y372984D01*
X81331Y372957D01*
X81238Y372933D01*
X81145Y372913D01*
X81051Y372897D01*
X80956Y372885D01*
X80861Y372876D01*
X80765Y372872D01*
X80670Y372871D01*
X80670Y372872D02*
X80308Y372881D01*
X79946Y372899D01*
X79585Y372926D01*
X79225Y372961D01*
X78865Y373004D01*
X78506Y373056D01*
X78149Y373117D01*
X77794Y373186D01*
X77440Y373263D01*
X77088Y373349D01*
X76738Y373443D01*
X76390Y373546D01*
X76045Y373656D01*
X75703Y373775D01*
X89215Y372872D02*
X89215Y383709D01*
X88764Y388225D02*
X88764Y389128D01*
X89667Y389128D01*
X89667Y388225D01*
X88764Y388225D01*
X98229Y372872D02*
X101842Y372872D01*
X98229Y372872D02*
X98128Y372874D01*
X98027Y372880D01*
X97926Y372889D01*
X97825Y372902D01*
X97725Y372919D01*
X97626Y372940D01*
X97528Y372964D01*
X97431Y372992D01*
X97334Y373024D01*
X97239Y373059D01*
X97146Y373098D01*
X97054Y373140D01*
X96963Y373186D01*
X96875Y373235D01*
X96788Y373287D01*
X96703Y373343D01*
X96620Y373401D01*
X96540Y373463D01*
X96462Y373528D01*
X96386Y373595D01*
X96313Y373665D01*
X96243Y373738D01*
X96176Y373814D01*
X96111Y373892D01*
X96049Y373972D01*
X95991Y374055D01*
X95935Y374140D01*
X95883Y374227D01*
X95834Y374315D01*
X95788Y374406D01*
X95746Y374498D01*
X95707Y374591D01*
X95672Y374686D01*
X95640Y374783D01*
X95612Y374880D01*
X95588Y374978D01*
X95567Y375077D01*
X95550Y375177D01*
X95537Y375278D01*
X95528Y375379D01*
X95522Y375480D01*
X95520Y375581D01*
X95520Y381000D01*
X95522Y381101D01*
X95528Y381202D01*
X95537Y381303D01*
X95550Y381404D01*
X95567Y381504D01*
X95588Y381603D01*
X95612Y381701D01*
X95640Y381798D01*
X95672Y381895D01*
X95707Y381990D01*
X95746Y382083D01*
X95788Y382175D01*
X95834Y382266D01*
X95883Y382355D01*
X95935Y382441D01*
X95991Y382526D01*
X96049Y382609D01*
X96111Y382689D01*
X96176Y382767D01*
X96243Y382843D01*
X96313Y382916D01*
X96386Y382986D01*
X96462Y383053D01*
X96540Y383118D01*
X96620Y383180D01*
X96703Y383238D01*
X96788Y383294D01*
X96875Y383346D01*
X96963Y383395D01*
X97054Y383441D01*
X97146Y383483D01*
X97239Y383522D01*
X97334Y383557D01*
X97431Y383589D01*
X97528Y383617D01*
X97626Y383641D01*
X97725Y383662D01*
X97825Y383679D01*
X97926Y383692D01*
X98027Y383701D01*
X98128Y383707D01*
X98229Y383709D01*
X101842Y383709D01*
X116694Y389128D02*
X116694Y372872D01*
X116694Y379194D02*
X125725Y389128D01*
X120306Y382806D02*
X125725Y372872D01*
X134542Y379194D02*
X138606Y379194D01*
X134542Y379194D02*
X134430Y379192D01*
X134319Y379186D01*
X134208Y379176D01*
X134097Y379163D01*
X133987Y379145D01*
X133878Y379123D01*
X133769Y379098D01*
X133661Y379069D01*
X133555Y379036D01*
X133449Y378999D01*
X133345Y378959D01*
X133243Y378915D01*
X133142Y378867D01*
X133043Y378816D01*
X132945Y378761D01*
X132850Y378703D01*
X132757Y378642D01*
X132666Y378577D01*
X132577Y378509D01*
X132491Y378438D01*
X132408Y378365D01*
X132327Y378288D01*
X132248Y378208D01*
X132173Y378126D01*
X132101Y378041D01*
X132031Y377954D01*
X131965Y377864D01*
X131902Y377772D01*
X131842Y377677D01*
X131786Y377581D01*
X131733Y377483D01*
X131684Y377383D01*
X131638Y377281D01*
X131596Y377178D01*
X131557Y377073D01*
X131522Y376967D01*
X131491Y376860D01*
X131464Y376752D01*
X131440Y376643D01*
X131421Y376533D01*
X131405Y376423D01*
X131393Y376312D01*
X131385Y376200D01*
X131381Y376089D01*
X131381Y375977D01*
X131385Y375866D01*
X131393Y375754D01*
X131405Y375643D01*
X131421Y375533D01*
X131440Y375423D01*
X131464Y375314D01*
X131491Y375206D01*
X131522Y375099D01*
X131557Y374993D01*
X131596Y374888D01*
X131638Y374785D01*
X131684Y374683D01*
X131733Y374583D01*
X131786Y374485D01*
X131842Y374389D01*
X131902Y374294D01*
X131965Y374202D01*
X132031Y374112D01*
X132101Y374025D01*
X132173Y373940D01*
X132248Y373858D01*
X132327Y373778D01*
X132408Y373701D01*
X132491Y373628D01*
X132577Y373557D01*
X132666Y373489D01*
X132757Y373424D01*
X132850Y373363D01*
X132945Y373305D01*
X133043Y373250D01*
X133142Y373199D01*
X133243Y373151D01*
X133345Y373107D01*
X133449Y373067D01*
X133555Y373030D01*
X133661Y372997D01*
X133769Y372968D01*
X133878Y372943D01*
X133987Y372921D01*
X134097Y372903D01*
X134208Y372890D01*
X134319Y372880D01*
X134430Y372874D01*
X134542Y372872D01*
X138606Y372872D01*
X138606Y381000D01*
X138604Y381101D01*
X138598Y381202D01*
X138589Y381303D01*
X138576Y381404D01*
X138559Y381504D01*
X138538Y381603D01*
X138514Y381701D01*
X138486Y381798D01*
X138454Y381895D01*
X138419Y381990D01*
X138380Y382083D01*
X138338Y382175D01*
X138292Y382266D01*
X138243Y382355D01*
X138191Y382441D01*
X138135Y382526D01*
X138077Y382609D01*
X138015Y382689D01*
X137950Y382767D01*
X137883Y382843D01*
X137813Y382916D01*
X137740Y382986D01*
X137664Y383053D01*
X137586Y383118D01*
X137506Y383180D01*
X137423Y383238D01*
X137338Y383294D01*
X137252Y383346D01*
X137163Y383395D01*
X137072Y383441D01*
X136980Y383483D01*
X136887Y383522D01*
X136792Y383557D01*
X136695Y383589D01*
X136598Y383617D01*
X136500Y383641D01*
X136401Y383662D01*
X136301Y383679D01*
X136200Y383692D01*
X136099Y383701D01*
X135998Y383707D01*
X135897Y383709D01*
X132284Y383709D01*
X145759Y389128D02*
X145759Y375581D01*
X145760Y375581D02*
X145762Y375480D01*
X145768Y375379D01*
X145777Y375278D01*
X145790Y375177D01*
X145807Y375077D01*
X145828Y374978D01*
X145852Y374880D01*
X145880Y374783D01*
X145912Y374686D01*
X145947Y374591D01*
X145986Y374498D01*
X146028Y374406D01*
X146074Y374315D01*
X146123Y374227D01*
X146175Y374140D01*
X146231Y374055D01*
X146289Y373972D01*
X146351Y373892D01*
X146416Y373814D01*
X146483Y373738D01*
X146553Y373665D01*
X146626Y373595D01*
X146702Y373528D01*
X146780Y373463D01*
X146860Y373401D01*
X146943Y373343D01*
X147028Y373287D01*
X147115Y373235D01*
X147203Y373186D01*
X147294Y373140D01*
X147386Y373098D01*
X147479Y373059D01*
X147574Y373024D01*
X147671Y372992D01*
X147768Y372964D01*
X147866Y372940D01*
X147965Y372919D01*
X148065Y372902D01*
X148166Y372889D01*
X148267Y372880D01*
X148368Y372874D01*
X148469Y372872D01*
X156568Y372872D02*
X161084Y372872D01*
X156568Y372872D02*
X156467Y372874D01*
X156366Y372880D01*
X156265Y372889D01*
X156164Y372902D01*
X156064Y372919D01*
X155965Y372940D01*
X155867Y372964D01*
X155770Y372992D01*
X155673Y373024D01*
X155578Y373059D01*
X155485Y373098D01*
X155393Y373140D01*
X155302Y373186D01*
X155214Y373235D01*
X155127Y373287D01*
X155042Y373343D01*
X154959Y373401D01*
X154879Y373463D01*
X154801Y373528D01*
X154725Y373595D01*
X154652Y373665D01*
X154582Y373738D01*
X154515Y373814D01*
X154450Y373892D01*
X154388Y373972D01*
X154330Y374055D01*
X154274Y374140D01*
X154222Y374227D01*
X154173Y374315D01*
X154127Y374406D01*
X154085Y374498D01*
X154046Y374591D01*
X154011Y374686D01*
X153979Y374783D01*
X153951Y374880D01*
X153927Y374978D01*
X153906Y375077D01*
X153889Y375177D01*
X153876Y375278D01*
X153867Y375379D01*
X153861Y375480D01*
X153859Y375581D01*
X153859Y380097D01*
X153861Y380216D01*
X153867Y380336D01*
X153877Y380455D01*
X153891Y380573D01*
X153908Y380692D01*
X153930Y380809D01*
X153955Y380926D01*
X153985Y381041D01*
X154018Y381156D01*
X154055Y381270D01*
X154095Y381382D01*
X154140Y381493D01*
X154188Y381602D01*
X154239Y381710D01*
X154294Y381816D01*
X154353Y381920D01*
X154415Y382022D01*
X154480Y382122D01*
X154549Y382220D01*
X154621Y382316D01*
X154696Y382409D01*
X154773Y382499D01*
X154854Y382587D01*
X154938Y382672D01*
X155025Y382754D01*
X155114Y382834D01*
X155206Y382910D01*
X155300Y382984D01*
X155397Y383054D01*
X155495Y383121D01*
X155596Y383185D01*
X155700Y383245D01*
X155805Y383302D01*
X155912Y383355D01*
X156020Y383405D01*
X156130Y383451D01*
X156242Y383493D01*
X156355Y383532D01*
X156469Y383567D01*
X156584Y383598D01*
X156701Y383626D01*
X156818Y383649D01*
X156935Y383669D01*
X157054Y383685D01*
X157173Y383697D01*
X157292Y383705D01*
X157411Y383709D01*
X157531Y383709D01*
X157650Y383705D01*
X157769Y383697D01*
X157888Y383685D01*
X158007Y383669D01*
X158124Y383649D01*
X158241Y383626D01*
X158358Y383598D01*
X158473Y383567D01*
X158587Y383532D01*
X158700Y383493D01*
X158812Y383451D01*
X158922Y383405D01*
X159030Y383355D01*
X159137Y383302D01*
X159242Y383245D01*
X159346Y383185D01*
X159447Y383121D01*
X159545Y383054D01*
X159642Y382984D01*
X159736Y382910D01*
X159828Y382834D01*
X159917Y382754D01*
X160004Y382672D01*
X160088Y382587D01*
X160169Y382499D01*
X160246Y382409D01*
X160321Y382316D01*
X160393Y382220D01*
X160462Y382122D01*
X160527Y382022D01*
X160589Y381920D01*
X160648Y381816D01*
X160703Y381710D01*
X160754Y381602D01*
X160802Y381493D01*
X160847Y381382D01*
X160887Y381270D01*
X160924Y381156D01*
X160957Y381041D01*
X160987Y380926D01*
X161012Y380809D01*
X161034Y380692D01*
X161051Y380573D01*
X161065Y380455D01*
X161075Y380336D01*
X161081Y380216D01*
X161083Y380097D01*
X161084Y380097D02*
X161084Y378291D01*
X153859Y378291D01*
X167371Y383709D02*
X167371Y372872D01*
X166920Y388225D02*
X166920Y389128D01*
X167823Y389128D01*
X167823Y388225D01*
X166920Y388225D01*
X180810Y389128D02*
X180810Y372872D01*
X176295Y372872D01*
X176194Y372874D01*
X176093Y372880D01*
X175992Y372889D01*
X175891Y372902D01*
X175791Y372919D01*
X175692Y372940D01*
X175594Y372964D01*
X175497Y372992D01*
X175400Y373024D01*
X175305Y373059D01*
X175212Y373098D01*
X175120Y373140D01*
X175029Y373186D01*
X174941Y373235D01*
X174854Y373287D01*
X174769Y373343D01*
X174686Y373401D01*
X174606Y373463D01*
X174528Y373528D01*
X174452Y373595D01*
X174379Y373665D01*
X174309Y373738D01*
X174242Y373814D01*
X174177Y373892D01*
X174115Y373972D01*
X174057Y374055D01*
X174001Y374140D01*
X173949Y374227D01*
X173900Y374315D01*
X173854Y374406D01*
X173812Y374498D01*
X173773Y374591D01*
X173738Y374686D01*
X173706Y374783D01*
X173678Y374880D01*
X173654Y374978D01*
X173633Y375077D01*
X173616Y375177D01*
X173603Y375278D01*
X173594Y375379D01*
X173588Y375480D01*
X173586Y375581D01*
X173585Y375581D02*
X173585Y381000D01*
X173586Y381000D02*
X173588Y381101D01*
X173594Y381202D01*
X173603Y381303D01*
X173616Y381404D01*
X173633Y381504D01*
X173654Y381603D01*
X173678Y381701D01*
X173706Y381798D01*
X173738Y381895D01*
X173773Y381990D01*
X173812Y382083D01*
X173854Y382175D01*
X173900Y382266D01*
X173949Y382355D01*
X174001Y382441D01*
X174057Y382526D01*
X174115Y382609D01*
X174177Y382689D01*
X174242Y382767D01*
X174309Y382843D01*
X174379Y382916D01*
X174452Y382986D01*
X174528Y383053D01*
X174606Y383118D01*
X174686Y383180D01*
X174769Y383238D01*
X174854Y383294D01*
X174941Y383346D01*
X175029Y383395D01*
X175120Y383441D01*
X175212Y383483D01*
X175305Y383522D01*
X175400Y383557D01*
X175497Y383589D01*
X175594Y383617D01*
X175692Y383641D01*
X175791Y383662D01*
X175891Y383679D01*
X175992Y383692D01*
X176093Y383701D01*
X176194Y383707D01*
X176295Y383709D01*
X180810Y383709D01*
X187727Y380097D02*
X187727Y376484D01*
X187727Y380097D02*
X187729Y380216D01*
X187735Y380336D01*
X187745Y380455D01*
X187759Y380573D01*
X187776Y380692D01*
X187798Y380809D01*
X187823Y380926D01*
X187853Y381041D01*
X187886Y381156D01*
X187923Y381270D01*
X187963Y381382D01*
X188008Y381493D01*
X188056Y381602D01*
X188107Y381710D01*
X188162Y381816D01*
X188221Y381920D01*
X188283Y382022D01*
X188348Y382122D01*
X188417Y382220D01*
X188489Y382316D01*
X188564Y382409D01*
X188641Y382499D01*
X188722Y382587D01*
X188806Y382672D01*
X188893Y382754D01*
X188982Y382834D01*
X189074Y382910D01*
X189168Y382984D01*
X189265Y383054D01*
X189363Y383121D01*
X189464Y383185D01*
X189568Y383245D01*
X189673Y383302D01*
X189780Y383355D01*
X189888Y383405D01*
X189998Y383451D01*
X190110Y383493D01*
X190223Y383532D01*
X190337Y383567D01*
X190452Y383598D01*
X190569Y383626D01*
X190686Y383649D01*
X190803Y383669D01*
X190922Y383685D01*
X191041Y383697D01*
X191160Y383705D01*
X191279Y383709D01*
X191399Y383709D01*
X191518Y383705D01*
X191637Y383697D01*
X191756Y383685D01*
X191875Y383669D01*
X191992Y383649D01*
X192109Y383626D01*
X192226Y383598D01*
X192341Y383567D01*
X192455Y383532D01*
X192568Y383493D01*
X192680Y383451D01*
X192790Y383405D01*
X192898Y383355D01*
X193005Y383302D01*
X193110Y383245D01*
X193214Y383185D01*
X193315Y383121D01*
X193413Y383054D01*
X193510Y382984D01*
X193604Y382910D01*
X193696Y382834D01*
X193785Y382754D01*
X193872Y382672D01*
X193956Y382587D01*
X194037Y382499D01*
X194114Y382409D01*
X194189Y382316D01*
X194261Y382220D01*
X194330Y382122D01*
X194395Y382022D01*
X194457Y381920D01*
X194516Y381816D01*
X194571Y381710D01*
X194622Y381602D01*
X194670Y381493D01*
X194715Y381382D01*
X194755Y381270D01*
X194792Y381156D01*
X194825Y381041D01*
X194855Y380926D01*
X194880Y380809D01*
X194902Y380692D01*
X194919Y380573D01*
X194933Y380455D01*
X194943Y380336D01*
X194949Y380216D01*
X194951Y380097D01*
X194952Y380097D02*
X194952Y376484D01*
X194951Y376484D02*
X194949Y376365D01*
X194943Y376245D01*
X194933Y376126D01*
X194919Y376008D01*
X194902Y375889D01*
X194880Y375772D01*
X194855Y375655D01*
X194825Y375540D01*
X194792Y375425D01*
X194755Y375311D01*
X194715Y375199D01*
X194670Y375088D01*
X194622Y374979D01*
X194571Y374871D01*
X194516Y374765D01*
X194457Y374661D01*
X194395Y374559D01*
X194330Y374459D01*
X194261Y374361D01*
X194189Y374265D01*
X194114Y374172D01*
X194037Y374082D01*
X193956Y373994D01*
X193872Y373909D01*
X193785Y373827D01*
X193696Y373747D01*
X193604Y373671D01*
X193510Y373597D01*
X193413Y373527D01*
X193315Y373460D01*
X193214Y373396D01*
X193110Y373336D01*
X193005Y373279D01*
X192898Y373226D01*
X192790Y373176D01*
X192680Y373130D01*
X192568Y373088D01*
X192455Y373049D01*
X192341Y373014D01*
X192226Y372983D01*
X192109Y372955D01*
X191992Y372932D01*
X191875Y372912D01*
X191756Y372896D01*
X191637Y372884D01*
X191518Y372876D01*
X191399Y372872D01*
X191279Y372872D01*
X191160Y372876D01*
X191041Y372884D01*
X190922Y372896D01*
X190803Y372912D01*
X190686Y372932D01*
X190569Y372955D01*
X190452Y372983D01*
X190337Y373014D01*
X190223Y373049D01*
X190110Y373088D01*
X189998Y373130D01*
X189888Y373176D01*
X189780Y373226D01*
X189673Y373279D01*
X189568Y373336D01*
X189464Y373396D01*
X189363Y373460D01*
X189265Y373527D01*
X189168Y373597D01*
X189074Y373671D01*
X188982Y373747D01*
X188893Y373827D01*
X188806Y373909D01*
X188722Y373994D01*
X188641Y374082D01*
X188564Y374172D01*
X188489Y374265D01*
X188417Y374361D01*
X188348Y374459D01*
X188283Y374559D01*
X188221Y374661D01*
X188162Y374765D01*
X188107Y374871D01*
X188056Y374979D01*
X188008Y375088D01*
X187963Y375199D01*
X187923Y375311D01*
X187886Y375425D01*
X187853Y375540D01*
X187823Y375655D01*
X187798Y375772D01*
X187776Y375889D01*
X187759Y376008D01*
X187745Y376126D01*
X187735Y376245D01*
X187729Y376365D01*
X187727Y376484D01*
X202628Y379194D02*
X207144Y377388D01*
X202628Y379194D02*
X202540Y379231D01*
X202454Y379272D01*
X202369Y379316D01*
X202286Y379364D01*
X202206Y379415D01*
X202127Y379469D01*
X202051Y379527D01*
X201977Y379587D01*
X201905Y379651D01*
X201837Y379717D01*
X201771Y379787D01*
X201708Y379858D01*
X201647Y379933D01*
X201590Y380009D01*
X201537Y380088D01*
X201486Y380169D01*
X201439Y380252D01*
X201395Y380337D01*
X201355Y380424D01*
X201318Y380512D01*
X201285Y380602D01*
X201255Y380693D01*
X201230Y380785D01*
X201208Y380878D01*
X201190Y380972D01*
X201175Y381066D01*
X201165Y381161D01*
X201159Y381257D01*
X201156Y381352D01*
X201157Y381448D01*
X201163Y381543D01*
X201172Y381639D01*
X201185Y381733D01*
X201201Y381827D01*
X201222Y381921D01*
X201247Y382013D01*
X201275Y382104D01*
X201307Y382194D01*
X201342Y382283D01*
X201381Y382370D01*
X201424Y382456D01*
X201470Y382540D01*
X201520Y382621D01*
X201572Y382701D01*
X201628Y382779D01*
X201688Y382854D01*
X201750Y382926D01*
X201815Y382996D01*
X201883Y383064D01*
X201953Y383128D01*
X202026Y383190D01*
X202102Y383248D01*
X202180Y383304D01*
X202260Y383356D01*
X202342Y383405D01*
X202426Y383450D01*
X202512Y383492D01*
X202599Y383531D01*
X202688Y383566D01*
X202779Y383597D01*
X202870Y383624D01*
X202963Y383648D01*
X203056Y383668D01*
X203150Y383684D01*
X203245Y383696D01*
X203340Y383705D01*
X203436Y383709D01*
X203531Y383710D01*
X203778Y383703D01*
X204024Y383691D01*
X204270Y383673D01*
X204516Y383648D01*
X204760Y383618D01*
X205004Y383582D01*
X205247Y383541D01*
X205489Y383493D01*
X205730Y383439D01*
X205969Y383380D01*
X206207Y383315D01*
X206443Y383244D01*
X206678Y383168D01*
X206911Y383086D01*
X207141Y382998D01*
X207369Y382905D01*
X207596Y382807D01*
X207144Y377387D02*
X207232Y377350D01*
X207318Y377309D01*
X207403Y377265D01*
X207486Y377217D01*
X207566Y377166D01*
X207645Y377112D01*
X207721Y377054D01*
X207795Y376994D01*
X207867Y376930D01*
X207935Y376864D01*
X208001Y376794D01*
X208064Y376723D01*
X208125Y376648D01*
X208182Y376572D01*
X208235Y376493D01*
X208286Y376412D01*
X208333Y376329D01*
X208377Y376244D01*
X208417Y376157D01*
X208454Y376069D01*
X208487Y375979D01*
X208517Y375888D01*
X208542Y375796D01*
X208564Y375703D01*
X208582Y375609D01*
X208597Y375515D01*
X208607Y375420D01*
X208613Y375324D01*
X208616Y375229D01*
X208615Y375133D01*
X208609Y375038D01*
X208600Y374942D01*
X208587Y374848D01*
X208571Y374754D01*
X208550Y374660D01*
X208525Y374568D01*
X208497Y374477D01*
X208465Y374387D01*
X208430Y374298D01*
X208391Y374211D01*
X208348Y374125D01*
X208302Y374041D01*
X208252Y373960D01*
X208200Y373880D01*
X208144Y373802D01*
X208084Y373727D01*
X208022Y373655D01*
X207957Y373585D01*
X207889Y373517D01*
X207819Y373453D01*
X207746Y373391D01*
X207670Y373333D01*
X207592Y373277D01*
X207512Y373225D01*
X207430Y373176D01*
X207346Y373131D01*
X207260Y373089D01*
X207173Y373050D01*
X207084Y373015D01*
X206993Y372984D01*
X206902Y372957D01*
X206809Y372933D01*
X206716Y372913D01*
X206622Y372897D01*
X206527Y372885D01*
X206432Y372876D01*
X206336Y372872D01*
X206241Y372871D01*
X206241Y372872D02*
X205879Y372881D01*
X205517Y372899D01*
X205156Y372926D01*
X204796Y372961D01*
X204436Y373004D01*
X204077Y373056D01*
X203720Y373117D01*
X203365Y373186D01*
X203011Y373263D01*
X202659Y373349D01*
X202309Y373443D01*
X201961Y373546D01*
X201616Y373656D01*
X201274Y373775D01*
X217548Y372872D02*
X221160Y372872D01*
X217548Y372872D02*
X217447Y372874D01*
X217346Y372880D01*
X217245Y372889D01*
X217144Y372902D01*
X217044Y372919D01*
X216945Y372940D01*
X216847Y372964D01*
X216750Y372992D01*
X216653Y373024D01*
X216558Y373059D01*
X216465Y373098D01*
X216373Y373140D01*
X216282Y373186D01*
X216194Y373235D01*
X216107Y373287D01*
X216022Y373343D01*
X215939Y373401D01*
X215859Y373463D01*
X215781Y373528D01*
X215705Y373595D01*
X215632Y373665D01*
X215562Y373738D01*
X215495Y373814D01*
X215430Y373892D01*
X215368Y373972D01*
X215310Y374055D01*
X215254Y374140D01*
X215202Y374227D01*
X215153Y374315D01*
X215107Y374406D01*
X215065Y374498D01*
X215026Y374591D01*
X214991Y374686D01*
X214959Y374783D01*
X214931Y374880D01*
X214907Y374978D01*
X214886Y375077D01*
X214869Y375177D01*
X214856Y375278D01*
X214847Y375379D01*
X214841Y375480D01*
X214839Y375581D01*
X214838Y375581D02*
X214838Y381000D01*
X214839Y381000D02*
X214841Y381101D01*
X214847Y381202D01*
X214856Y381303D01*
X214869Y381404D01*
X214886Y381504D01*
X214907Y381603D01*
X214931Y381701D01*
X214959Y381798D01*
X214991Y381895D01*
X215026Y381990D01*
X215065Y382083D01*
X215107Y382175D01*
X215153Y382266D01*
X215202Y382355D01*
X215254Y382441D01*
X215310Y382526D01*
X215368Y382609D01*
X215430Y382689D01*
X215495Y382767D01*
X215562Y382843D01*
X215632Y382916D01*
X215705Y382986D01*
X215781Y383053D01*
X215859Y383118D01*
X215939Y383180D01*
X216022Y383238D01*
X216107Y383294D01*
X216194Y383346D01*
X216282Y383395D01*
X216373Y383441D01*
X216465Y383483D01*
X216558Y383522D01*
X216653Y383557D01*
X216750Y383589D01*
X216847Y383617D01*
X216945Y383641D01*
X217044Y383662D01*
X217144Y383679D01*
X217245Y383692D01*
X217346Y383701D01*
X217447Y383707D01*
X217548Y383709D01*
X221160Y383709D01*
X226805Y380097D02*
X226805Y376484D01*
X226805Y380097D02*
X226807Y380216D01*
X226813Y380336D01*
X226823Y380455D01*
X226837Y380573D01*
X226854Y380692D01*
X226876Y380809D01*
X226901Y380926D01*
X226931Y381041D01*
X226964Y381156D01*
X227001Y381270D01*
X227041Y381382D01*
X227086Y381493D01*
X227134Y381602D01*
X227185Y381710D01*
X227240Y381816D01*
X227299Y381920D01*
X227361Y382022D01*
X227426Y382122D01*
X227495Y382220D01*
X227567Y382316D01*
X227642Y382409D01*
X227719Y382499D01*
X227800Y382587D01*
X227884Y382672D01*
X227971Y382754D01*
X228060Y382834D01*
X228152Y382910D01*
X228246Y382984D01*
X228343Y383054D01*
X228441Y383121D01*
X228542Y383185D01*
X228646Y383245D01*
X228751Y383302D01*
X228858Y383355D01*
X228966Y383405D01*
X229076Y383451D01*
X229188Y383493D01*
X229301Y383532D01*
X229415Y383567D01*
X229530Y383598D01*
X229647Y383626D01*
X229764Y383649D01*
X229881Y383669D01*
X230000Y383685D01*
X230119Y383697D01*
X230238Y383705D01*
X230357Y383709D01*
X230477Y383709D01*
X230596Y383705D01*
X230715Y383697D01*
X230834Y383685D01*
X230953Y383669D01*
X231070Y383649D01*
X231187Y383626D01*
X231304Y383598D01*
X231419Y383567D01*
X231533Y383532D01*
X231646Y383493D01*
X231758Y383451D01*
X231868Y383405D01*
X231976Y383355D01*
X232083Y383302D01*
X232188Y383245D01*
X232292Y383185D01*
X232393Y383121D01*
X232491Y383054D01*
X232588Y382984D01*
X232682Y382910D01*
X232774Y382834D01*
X232863Y382754D01*
X232950Y382672D01*
X233034Y382587D01*
X233115Y382499D01*
X233192Y382409D01*
X233267Y382316D01*
X233339Y382220D01*
X233408Y382122D01*
X233473Y382022D01*
X233535Y381920D01*
X233594Y381816D01*
X233649Y381710D01*
X233700Y381602D01*
X233748Y381493D01*
X233793Y381382D01*
X233833Y381270D01*
X233870Y381156D01*
X233903Y381041D01*
X233933Y380926D01*
X233958Y380809D01*
X233980Y380692D01*
X233997Y380573D01*
X234011Y380455D01*
X234021Y380336D01*
X234027Y380216D01*
X234029Y380097D01*
X234030Y380097D02*
X234030Y376484D01*
X234029Y376484D02*
X234027Y376365D01*
X234021Y376245D01*
X234011Y376126D01*
X233997Y376008D01*
X233980Y375889D01*
X233958Y375772D01*
X233933Y375655D01*
X233903Y375540D01*
X233870Y375425D01*
X233833Y375311D01*
X233793Y375199D01*
X233748Y375088D01*
X233700Y374979D01*
X233649Y374871D01*
X233594Y374765D01*
X233535Y374661D01*
X233473Y374559D01*
X233408Y374459D01*
X233339Y374361D01*
X233267Y374265D01*
X233192Y374172D01*
X233115Y374082D01*
X233034Y373994D01*
X232950Y373909D01*
X232863Y373827D01*
X232774Y373747D01*
X232682Y373671D01*
X232588Y373597D01*
X232491Y373527D01*
X232393Y373460D01*
X232292Y373396D01*
X232188Y373336D01*
X232083Y373279D01*
X231976Y373226D01*
X231868Y373176D01*
X231758Y373130D01*
X231646Y373088D01*
X231533Y373049D01*
X231419Y373014D01*
X231304Y372983D01*
X231187Y372955D01*
X231070Y372932D01*
X230953Y372912D01*
X230834Y372896D01*
X230715Y372884D01*
X230596Y372876D01*
X230477Y372872D01*
X230357Y372872D01*
X230238Y372876D01*
X230119Y372884D01*
X230000Y372896D01*
X229881Y372912D01*
X229764Y372932D01*
X229647Y372955D01*
X229530Y372983D01*
X229415Y373014D01*
X229301Y373049D01*
X229188Y373088D01*
X229076Y373130D01*
X228966Y373176D01*
X228858Y373226D01*
X228751Y373279D01*
X228646Y373336D01*
X228542Y373396D01*
X228441Y373460D01*
X228343Y373527D01*
X228246Y373597D01*
X228152Y373671D01*
X228060Y373747D01*
X227971Y373827D01*
X227884Y373909D01*
X227800Y373994D01*
X227719Y374082D01*
X227642Y374172D01*
X227567Y374265D01*
X227495Y374361D01*
X227426Y374459D01*
X227361Y374559D01*
X227299Y374661D01*
X227240Y374765D01*
X227185Y374871D01*
X227134Y374979D01*
X227086Y375088D01*
X227041Y375199D01*
X227001Y375311D01*
X226964Y375425D01*
X226931Y375540D01*
X226901Y375655D01*
X226876Y375772D01*
X226854Y375889D01*
X226837Y376008D01*
X226823Y376126D01*
X226813Y376245D01*
X226807Y376365D01*
X226805Y376484D01*
X240946Y383709D02*
X240946Y367453D01*
X240946Y383709D02*
X245462Y383709D01*
X245566Y383707D01*
X245669Y383701D01*
X245773Y383691D01*
X245876Y383677D01*
X245978Y383659D01*
X246079Y383638D01*
X246180Y383612D01*
X246279Y383583D01*
X246378Y383550D01*
X246475Y383513D01*
X246570Y383472D01*
X246664Y383428D01*
X246756Y383380D01*
X246846Y383329D01*
X246935Y383274D01*
X247021Y383216D01*
X247104Y383154D01*
X247186Y383090D01*
X247264Y383022D01*
X247340Y382952D01*
X247414Y382879D01*
X247484Y382802D01*
X247552Y382724D01*
X247616Y382642D01*
X247678Y382559D01*
X247736Y382473D01*
X247791Y382384D01*
X247842Y382294D01*
X247890Y382202D01*
X247934Y382108D01*
X247975Y382013D01*
X248012Y381916D01*
X248045Y381817D01*
X248074Y381718D01*
X248100Y381617D01*
X248121Y381516D01*
X248139Y381414D01*
X248153Y381311D01*
X248163Y381207D01*
X248169Y381104D01*
X248171Y381000D01*
X248171Y375581D01*
X248169Y375480D01*
X248163Y375379D01*
X248154Y375278D01*
X248141Y375177D01*
X248124Y375077D01*
X248103Y374978D01*
X248079Y374880D01*
X248051Y374783D01*
X248019Y374686D01*
X247984Y374591D01*
X247945Y374498D01*
X247903Y374406D01*
X247857Y374315D01*
X247808Y374227D01*
X247756Y374140D01*
X247700Y374055D01*
X247642Y373972D01*
X247580Y373892D01*
X247515Y373814D01*
X247448Y373738D01*
X247378Y373665D01*
X247305Y373595D01*
X247229Y373528D01*
X247151Y373463D01*
X247071Y373401D01*
X246988Y373343D01*
X246903Y373287D01*
X246817Y373235D01*
X246728Y373186D01*
X246637Y373140D01*
X246545Y373098D01*
X246452Y373059D01*
X246357Y373024D01*
X246260Y372992D01*
X246163Y372964D01*
X246065Y372940D01*
X245966Y372919D01*
X245866Y372902D01*
X245765Y372889D01*
X245664Y372880D01*
X245563Y372874D01*
X245462Y372872D01*
X240946Y372872D01*
X257129Y372872D02*
X261645Y372872D01*
X257129Y372872D02*
X257028Y372874D01*
X256927Y372880D01*
X256826Y372889D01*
X256725Y372902D01*
X256625Y372919D01*
X256526Y372940D01*
X256428Y372964D01*
X256331Y372992D01*
X256234Y373024D01*
X256139Y373059D01*
X256046Y373098D01*
X255954Y373140D01*
X255863Y373186D01*
X255775Y373235D01*
X255688Y373287D01*
X255603Y373343D01*
X255520Y373401D01*
X255440Y373463D01*
X255362Y373528D01*
X255286Y373595D01*
X255213Y373665D01*
X255143Y373738D01*
X255076Y373814D01*
X255011Y373892D01*
X254949Y373972D01*
X254891Y374055D01*
X254835Y374140D01*
X254783Y374227D01*
X254734Y374315D01*
X254688Y374406D01*
X254646Y374498D01*
X254607Y374591D01*
X254572Y374686D01*
X254540Y374783D01*
X254512Y374880D01*
X254488Y374978D01*
X254467Y375077D01*
X254450Y375177D01*
X254437Y375278D01*
X254428Y375379D01*
X254422Y375480D01*
X254420Y375581D01*
X254420Y380097D01*
X254422Y380216D01*
X254428Y380336D01*
X254438Y380455D01*
X254452Y380573D01*
X254469Y380692D01*
X254491Y380809D01*
X254516Y380926D01*
X254546Y381041D01*
X254579Y381156D01*
X254616Y381270D01*
X254656Y381382D01*
X254701Y381493D01*
X254749Y381602D01*
X254800Y381710D01*
X254855Y381816D01*
X254914Y381920D01*
X254976Y382022D01*
X255041Y382122D01*
X255110Y382220D01*
X255182Y382316D01*
X255257Y382409D01*
X255334Y382499D01*
X255415Y382587D01*
X255499Y382672D01*
X255586Y382754D01*
X255675Y382834D01*
X255767Y382910D01*
X255861Y382984D01*
X255958Y383054D01*
X256056Y383121D01*
X256157Y383185D01*
X256261Y383245D01*
X256366Y383302D01*
X256473Y383355D01*
X256581Y383405D01*
X256691Y383451D01*
X256803Y383493D01*
X256916Y383532D01*
X257030Y383567D01*
X257145Y383598D01*
X257262Y383626D01*
X257379Y383649D01*
X257496Y383669D01*
X257615Y383685D01*
X257734Y383697D01*
X257853Y383705D01*
X257972Y383709D01*
X258092Y383709D01*
X258211Y383705D01*
X258330Y383697D01*
X258449Y383685D01*
X258568Y383669D01*
X258685Y383649D01*
X258802Y383626D01*
X258919Y383598D01*
X259034Y383567D01*
X259148Y383532D01*
X259261Y383493D01*
X259373Y383451D01*
X259483Y383405D01*
X259591Y383355D01*
X259698Y383302D01*
X259803Y383245D01*
X259907Y383185D01*
X260008Y383121D01*
X260106Y383054D01*
X260203Y382984D01*
X260297Y382910D01*
X260389Y382834D01*
X260478Y382754D01*
X260565Y382672D01*
X260649Y382587D01*
X260730Y382499D01*
X260807Y382409D01*
X260882Y382316D01*
X260954Y382220D01*
X261023Y382122D01*
X261088Y382022D01*
X261150Y381920D01*
X261209Y381816D01*
X261264Y381710D01*
X261315Y381602D01*
X261363Y381493D01*
X261408Y381382D01*
X261448Y381270D01*
X261485Y381156D01*
X261518Y381041D01*
X261548Y380926D01*
X261573Y380809D01*
X261595Y380692D01*
X261612Y380573D01*
X261626Y380455D01*
X261636Y380336D01*
X261642Y380216D01*
X261644Y380097D01*
X261645Y380097D02*
X261645Y378291D01*
X254420Y378291D01*
X330455Y376484D02*
X330455Y389128D01*
X330455Y376484D02*
X330453Y376366D01*
X330447Y376248D01*
X330438Y376130D01*
X330424Y376013D01*
X330407Y375896D01*
X330386Y375779D01*
X330361Y375664D01*
X330332Y375549D01*
X330299Y375435D01*
X330263Y375323D01*
X330223Y375212D01*
X330180Y375102D01*
X330133Y374993D01*
X330083Y374886D01*
X330028Y374781D01*
X329971Y374678D01*
X329910Y374577D01*
X329846Y374477D01*
X329779Y374380D01*
X329709Y374285D01*
X329635Y374193D01*
X329559Y374102D01*
X329479Y374015D01*
X329397Y373930D01*
X329312Y373848D01*
X329225Y373768D01*
X329134Y373692D01*
X329042Y373618D01*
X328947Y373548D01*
X328850Y373481D01*
X328750Y373417D01*
X328649Y373356D01*
X328546Y373299D01*
X328441Y373244D01*
X328334Y373194D01*
X328225Y373147D01*
X328115Y373104D01*
X328004Y373064D01*
X327892Y373028D01*
X327778Y372995D01*
X327663Y372966D01*
X327548Y372941D01*
X327431Y372920D01*
X327314Y372903D01*
X327197Y372889D01*
X327079Y372880D01*
X326961Y372874D01*
X326843Y372872D01*
X325037Y372872D01*
X340093Y372872D02*
X344608Y372872D01*
X340093Y372872D02*
X339992Y372874D01*
X339891Y372880D01*
X339790Y372889D01*
X339689Y372902D01*
X339589Y372919D01*
X339490Y372940D01*
X339392Y372964D01*
X339295Y372992D01*
X339198Y373024D01*
X339103Y373059D01*
X339010Y373098D01*
X338918Y373140D01*
X338827Y373186D01*
X338739Y373235D01*
X338652Y373287D01*
X338567Y373343D01*
X338484Y373401D01*
X338404Y373463D01*
X338326Y373528D01*
X338250Y373595D01*
X338177Y373665D01*
X338107Y373738D01*
X338040Y373814D01*
X337975Y373892D01*
X337913Y373972D01*
X337855Y374055D01*
X337799Y374140D01*
X337747Y374227D01*
X337698Y374315D01*
X337652Y374406D01*
X337610Y374498D01*
X337571Y374591D01*
X337536Y374686D01*
X337504Y374783D01*
X337476Y374880D01*
X337452Y374978D01*
X337431Y375077D01*
X337414Y375177D01*
X337401Y375278D01*
X337392Y375379D01*
X337386Y375480D01*
X337384Y375581D01*
X337383Y375581D02*
X337383Y380097D01*
X337384Y380097D02*
X337386Y380216D01*
X337392Y380336D01*
X337402Y380455D01*
X337416Y380573D01*
X337433Y380692D01*
X337455Y380809D01*
X337480Y380926D01*
X337510Y381041D01*
X337543Y381156D01*
X337580Y381270D01*
X337620Y381382D01*
X337665Y381493D01*
X337713Y381602D01*
X337764Y381710D01*
X337819Y381816D01*
X337878Y381920D01*
X337940Y382022D01*
X338005Y382122D01*
X338074Y382220D01*
X338146Y382316D01*
X338221Y382409D01*
X338298Y382499D01*
X338379Y382587D01*
X338463Y382672D01*
X338550Y382754D01*
X338639Y382834D01*
X338731Y382910D01*
X338825Y382984D01*
X338922Y383054D01*
X339020Y383121D01*
X339121Y383185D01*
X339225Y383245D01*
X339330Y383302D01*
X339437Y383355D01*
X339545Y383405D01*
X339655Y383451D01*
X339767Y383493D01*
X339880Y383532D01*
X339994Y383567D01*
X340109Y383598D01*
X340226Y383626D01*
X340343Y383649D01*
X340460Y383669D01*
X340579Y383685D01*
X340698Y383697D01*
X340817Y383705D01*
X340936Y383709D01*
X341056Y383709D01*
X341175Y383705D01*
X341294Y383697D01*
X341413Y383685D01*
X341532Y383669D01*
X341649Y383649D01*
X341766Y383626D01*
X341883Y383598D01*
X341998Y383567D01*
X342112Y383532D01*
X342225Y383493D01*
X342337Y383451D01*
X342447Y383405D01*
X342555Y383355D01*
X342662Y383302D01*
X342767Y383245D01*
X342871Y383185D01*
X342972Y383121D01*
X343070Y383054D01*
X343167Y382984D01*
X343261Y382910D01*
X343353Y382834D01*
X343442Y382754D01*
X343529Y382672D01*
X343613Y382587D01*
X343694Y382499D01*
X343771Y382409D01*
X343846Y382316D01*
X343918Y382220D01*
X343987Y382122D01*
X344052Y382022D01*
X344114Y381920D01*
X344173Y381816D01*
X344228Y381710D01*
X344279Y381602D01*
X344327Y381493D01*
X344372Y381382D01*
X344412Y381270D01*
X344449Y381156D01*
X344482Y381041D01*
X344512Y380926D01*
X344537Y380809D01*
X344559Y380692D01*
X344576Y380573D01*
X344590Y380455D01*
X344600Y380336D01*
X344606Y380216D01*
X344608Y380097D01*
X344608Y378291D01*
X337383Y378291D01*
X351818Y372872D02*
X351818Y386419D01*
X351819Y386419D02*
X351821Y386523D01*
X351827Y386626D01*
X351837Y386730D01*
X351851Y386833D01*
X351869Y386935D01*
X351890Y387036D01*
X351916Y387137D01*
X351945Y387236D01*
X351978Y387335D01*
X352015Y387432D01*
X352056Y387527D01*
X352100Y387621D01*
X352148Y387713D01*
X352199Y387803D01*
X352254Y387892D01*
X352312Y387978D01*
X352374Y388061D01*
X352438Y388143D01*
X352506Y388221D01*
X352576Y388297D01*
X352649Y388371D01*
X352726Y388441D01*
X352804Y388509D01*
X352886Y388573D01*
X352969Y388635D01*
X353055Y388693D01*
X353144Y388748D01*
X353234Y388799D01*
X353326Y388847D01*
X353420Y388891D01*
X353515Y388932D01*
X353612Y388969D01*
X353711Y389002D01*
X353810Y389031D01*
X353911Y389057D01*
X354012Y389078D01*
X354114Y389096D01*
X354217Y389110D01*
X354321Y389120D01*
X354424Y389126D01*
X354528Y389128D01*
X355431Y389128D01*
X355431Y383709D02*
X350012Y383709D01*
X360676Y386419D02*
X360676Y372872D01*
X360676Y386419D02*
X360678Y386523D01*
X360684Y386626D01*
X360694Y386730D01*
X360708Y386833D01*
X360726Y386935D01*
X360747Y387036D01*
X360773Y387137D01*
X360802Y387236D01*
X360835Y387335D01*
X360872Y387432D01*
X360913Y387527D01*
X360957Y387621D01*
X361005Y387713D01*
X361056Y387803D01*
X361111Y387892D01*
X361169Y387978D01*
X361231Y388061D01*
X361295Y388143D01*
X361363Y388221D01*
X361433Y388297D01*
X361506Y388371D01*
X361583Y388441D01*
X361661Y388509D01*
X361743Y388573D01*
X361826Y388635D01*
X361912Y388693D01*
X362001Y388748D01*
X362091Y388799D01*
X362183Y388847D01*
X362277Y388891D01*
X362372Y388932D01*
X362469Y388969D01*
X362568Y389002D01*
X362667Y389031D01*
X362768Y389057D01*
X362869Y389078D01*
X362971Y389096D01*
X363074Y389110D01*
X363178Y389120D01*
X363281Y389126D01*
X363385Y389128D01*
X364288Y389128D01*
X364288Y383709D02*
X358870Y383709D01*
X382019Y372872D02*
X382137Y372874D01*
X382255Y372880D01*
X382373Y372889D01*
X382490Y372903D01*
X382607Y372920D01*
X382724Y372941D01*
X382839Y372966D01*
X382954Y372995D01*
X383068Y373028D01*
X383180Y373064D01*
X383291Y373104D01*
X383401Y373147D01*
X383510Y373194D01*
X383617Y373244D01*
X383722Y373299D01*
X383825Y373356D01*
X383926Y373417D01*
X384026Y373481D01*
X384123Y373548D01*
X384218Y373618D01*
X384310Y373692D01*
X384401Y373768D01*
X384488Y373848D01*
X384573Y373930D01*
X384655Y374015D01*
X384735Y374102D01*
X384811Y374193D01*
X384885Y374285D01*
X384955Y374380D01*
X385022Y374477D01*
X385086Y374577D01*
X385147Y374678D01*
X385204Y374781D01*
X385259Y374886D01*
X385309Y374993D01*
X385356Y375102D01*
X385399Y375212D01*
X385439Y375323D01*
X385475Y375435D01*
X385508Y375549D01*
X385537Y375664D01*
X385562Y375779D01*
X385583Y375896D01*
X385600Y376013D01*
X385614Y376130D01*
X385623Y376248D01*
X385629Y376366D01*
X385631Y376484D01*
X382019Y372872D02*
X381836Y372874D01*
X381654Y372881D01*
X381472Y372892D01*
X381290Y372907D01*
X381108Y372927D01*
X380927Y372950D01*
X380747Y372979D01*
X380567Y373011D01*
X380388Y373048D01*
X380211Y373089D01*
X380034Y373135D01*
X379858Y373184D01*
X379684Y373238D01*
X379510Y373296D01*
X379339Y373358D01*
X379169Y373424D01*
X379000Y373495D01*
X378833Y373569D01*
X378668Y373647D01*
X378505Y373729D01*
X378344Y373815D01*
X378185Y373905D01*
X378028Y373999D01*
X377874Y374096D01*
X377722Y374197D01*
X377572Y374302D01*
X377425Y374410D01*
X377281Y374521D01*
X377139Y374636D01*
X377000Y374755D01*
X376864Y374877D01*
X376731Y375002D01*
X376601Y375130D01*
X377052Y385516D02*
X377054Y385634D01*
X377060Y385752D01*
X377069Y385870D01*
X377083Y385987D01*
X377100Y386104D01*
X377121Y386221D01*
X377146Y386336D01*
X377175Y386451D01*
X377208Y386565D01*
X377244Y386677D01*
X377284Y386788D01*
X377327Y386898D01*
X377374Y387007D01*
X377424Y387114D01*
X377479Y387219D01*
X377536Y387322D01*
X377597Y387423D01*
X377661Y387523D01*
X377728Y387620D01*
X377798Y387715D01*
X377872Y387807D01*
X377948Y387898D01*
X378028Y387985D01*
X378110Y388070D01*
X378195Y388152D01*
X378282Y388232D01*
X378373Y388308D01*
X378465Y388382D01*
X378560Y388452D01*
X378657Y388519D01*
X378757Y388583D01*
X378858Y388644D01*
X378961Y388702D01*
X379066Y388756D01*
X379173Y388806D01*
X379282Y388853D01*
X379392Y388897D01*
X379503Y388936D01*
X379616Y388972D01*
X379729Y389005D01*
X379844Y389034D01*
X379959Y389059D01*
X380076Y389080D01*
X380193Y389097D01*
X380310Y389111D01*
X380428Y389120D01*
X380546Y389126D01*
X380664Y389128D01*
X380825Y389126D01*
X380987Y389120D01*
X381148Y389111D01*
X381309Y389097D01*
X381469Y389080D01*
X381629Y389059D01*
X381789Y389034D01*
X381948Y389005D01*
X382106Y388973D01*
X382263Y388937D01*
X382419Y388897D01*
X382575Y388853D01*
X382729Y388805D01*
X382882Y388754D01*
X383034Y388700D01*
X383185Y388641D01*
X383334Y388580D01*
X383481Y388514D01*
X383627Y388445D01*
X383772Y388373D01*
X383914Y388297D01*
X384055Y388218D01*
X384194Y388136D01*
X384330Y388050D01*
X384465Y387961D01*
X384598Y387869D01*
X384728Y387773D01*
X378858Y382355D02*
X378757Y382417D01*
X378657Y382482D01*
X378560Y382551D01*
X378465Y382623D01*
X378372Y382697D01*
X378282Y382775D01*
X378194Y382856D01*
X378109Y382939D01*
X378027Y383025D01*
X377948Y383114D01*
X377871Y383205D01*
X377798Y383299D01*
X377727Y383395D01*
X377660Y383493D01*
X377596Y383593D01*
X377535Y383696D01*
X377478Y383800D01*
X377424Y383906D01*
X377374Y384014D01*
X377327Y384123D01*
X377283Y384234D01*
X377243Y384346D01*
X377207Y384460D01*
X377175Y384574D01*
X377146Y384690D01*
X377121Y384806D01*
X377100Y384923D01*
X377083Y385041D01*
X377069Y385159D01*
X377060Y385278D01*
X377054Y385397D01*
X377052Y385516D01*
X383826Y379645D02*
X383927Y379583D01*
X384027Y379518D01*
X384124Y379449D01*
X384219Y379377D01*
X384312Y379303D01*
X384402Y379225D01*
X384490Y379144D01*
X384575Y379061D01*
X384657Y378975D01*
X384736Y378886D01*
X384813Y378795D01*
X384886Y378701D01*
X384957Y378605D01*
X385024Y378507D01*
X385088Y378407D01*
X385149Y378304D01*
X385206Y378200D01*
X385260Y378094D01*
X385310Y377986D01*
X385357Y377877D01*
X385401Y377766D01*
X385441Y377654D01*
X385477Y377540D01*
X385509Y377426D01*
X385538Y377310D01*
X385563Y377194D01*
X385584Y377077D01*
X385601Y376959D01*
X385615Y376841D01*
X385624Y376722D01*
X385630Y376603D01*
X385632Y376484D01*
X383825Y379645D02*
X378858Y382355D01*
X390274Y383709D02*
X395693Y383709D01*
X392081Y389128D02*
X392081Y375581D01*
X392083Y375480D01*
X392089Y375379D01*
X392098Y375278D01*
X392111Y375177D01*
X392128Y375077D01*
X392149Y374978D01*
X392173Y374880D01*
X392201Y374783D01*
X392233Y374686D01*
X392268Y374591D01*
X392307Y374498D01*
X392349Y374406D01*
X392395Y374315D01*
X392444Y374227D01*
X392496Y374140D01*
X392552Y374055D01*
X392610Y373972D01*
X392672Y373892D01*
X392737Y373814D01*
X392804Y373738D01*
X392874Y373665D01*
X392947Y373595D01*
X393023Y373528D01*
X393101Y373463D01*
X393181Y373401D01*
X393264Y373343D01*
X393349Y373287D01*
X393436Y373235D01*
X393524Y373186D01*
X393615Y373140D01*
X393707Y373098D01*
X393800Y373059D01*
X393895Y373024D01*
X393992Y372992D01*
X394089Y372964D01*
X394187Y372940D01*
X394286Y372919D01*
X394386Y372902D01*
X394487Y372889D01*
X394588Y372880D01*
X394689Y372874D01*
X394790Y372872D01*
X395693Y372872D01*
X400985Y372872D02*
X400985Y373775D01*
X401888Y373775D01*
X401888Y372872D01*
X400985Y372872D01*
X420074Y376484D02*
X420074Y389128D01*
X420074Y376484D02*
X420072Y376366D01*
X420066Y376248D01*
X420057Y376130D01*
X420043Y376013D01*
X420026Y375896D01*
X420005Y375779D01*
X419980Y375664D01*
X419951Y375549D01*
X419918Y375435D01*
X419882Y375323D01*
X419842Y375212D01*
X419799Y375102D01*
X419752Y374993D01*
X419702Y374886D01*
X419647Y374781D01*
X419590Y374678D01*
X419529Y374577D01*
X419465Y374477D01*
X419398Y374380D01*
X419328Y374285D01*
X419254Y374193D01*
X419178Y374102D01*
X419098Y374015D01*
X419016Y373930D01*
X418931Y373848D01*
X418844Y373768D01*
X418753Y373692D01*
X418661Y373618D01*
X418566Y373548D01*
X418469Y373481D01*
X418369Y373417D01*
X418268Y373356D01*
X418165Y373299D01*
X418060Y373244D01*
X417953Y373194D01*
X417844Y373147D01*
X417734Y373104D01*
X417623Y373064D01*
X417511Y373028D01*
X417397Y372995D01*
X417282Y372966D01*
X417167Y372941D01*
X417050Y372920D01*
X416933Y372903D01*
X416816Y372889D01*
X416698Y372880D01*
X416580Y372874D01*
X416462Y372872D01*
X414656Y372872D01*
X429712Y372872D02*
X434227Y372872D01*
X429712Y372872D02*
X429611Y372874D01*
X429510Y372880D01*
X429409Y372889D01*
X429308Y372902D01*
X429208Y372919D01*
X429109Y372940D01*
X429011Y372964D01*
X428914Y372992D01*
X428817Y373024D01*
X428722Y373059D01*
X428629Y373098D01*
X428537Y373140D01*
X428446Y373186D01*
X428358Y373235D01*
X428271Y373287D01*
X428186Y373343D01*
X428103Y373401D01*
X428023Y373463D01*
X427945Y373528D01*
X427869Y373595D01*
X427796Y373665D01*
X427726Y373738D01*
X427659Y373814D01*
X427594Y373892D01*
X427532Y373972D01*
X427474Y374055D01*
X427418Y374140D01*
X427366Y374227D01*
X427317Y374315D01*
X427271Y374406D01*
X427229Y374498D01*
X427190Y374591D01*
X427155Y374686D01*
X427123Y374783D01*
X427095Y374880D01*
X427071Y374978D01*
X427050Y375077D01*
X427033Y375177D01*
X427020Y375278D01*
X427011Y375379D01*
X427005Y375480D01*
X427003Y375581D01*
X427002Y375581D02*
X427002Y380097D01*
X427003Y380097D02*
X427005Y380216D01*
X427011Y380336D01*
X427021Y380455D01*
X427035Y380573D01*
X427052Y380692D01*
X427074Y380809D01*
X427099Y380926D01*
X427129Y381041D01*
X427162Y381156D01*
X427199Y381270D01*
X427239Y381382D01*
X427284Y381493D01*
X427332Y381602D01*
X427383Y381710D01*
X427438Y381816D01*
X427497Y381920D01*
X427559Y382022D01*
X427624Y382122D01*
X427693Y382220D01*
X427765Y382316D01*
X427840Y382409D01*
X427917Y382499D01*
X427998Y382587D01*
X428082Y382672D01*
X428169Y382754D01*
X428258Y382834D01*
X428350Y382910D01*
X428444Y382984D01*
X428541Y383054D01*
X428639Y383121D01*
X428740Y383185D01*
X428844Y383245D01*
X428949Y383302D01*
X429056Y383355D01*
X429164Y383405D01*
X429274Y383451D01*
X429386Y383493D01*
X429499Y383532D01*
X429613Y383567D01*
X429728Y383598D01*
X429845Y383626D01*
X429962Y383649D01*
X430079Y383669D01*
X430198Y383685D01*
X430317Y383697D01*
X430436Y383705D01*
X430555Y383709D01*
X430675Y383709D01*
X430794Y383705D01*
X430913Y383697D01*
X431032Y383685D01*
X431151Y383669D01*
X431268Y383649D01*
X431385Y383626D01*
X431502Y383598D01*
X431617Y383567D01*
X431731Y383532D01*
X431844Y383493D01*
X431956Y383451D01*
X432066Y383405D01*
X432174Y383355D01*
X432281Y383302D01*
X432386Y383245D01*
X432490Y383185D01*
X432591Y383121D01*
X432689Y383054D01*
X432786Y382984D01*
X432880Y382910D01*
X432972Y382834D01*
X433061Y382754D01*
X433148Y382672D01*
X433232Y382587D01*
X433313Y382499D01*
X433390Y382409D01*
X433465Y382316D01*
X433537Y382220D01*
X433606Y382122D01*
X433671Y382022D01*
X433733Y381920D01*
X433792Y381816D01*
X433847Y381710D01*
X433898Y381602D01*
X433946Y381493D01*
X433991Y381382D01*
X434031Y381270D01*
X434068Y381156D01*
X434101Y381041D01*
X434131Y380926D01*
X434156Y380809D01*
X434178Y380692D01*
X434195Y380573D01*
X434209Y380455D01*
X434219Y380336D01*
X434225Y380216D01*
X434227Y380097D01*
X434227Y378291D01*
X427002Y378291D01*
X443637Y379194D02*
X447701Y379194D01*
X443637Y379194D02*
X443525Y379192D01*
X443414Y379186D01*
X443303Y379176D01*
X443192Y379163D01*
X443082Y379145D01*
X442973Y379123D01*
X442864Y379098D01*
X442756Y379069D01*
X442650Y379036D01*
X442544Y378999D01*
X442440Y378959D01*
X442338Y378915D01*
X442237Y378867D01*
X442138Y378816D01*
X442040Y378761D01*
X441945Y378703D01*
X441852Y378642D01*
X441761Y378577D01*
X441672Y378509D01*
X441586Y378438D01*
X441503Y378365D01*
X441422Y378288D01*
X441343Y378208D01*
X441268Y378126D01*
X441196Y378041D01*
X441126Y377954D01*
X441060Y377864D01*
X440997Y377772D01*
X440937Y377677D01*
X440881Y377581D01*
X440828Y377483D01*
X440779Y377383D01*
X440733Y377281D01*
X440691Y377178D01*
X440652Y377073D01*
X440617Y376967D01*
X440586Y376860D01*
X440559Y376752D01*
X440535Y376643D01*
X440516Y376533D01*
X440500Y376423D01*
X440488Y376312D01*
X440480Y376200D01*
X440476Y376089D01*
X440476Y375977D01*
X440480Y375866D01*
X440488Y375754D01*
X440500Y375643D01*
X440516Y375533D01*
X440535Y375423D01*
X440559Y375314D01*
X440586Y375206D01*
X440617Y375099D01*
X440652Y374993D01*
X440691Y374888D01*
X440733Y374785D01*
X440779Y374683D01*
X440828Y374583D01*
X440881Y374485D01*
X440937Y374389D01*
X440997Y374294D01*
X441060Y374202D01*
X441126Y374112D01*
X441196Y374025D01*
X441268Y373940D01*
X441343Y373858D01*
X441422Y373778D01*
X441503Y373701D01*
X441586Y373628D01*
X441672Y373557D01*
X441761Y373489D01*
X441852Y373424D01*
X441945Y373363D01*
X442040Y373305D01*
X442138Y373250D01*
X442237Y373199D01*
X442338Y373151D01*
X442440Y373107D01*
X442544Y373067D01*
X442650Y373030D01*
X442756Y372997D01*
X442864Y372968D01*
X442973Y372943D01*
X443082Y372921D01*
X443192Y372903D01*
X443303Y372890D01*
X443414Y372880D01*
X443525Y372874D01*
X443637Y372872D01*
X447701Y372872D01*
X447701Y381000D01*
X447699Y381101D01*
X447693Y381202D01*
X447684Y381303D01*
X447671Y381404D01*
X447654Y381504D01*
X447633Y381603D01*
X447609Y381701D01*
X447581Y381798D01*
X447549Y381895D01*
X447514Y381990D01*
X447475Y382083D01*
X447433Y382175D01*
X447387Y382266D01*
X447338Y382355D01*
X447286Y382441D01*
X447230Y382526D01*
X447172Y382609D01*
X447110Y382689D01*
X447045Y382767D01*
X446978Y382843D01*
X446908Y382916D01*
X446835Y382986D01*
X446759Y383053D01*
X446681Y383118D01*
X446601Y383180D01*
X446518Y383238D01*
X446433Y383294D01*
X446347Y383346D01*
X446258Y383395D01*
X446167Y383441D01*
X446075Y383483D01*
X445982Y383522D01*
X445887Y383557D01*
X445790Y383589D01*
X445693Y383617D01*
X445595Y383641D01*
X445496Y383662D01*
X445396Y383679D01*
X445295Y383692D01*
X445194Y383701D01*
X445093Y383707D01*
X444992Y383709D01*
X441379Y383709D01*
X455139Y383709D02*
X455139Y372872D01*
X455139Y383709D02*
X459654Y383709D01*
X459758Y383707D01*
X459861Y383701D01*
X459965Y383691D01*
X460068Y383677D01*
X460170Y383659D01*
X460271Y383638D01*
X460372Y383612D01*
X460471Y383583D01*
X460570Y383550D01*
X460667Y383513D01*
X460762Y383472D01*
X460856Y383428D01*
X460948Y383380D01*
X461038Y383329D01*
X461127Y383274D01*
X461213Y383216D01*
X461296Y383154D01*
X461378Y383090D01*
X461456Y383022D01*
X461532Y382952D01*
X461606Y382879D01*
X461676Y382802D01*
X461744Y382724D01*
X461808Y382642D01*
X461870Y382559D01*
X461928Y382473D01*
X461983Y382384D01*
X462034Y382294D01*
X462082Y382202D01*
X462126Y382108D01*
X462167Y382013D01*
X462204Y381916D01*
X462237Y381817D01*
X462266Y381718D01*
X462292Y381617D01*
X462313Y381516D01*
X462331Y381414D01*
X462345Y381311D01*
X462355Y381207D01*
X462361Y381104D01*
X462363Y381000D01*
X462363Y372872D01*
X520095Y389128D02*
X525513Y372872D01*
X530932Y389128D01*
X539200Y372872D02*
X543715Y372872D01*
X539200Y372872D02*
X539099Y372874D01*
X538998Y372880D01*
X538897Y372889D01*
X538796Y372902D01*
X538696Y372919D01*
X538597Y372940D01*
X538499Y372964D01*
X538402Y372992D01*
X538305Y373024D01*
X538210Y373059D01*
X538117Y373098D01*
X538025Y373140D01*
X537934Y373186D01*
X537846Y373235D01*
X537759Y373287D01*
X537674Y373343D01*
X537591Y373401D01*
X537511Y373463D01*
X537433Y373528D01*
X537357Y373595D01*
X537284Y373665D01*
X537214Y373738D01*
X537147Y373814D01*
X537082Y373892D01*
X537020Y373972D01*
X536962Y374055D01*
X536906Y374140D01*
X536854Y374227D01*
X536805Y374315D01*
X536759Y374406D01*
X536717Y374498D01*
X536678Y374591D01*
X536643Y374686D01*
X536611Y374783D01*
X536583Y374880D01*
X536559Y374978D01*
X536538Y375077D01*
X536521Y375177D01*
X536508Y375278D01*
X536499Y375379D01*
X536493Y375480D01*
X536491Y375581D01*
X536490Y375581D02*
X536490Y380097D01*
X536491Y380097D02*
X536493Y380216D01*
X536499Y380336D01*
X536509Y380455D01*
X536523Y380573D01*
X536540Y380692D01*
X536562Y380809D01*
X536587Y380926D01*
X536617Y381041D01*
X536650Y381156D01*
X536687Y381270D01*
X536727Y381382D01*
X536772Y381493D01*
X536820Y381602D01*
X536871Y381710D01*
X536926Y381816D01*
X536985Y381920D01*
X537047Y382022D01*
X537112Y382122D01*
X537181Y382220D01*
X537253Y382316D01*
X537328Y382409D01*
X537405Y382499D01*
X537486Y382587D01*
X537570Y382672D01*
X537657Y382754D01*
X537746Y382834D01*
X537838Y382910D01*
X537932Y382984D01*
X538029Y383054D01*
X538127Y383121D01*
X538228Y383185D01*
X538332Y383245D01*
X538437Y383302D01*
X538544Y383355D01*
X538652Y383405D01*
X538762Y383451D01*
X538874Y383493D01*
X538987Y383532D01*
X539101Y383567D01*
X539216Y383598D01*
X539333Y383626D01*
X539450Y383649D01*
X539567Y383669D01*
X539686Y383685D01*
X539805Y383697D01*
X539924Y383705D01*
X540043Y383709D01*
X540163Y383709D01*
X540282Y383705D01*
X540401Y383697D01*
X540520Y383685D01*
X540639Y383669D01*
X540756Y383649D01*
X540873Y383626D01*
X540990Y383598D01*
X541105Y383567D01*
X541219Y383532D01*
X541332Y383493D01*
X541444Y383451D01*
X541554Y383405D01*
X541662Y383355D01*
X541769Y383302D01*
X541874Y383245D01*
X541978Y383185D01*
X542079Y383121D01*
X542177Y383054D01*
X542274Y382984D01*
X542368Y382910D01*
X542460Y382834D01*
X542549Y382754D01*
X542636Y382672D01*
X542720Y382587D01*
X542801Y382499D01*
X542878Y382409D01*
X542953Y382316D01*
X543025Y382220D01*
X543094Y382122D01*
X543159Y382022D01*
X543221Y381920D01*
X543280Y381816D01*
X543335Y381710D01*
X543386Y381602D01*
X543434Y381493D01*
X543479Y381382D01*
X543519Y381270D01*
X543556Y381156D01*
X543589Y381041D01*
X543619Y380926D01*
X543644Y380809D01*
X543666Y380692D01*
X543683Y380573D01*
X543697Y380455D01*
X543707Y380336D01*
X543713Y380216D01*
X543715Y380097D01*
X543715Y378291D01*
X536490Y378291D01*
X550643Y372872D02*
X550643Y383709D01*
X556062Y383709D01*
X556062Y381903D01*
X562334Y379194D02*
X566849Y377388D01*
X562333Y379194D02*
X562245Y379231D01*
X562159Y379272D01*
X562074Y379316D01*
X561991Y379364D01*
X561911Y379415D01*
X561832Y379469D01*
X561756Y379527D01*
X561682Y379587D01*
X561610Y379651D01*
X561542Y379717D01*
X561476Y379787D01*
X561413Y379858D01*
X561352Y379933D01*
X561295Y380009D01*
X561242Y380088D01*
X561191Y380169D01*
X561144Y380252D01*
X561100Y380337D01*
X561060Y380424D01*
X561023Y380512D01*
X560990Y380602D01*
X560960Y380693D01*
X560935Y380785D01*
X560913Y380878D01*
X560895Y380972D01*
X560880Y381066D01*
X560870Y381161D01*
X560864Y381257D01*
X560861Y381352D01*
X560862Y381448D01*
X560868Y381543D01*
X560877Y381639D01*
X560890Y381733D01*
X560906Y381827D01*
X560927Y381921D01*
X560952Y382013D01*
X560980Y382104D01*
X561012Y382194D01*
X561047Y382283D01*
X561086Y382370D01*
X561129Y382456D01*
X561175Y382540D01*
X561225Y382621D01*
X561277Y382701D01*
X561333Y382779D01*
X561393Y382854D01*
X561455Y382926D01*
X561520Y382996D01*
X561588Y383064D01*
X561658Y383128D01*
X561731Y383190D01*
X561807Y383248D01*
X561885Y383304D01*
X561965Y383356D01*
X562047Y383405D01*
X562131Y383450D01*
X562217Y383492D01*
X562304Y383531D01*
X562393Y383566D01*
X562484Y383597D01*
X562575Y383624D01*
X562668Y383648D01*
X562761Y383668D01*
X562855Y383684D01*
X562950Y383696D01*
X563045Y383705D01*
X563141Y383709D01*
X563236Y383710D01*
X563483Y383703D01*
X563729Y383691D01*
X563975Y383673D01*
X564221Y383648D01*
X564465Y383618D01*
X564709Y383582D01*
X564952Y383541D01*
X565194Y383493D01*
X565435Y383439D01*
X565674Y383380D01*
X565912Y383315D01*
X566148Y383244D01*
X566383Y383168D01*
X566616Y383086D01*
X566846Y382998D01*
X567074Y382905D01*
X567301Y382807D01*
X566850Y377387D02*
X566938Y377350D01*
X567024Y377309D01*
X567109Y377265D01*
X567192Y377217D01*
X567272Y377166D01*
X567351Y377112D01*
X567427Y377054D01*
X567501Y376994D01*
X567573Y376930D01*
X567641Y376864D01*
X567707Y376794D01*
X567770Y376723D01*
X567831Y376648D01*
X567888Y376572D01*
X567941Y376493D01*
X567992Y376412D01*
X568039Y376329D01*
X568083Y376244D01*
X568123Y376157D01*
X568160Y376069D01*
X568193Y375979D01*
X568223Y375888D01*
X568248Y375796D01*
X568270Y375703D01*
X568288Y375609D01*
X568303Y375515D01*
X568313Y375420D01*
X568319Y375324D01*
X568322Y375229D01*
X568321Y375133D01*
X568315Y375038D01*
X568306Y374942D01*
X568293Y374848D01*
X568277Y374754D01*
X568256Y374660D01*
X568231Y374568D01*
X568203Y374477D01*
X568171Y374387D01*
X568136Y374298D01*
X568097Y374211D01*
X568054Y374125D01*
X568008Y374041D01*
X567958Y373960D01*
X567906Y373880D01*
X567850Y373802D01*
X567790Y373727D01*
X567728Y373655D01*
X567663Y373585D01*
X567595Y373517D01*
X567525Y373453D01*
X567452Y373391D01*
X567376Y373333D01*
X567298Y373277D01*
X567218Y373225D01*
X567136Y373176D01*
X567052Y373131D01*
X566966Y373089D01*
X566879Y373050D01*
X566790Y373015D01*
X566699Y372984D01*
X566608Y372957D01*
X566515Y372933D01*
X566422Y372913D01*
X566328Y372897D01*
X566233Y372885D01*
X566138Y372876D01*
X566042Y372872D01*
X565947Y372871D01*
X565946Y372872D02*
X565584Y372881D01*
X565222Y372899D01*
X564861Y372926D01*
X564501Y372961D01*
X564141Y373004D01*
X563782Y373056D01*
X563425Y373117D01*
X563070Y373186D01*
X562716Y373263D01*
X562364Y373349D01*
X562014Y373443D01*
X561666Y373546D01*
X561321Y373656D01*
X560979Y373775D01*
X574491Y372872D02*
X574491Y383709D01*
X574040Y388225D02*
X574040Y389128D01*
X574943Y389128D01*
X574943Y388225D01*
X574040Y388225D01*
X580779Y380097D02*
X580779Y376484D01*
X580779Y380097D02*
X580781Y380216D01*
X580787Y380336D01*
X580797Y380455D01*
X580811Y380573D01*
X580828Y380692D01*
X580850Y380809D01*
X580875Y380926D01*
X580905Y381041D01*
X580938Y381156D01*
X580975Y381270D01*
X581015Y381382D01*
X581060Y381493D01*
X581108Y381602D01*
X581159Y381710D01*
X581214Y381816D01*
X581273Y381920D01*
X581335Y382022D01*
X581400Y382122D01*
X581469Y382220D01*
X581541Y382316D01*
X581616Y382409D01*
X581693Y382499D01*
X581774Y382587D01*
X581858Y382672D01*
X581945Y382754D01*
X582034Y382834D01*
X582126Y382910D01*
X582220Y382984D01*
X582317Y383054D01*
X582415Y383121D01*
X582516Y383185D01*
X582620Y383245D01*
X582725Y383302D01*
X582832Y383355D01*
X582940Y383405D01*
X583050Y383451D01*
X583162Y383493D01*
X583275Y383532D01*
X583389Y383567D01*
X583504Y383598D01*
X583621Y383626D01*
X583738Y383649D01*
X583855Y383669D01*
X583974Y383685D01*
X584093Y383697D01*
X584212Y383705D01*
X584331Y383709D01*
X584451Y383709D01*
X584570Y383705D01*
X584689Y383697D01*
X584808Y383685D01*
X584927Y383669D01*
X585044Y383649D01*
X585161Y383626D01*
X585278Y383598D01*
X585393Y383567D01*
X585507Y383532D01*
X585620Y383493D01*
X585732Y383451D01*
X585842Y383405D01*
X585950Y383355D01*
X586057Y383302D01*
X586162Y383245D01*
X586266Y383185D01*
X586367Y383121D01*
X586465Y383054D01*
X586562Y382984D01*
X586656Y382910D01*
X586748Y382834D01*
X586837Y382754D01*
X586924Y382672D01*
X587008Y382587D01*
X587089Y382499D01*
X587166Y382409D01*
X587241Y382316D01*
X587313Y382220D01*
X587382Y382122D01*
X587447Y382022D01*
X587509Y381920D01*
X587568Y381816D01*
X587623Y381710D01*
X587674Y381602D01*
X587722Y381493D01*
X587767Y381382D01*
X587807Y381270D01*
X587844Y381156D01*
X587877Y381041D01*
X587907Y380926D01*
X587932Y380809D01*
X587954Y380692D01*
X587971Y380573D01*
X587985Y380455D01*
X587995Y380336D01*
X588001Y380216D01*
X588003Y380097D01*
X588004Y380097D02*
X588004Y376484D01*
X588003Y376484D02*
X588001Y376365D01*
X587995Y376245D01*
X587985Y376126D01*
X587971Y376008D01*
X587954Y375889D01*
X587932Y375772D01*
X587907Y375655D01*
X587877Y375540D01*
X587844Y375425D01*
X587807Y375311D01*
X587767Y375199D01*
X587722Y375088D01*
X587674Y374979D01*
X587623Y374871D01*
X587568Y374765D01*
X587509Y374661D01*
X587447Y374559D01*
X587382Y374459D01*
X587313Y374361D01*
X587241Y374265D01*
X587166Y374172D01*
X587089Y374082D01*
X587008Y373994D01*
X586924Y373909D01*
X586837Y373827D01*
X586748Y373747D01*
X586656Y373671D01*
X586562Y373597D01*
X586465Y373527D01*
X586367Y373460D01*
X586266Y373396D01*
X586162Y373336D01*
X586057Y373279D01*
X585950Y373226D01*
X585842Y373176D01*
X585732Y373130D01*
X585620Y373088D01*
X585507Y373049D01*
X585393Y373014D01*
X585278Y372983D01*
X585161Y372955D01*
X585044Y372932D01*
X584927Y372912D01*
X584808Y372896D01*
X584689Y372884D01*
X584570Y372876D01*
X584451Y372872D01*
X584331Y372872D01*
X584212Y372876D01*
X584093Y372884D01*
X583974Y372896D01*
X583855Y372912D01*
X583738Y372932D01*
X583621Y372955D01*
X583504Y372983D01*
X583389Y373014D01*
X583275Y373049D01*
X583162Y373088D01*
X583050Y373130D01*
X582940Y373176D01*
X582832Y373226D01*
X582725Y373279D01*
X582620Y373336D01*
X582516Y373396D01*
X582415Y373460D01*
X582317Y373527D01*
X582220Y373597D01*
X582126Y373671D01*
X582034Y373747D01*
X581945Y373827D01*
X581858Y373909D01*
X581774Y373994D01*
X581693Y374082D01*
X581616Y374172D01*
X581541Y374265D01*
X581469Y374361D01*
X581400Y374459D01*
X581335Y374559D01*
X581273Y374661D01*
X581214Y374765D01*
X581159Y374871D01*
X581108Y374979D01*
X581060Y375088D01*
X581015Y375199D01*
X580975Y375311D01*
X580938Y375425D01*
X580905Y375540D01*
X580875Y375655D01*
X580850Y375772D01*
X580828Y375889D01*
X580811Y376008D01*
X580797Y376126D01*
X580787Y376245D01*
X580781Y376365D01*
X580779Y376484D01*
X594847Y372872D02*
X594847Y383709D01*
X599362Y383709D01*
X599466Y383707D01*
X599569Y383701D01*
X599673Y383691D01*
X599776Y383677D01*
X599878Y383659D01*
X599979Y383638D01*
X600080Y383612D01*
X600179Y383583D01*
X600278Y383550D01*
X600375Y383513D01*
X600470Y383472D01*
X600564Y383428D01*
X600656Y383380D01*
X600746Y383329D01*
X600835Y383274D01*
X600921Y383216D01*
X601004Y383154D01*
X601086Y383090D01*
X601164Y383022D01*
X601240Y382952D01*
X601314Y382879D01*
X601384Y382802D01*
X601452Y382724D01*
X601516Y382642D01*
X601578Y382559D01*
X601636Y382473D01*
X601691Y382384D01*
X601742Y382294D01*
X601790Y382202D01*
X601834Y382108D01*
X601875Y382013D01*
X601912Y381916D01*
X601945Y381817D01*
X601974Y381718D01*
X602000Y381617D01*
X602021Y381516D01*
X602039Y381414D01*
X602053Y381311D01*
X602063Y381207D01*
X602069Y381104D01*
X602071Y381000D01*
X602072Y381000D02*
X602072Y372872D01*
X617390Y385516D02*
X621906Y389128D01*
X621906Y372872D01*
X617390Y372872D02*
X626422Y372872D01*
X632396Y372872D02*
X632396Y373775D01*
X633299Y373775D01*
X633299Y372872D01*
X632396Y372872D01*
X639274Y381000D02*
X639278Y381320D01*
X639289Y381639D01*
X639308Y381959D01*
X639335Y382277D01*
X639369Y382595D01*
X639411Y382912D01*
X639461Y383228D01*
X639518Y383543D01*
X639582Y383856D01*
X639654Y384168D01*
X639733Y384478D01*
X639820Y384785D01*
X639914Y385091D01*
X640015Y385394D01*
X640124Y385695D01*
X640239Y385993D01*
X640362Y386289D01*
X640492Y386581D01*
X640629Y386870D01*
X640629Y386871D02*
X640668Y386979D01*
X640711Y387086D01*
X640757Y387191D01*
X640808Y387295D01*
X640861Y387397D01*
X640918Y387497D01*
X640979Y387595D01*
X641043Y387690D01*
X641110Y387784D01*
X641181Y387875D01*
X641254Y387964D01*
X641331Y388050D01*
X641410Y388133D01*
X641492Y388214D01*
X641577Y388292D01*
X641665Y388366D01*
X641755Y388438D01*
X641847Y388506D01*
X641942Y388572D01*
X642039Y388634D01*
X642138Y388692D01*
X642240Y388748D01*
X642342Y388799D01*
X642447Y388847D01*
X642553Y388892D01*
X642661Y388933D01*
X642770Y388970D01*
X642880Y389003D01*
X642992Y389032D01*
X643104Y389058D01*
X643217Y389080D01*
X643331Y389097D01*
X643445Y389111D01*
X643560Y389121D01*
X643675Y389127D01*
X643790Y389129D01*
X643790Y389128D02*
X643905Y389126D01*
X644020Y389120D01*
X644135Y389110D01*
X644249Y389096D01*
X644363Y389079D01*
X644476Y389057D01*
X644588Y389031D01*
X644700Y389002D01*
X644810Y388969D01*
X644919Y388932D01*
X645027Y388891D01*
X645133Y388846D01*
X645238Y388798D01*
X645340Y388747D01*
X645441Y388691D01*
X645541Y388633D01*
X645638Y388571D01*
X645732Y388506D01*
X645825Y388437D01*
X645915Y388365D01*
X646003Y388291D01*
X646088Y388213D01*
X646170Y388132D01*
X646249Y388049D01*
X646326Y387963D01*
X646399Y387874D01*
X646470Y387783D01*
X646537Y387689D01*
X646601Y387594D01*
X646662Y387496D01*
X646719Y387396D01*
X646772Y387294D01*
X646823Y387190D01*
X646869Y387085D01*
X646912Y386978D01*
X646951Y386870D01*
X646950Y386870D02*
X647087Y386581D01*
X647217Y386289D01*
X647340Y385993D01*
X647455Y385695D01*
X647564Y385394D01*
X647665Y385091D01*
X647759Y384785D01*
X647846Y384478D01*
X647925Y384168D01*
X647997Y383856D01*
X648061Y383543D01*
X648118Y383228D01*
X648168Y382912D01*
X648210Y382595D01*
X648244Y382277D01*
X648271Y381959D01*
X648290Y381639D01*
X648301Y381320D01*
X648305Y381000D01*
X639274Y381000D02*
X639278Y380680D01*
X639289Y380361D01*
X639308Y380041D01*
X639335Y379723D01*
X639369Y379405D01*
X639411Y379088D01*
X639461Y378772D01*
X639518Y378457D01*
X639582Y378144D01*
X639654Y377832D01*
X639733Y377522D01*
X639820Y377215D01*
X639914Y376909D01*
X640015Y376606D01*
X640124Y376305D01*
X640239Y376007D01*
X640362Y375711D01*
X640492Y375419D01*
X640629Y375130D01*
X640668Y375022D01*
X640711Y374915D01*
X640757Y374810D01*
X640808Y374706D01*
X640861Y374604D01*
X640918Y374504D01*
X640979Y374406D01*
X641043Y374311D01*
X641110Y374217D01*
X641181Y374126D01*
X641254Y374037D01*
X641331Y373951D01*
X641410Y373868D01*
X641492Y373787D01*
X641577Y373709D01*
X641665Y373635D01*
X641755Y373563D01*
X641848Y373494D01*
X641942Y373429D01*
X642039Y373367D01*
X642139Y373309D01*
X642240Y373253D01*
X642342Y373202D01*
X642447Y373154D01*
X642553Y373109D01*
X642661Y373068D01*
X642770Y373031D01*
X642880Y372998D01*
X642992Y372969D01*
X643104Y372943D01*
X643217Y372921D01*
X643331Y372904D01*
X643445Y372890D01*
X643560Y372880D01*
X643675Y372874D01*
X643790Y372872D01*
X646950Y375130D02*
X647087Y375419D01*
X647217Y375711D01*
X647340Y376007D01*
X647455Y376305D01*
X647564Y376606D01*
X647665Y376909D01*
X647759Y377215D01*
X647846Y377522D01*
X647925Y377832D01*
X647997Y378144D01*
X648061Y378457D01*
X648118Y378772D01*
X648168Y379088D01*
X648210Y379405D01*
X648244Y379723D01*
X648271Y380041D01*
X648290Y380361D01*
X648301Y380680D01*
X648305Y381000D01*
X646951Y375130D02*
X646912Y375022D01*
X646869Y374915D01*
X646823Y374810D01*
X646772Y374706D01*
X646719Y374604D01*
X646662Y374504D01*
X646601Y374406D01*
X646537Y374311D01*
X646470Y374217D01*
X646399Y374126D01*
X646326Y374037D01*
X646249Y373951D01*
X646170Y373868D01*
X646088Y373787D01*
X646003Y373709D01*
X645915Y373635D01*
X645825Y373563D01*
X645732Y373494D01*
X645638Y373429D01*
X645541Y373367D01*
X645441Y373309D01*
X645340Y373253D01*
X645237Y373202D01*
X645133Y373154D01*
X645027Y373109D01*
X644919Y373068D01*
X644810Y373031D01*
X644700Y372998D01*
X644588Y372969D01*
X644476Y372943D01*
X644363Y372921D01*
X644249Y372904D01*
X644135Y372890D01*
X644020Y372880D01*
X643905Y372874D01*
X643790Y372872D01*
X640177Y376484D02*
X647402Y385516D01*
D11*
X95250Y50800D02*
X82550Y50800D01*
X95250Y50800D02*
X101600Y44450D01*
X101600Y31750D02*
X95250Y25400D01*
X101600Y44450D02*
X107950Y50800D01*
X120650Y50800D01*
X127000Y44450D01*
X127000Y31750D02*
X120650Y25400D01*
X107950Y25400D01*
X101600Y31750D01*
X76200Y31750D02*
X76200Y44450D01*
X82550Y50800D01*
X76200Y31750D02*
X82550Y25400D01*
X95250Y25400D01*
X127000Y31750D02*
X127000Y44450D01*
D12*
X78444Y57531D02*
X76835Y52705D01*
X80052Y52705D02*
X78444Y57531D01*
X79650Y53912D02*
X77237Y53912D01*
X82772Y54046D02*
X82772Y57531D01*
X82772Y54046D02*
X82774Y53975D01*
X82780Y53903D01*
X82789Y53833D01*
X82802Y53763D01*
X82819Y53693D01*
X82840Y53625D01*
X82864Y53558D01*
X82892Y53492D01*
X82923Y53428D01*
X82958Y53365D01*
X82996Y53305D01*
X83037Y53246D01*
X83081Y53190D01*
X83128Y53136D01*
X83177Y53085D01*
X83230Y53037D01*
X83285Y52991D01*
X83342Y52949D01*
X83402Y52909D01*
X83463Y52873D01*
X83527Y52840D01*
X83592Y52811D01*
X83658Y52785D01*
X83726Y52762D01*
X83795Y52743D01*
X83865Y52728D01*
X83935Y52717D01*
X84006Y52709D01*
X84077Y52705D01*
X84149Y52705D01*
X84220Y52709D01*
X84291Y52717D01*
X84361Y52728D01*
X84431Y52743D01*
X84500Y52762D01*
X84568Y52785D01*
X84634Y52811D01*
X84699Y52840D01*
X84763Y52873D01*
X84824Y52909D01*
X84884Y52949D01*
X84941Y52991D01*
X84996Y53037D01*
X85049Y53085D01*
X85098Y53136D01*
X85145Y53190D01*
X85189Y53246D01*
X85230Y53305D01*
X85268Y53365D01*
X85303Y53428D01*
X85334Y53492D01*
X85362Y53558D01*
X85386Y53625D01*
X85407Y53693D01*
X85424Y53763D01*
X85437Y53833D01*
X85446Y53903D01*
X85452Y53975D01*
X85454Y54046D01*
X85453Y54046D02*
X85453Y57531D01*
X88625Y57531D02*
X88625Y52705D01*
X88625Y57531D02*
X89965Y57531D01*
X90035Y57529D01*
X90105Y57524D01*
X90175Y57514D01*
X90244Y57502D01*
X90312Y57485D01*
X90379Y57465D01*
X90446Y57442D01*
X90510Y57415D01*
X90574Y57385D01*
X90636Y57351D01*
X90695Y57315D01*
X90753Y57275D01*
X90809Y57232D01*
X90862Y57187D01*
X90913Y57138D01*
X90962Y57087D01*
X91007Y57034D01*
X91050Y56978D01*
X91090Y56920D01*
X91126Y56861D01*
X91160Y56799D01*
X91190Y56735D01*
X91217Y56671D01*
X91240Y56604D01*
X91260Y56537D01*
X91277Y56469D01*
X91289Y56400D01*
X91299Y56330D01*
X91304Y56260D01*
X91306Y56190D01*
X91306Y54046D01*
X91304Y53976D01*
X91299Y53906D01*
X91289Y53836D01*
X91277Y53767D01*
X91260Y53699D01*
X91240Y53632D01*
X91217Y53565D01*
X91190Y53501D01*
X91160Y53437D01*
X91126Y53375D01*
X91090Y53316D01*
X91050Y53258D01*
X91007Y53202D01*
X90962Y53149D01*
X90913Y53098D01*
X90862Y53049D01*
X90809Y53004D01*
X90753Y52961D01*
X90695Y52921D01*
X90635Y52885D01*
X90574Y52851D01*
X90510Y52821D01*
X90446Y52794D01*
X90379Y52771D01*
X90312Y52751D01*
X90244Y52734D01*
X90175Y52722D01*
X90105Y52712D01*
X90035Y52707D01*
X89965Y52705D01*
X88625Y52705D01*
X94537Y52705D02*
X94537Y57531D01*
X94001Y52705D02*
X95073Y52705D01*
X95073Y57531D02*
X94001Y57531D01*
X97586Y56190D02*
X97586Y54046D01*
X97585Y56190D02*
X97587Y56261D01*
X97593Y56333D01*
X97602Y56403D01*
X97615Y56473D01*
X97632Y56543D01*
X97653Y56611D01*
X97677Y56678D01*
X97705Y56744D01*
X97736Y56808D01*
X97771Y56871D01*
X97809Y56931D01*
X97850Y56990D01*
X97894Y57046D01*
X97941Y57100D01*
X97990Y57151D01*
X98043Y57199D01*
X98098Y57245D01*
X98155Y57287D01*
X98215Y57327D01*
X98276Y57363D01*
X98340Y57396D01*
X98405Y57425D01*
X98471Y57451D01*
X98539Y57474D01*
X98608Y57493D01*
X98678Y57508D01*
X98748Y57519D01*
X98819Y57527D01*
X98890Y57531D01*
X98962Y57531D01*
X99033Y57527D01*
X99104Y57519D01*
X99174Y57508D01*
X99244Y57493D01*
X99313Y57474D01*
X99381Y57451D01*
X99447Y57425D01*
X99512Y57396D01*
X99576Y57363D01*
X99637Y57327D01*
X99697Y57287D01*
X99754Y57245D01*
X99809Y57199D01*
X99862Y57151D01*
X99911Y57100D01*
X99958Y57046D01*
X100002Y56990D01*
X100043Y56931D01*
X100081Y56871D01*
X100116Y56808D01*
X100147Y56744D01*
X100175Y56678D01*
X100199Y56611D01*
X100220Y56543D01*
X100237Y56473D01*
X100250Y56403D01*
X100259Y56333D01*
X100265Y56261D01*
X100267Y56190D01*
X100267Y54046D01*
X100265Y53975D01*
X100259Y53903D01*
X100250Y53833D01*
X100237Y53763D01*
X100220Y53693D01*
X100199Y53625D01*
X100175Y53558D01*
X100147Y53492D01*
X100116Y53428D01*
X100081Y53365D01*
X100043Y53305D01*
X100002Y53246D01*
X99958Y53190D01*
X99911Y53136D01*
X99862Y53085D01*
X99809Y53037D01*
X99754Y52991D01*
X99697Y52949D01*
X99637Y52909D01*
X99576Y52873D01*
X99512Y52840D01*
X99447Y52811D01*
X99381Y52785D01*
X99313Y52762D01*
X99244Y52743D01*
X99174Y52728D01*
X99104Y52717D01*
X99033Y52709D01*
X98962Y52705D01*
X98890Y52705D01*
X98819Y52709D01*
X98748Y52717D01*
X98678Y52728D01*
X98608Y52743D01*
X98539Y52762D01*
X98471Y52785D01*
X98405Y52811D01*
X98340Y52840D01*
X98276Y52873D01*
X98215Y52909D01*
X98155Y52949D01*
X98098Y52991D01*
X98043Y53037D01*
X97990Y53085D01*
X97941Y53136D01*
X97894Y53190D01*
X97850Y53246D01*
X97809Y53305D01*
X97771Y53365D01*
X97736Y53428D01*
X97705Y53492D01*
X97677Y53558D01*
X97653Y53625D01*
X97632Y53693D01*
X97615Y53763D01*
X97602Y53833D01*
X97593Y53903D01*
X97587Y53975D01*
X97585Y54046D01*
D11*
X190500Y44450D02*
X196850Y50800D01*
X209550Y50800D01*
X215900Y44450D01*
X215900Y31750D02*
X209550Y25400D01*
X196850Y25400D01*
X190500Y31750D01*
X158750Y50800D02*
X146050Y50800D01*
X158750Y50800D02*
X165100Y44450D01*
X165100Y31750D02*
X158750Y25400D01*
X165100Y44450D02*
X171450Y50800D01*
X184150Y50800D01*
X190500Y44450D01*
X190500Y31750D02*
X184150Y25400D01*
X171450Y25400D01*
X165100Y31750D01*
X139700Y31750D02*
X139700Y44450D01*
X146050Y50800D01*
X139700Y31750D02*
X146050Y25400D01*
X158750Y25400D01*
X215900Y31750D02*
X215900Y44450D01*
D12*
X140335Y52705D02*
X140335Y57531D01*
X140335Y52705D02*
X142480Y52705D01*
X145131Y52705D02*
X145131Y57531D01*
X144594Y52705D02*
X145667Y52705D01*
X145667Y57531D02*
X144594Y57531D01*
X150239Y55386D02*
X151043Y55386D01*
X151043Y52705D01*
X149435Y52705D01*
X149370Y52707D01*
X149306Y52713D01*
X149242Y52723D01*
X149178Y52736D01*
X149116Y52754D01*
X149055Y52775D01*
X148995Y52799D01*
X148937Y52828D01*
X148880Y52860D01*
X148826Y52895D01*
X148774Y52933D01*
X148724Y52975D01*
X148677Y53019D01*
X148633Y53066D01*
X148591Y53116D01*
X148553Y53168D01*
X148518Y53222D01*
X148486Y53279D01*
X148457Y53337D01*
X148433Y53397D01*
X148412Y53458D01*
X148394Y53520D01*
X148381Y53584D01*
X148371Y53648D01*
X148365Y53712D01*
X148363Y53777D01*
X148362Y53777D02*
X148362Y56459D01*
X148363Y56459D02*
X148365Y56524D01*
X148371Y56588D01*
X148381Y56652D01*
X148394Y56716D01*
X148412Y56778D01*
X148433Y56839D01*
X148457Y56899D01*
X148486Y56957D01*
X148518Y57014D01*
X148553Y57068D01*
X148591Y57120D01*
X148633Y57170D01*
X148677Y57217D01*
X148724Y57261D01*
X148774Y57303D01*
X148826Y57341D01*
X148880Y57376D01*
X148937Y57408D01*
X148995Y57437D01*
X149055Y57461D01*
X149116Y57482D01*
X149178Y57500D01*
X149242Y57513D01*
X149306Y57523D01*
X149370Y57529D01*
X149435Y57531D01*
X151043Y57531D01*
X154214Y57531D02*
X154214Y52705D01*
X154214Y55386D02*
X156895Y55386D01*
X156895Y57531D02*
X156895Y52705D01*
X160858Y52705D02*
X160858Y57531D01*
X159518Y57531D02*
X162199Y57531D01*
X166064Y52705D02*
X166129Y52707D01*
X166193Y52713D01*
X166257Y52723D01*
X166321Y52736D01*
X166383Y52754D01*
X166444Y52775D01*
X166504Y52799D01*
X166562Y52828D01*
X166619Y52860D01*
X166673Y52895D01*
X166725Y52933D01*
X166775Y52975D01*
X166822Y53019D01*
X166866Y53066D01*
X166908Y53116D01*
X166946Y53168D01*
X166981Y53222D01*
X167013Y53279D01*
X167042Y53337D01*
X167066Y53397D01*
X167087Y53458D01*
X167105Y53520D01*
X167118Y53584D01*
X167128Y53648D01*
X167134Y53712D01*
X167136Y53777D01*
X166064Y52705D02*
X165970Y52707D01*
X165876Y52713D01*
X165782Y52723D01*
X165689Y52736D01*
X165597Y52754D01*
X165505Y52775D01*
X165414Y52800D01*
X165324Y52829D01*
X165236Y52862D01*
X165149Y52898D01*
X165064Y52938D01*
X164980Y52981D01*
X164899Y53028D01*
X164819Y53078D01*
X164741Y53131D01*
X164666Y53188D01*
X164593Y53247D01*
X164523Y53310D01*
X164455Y53375D01*
X164590Y56459D02*
X164592Y56524D01*
X164598Y56588D01*
X164608Y56652D01*
X164621Y56716D01*
X164639Y56778D01*
X164660Y56839D01*
X164684Y56899D01*
X164713Y56957D01*
X164745Y57014D01*
X164780Y57068D01*
X164818Y57120D01*
X164860Y57170D01*
X164904Y57217D01*
X164951Y57261D01*
X165001Y57303D01*
X165053Y57341D01*
X165107Y57376D01*
X165164Y57408D01*
X165222Y57437D01*
X165282Y57461D01*
X165343Y57482D01*
X165405Y57500D01*
X165469Y57513D01*
X165533Y57523D01*
X165597Y57529D01*
X165662Y57531D01*
X165748Y57529D01*
X165834Y57524D01*
X165920Y57514D01*
X166005Y57501D01*
X166090Y57485D01*
X166174Y57465D01*
X166257Y57441D01*
X166339Y57414D01*
X166419Y57383D01*
X166499Y57349D01*
X166576Y57311D01*
X166652Y57270D01*
X166726Y57226D01*
X166798Y57179D01*
X166869Y57129D01*
X165126Y55521D02*
X165073Y55554D01*
X165022Y55591D01*
X164973Y55630D01*
X164926Y55672D01*
X164882Y55717D01*
X164841Y55764D01*
X164802Y55813D01*
X164766Y55865D01*
X164733Y55919D01*
X164704Y55974D01*
X164678Y56031D01*
X164655Y56090D01*
X164635Y56149D01*
X164619Y56210D01*
X164606Y56271D01*
X164597Y56334D01*
X164592Y56396D01*
X164590Y56459D01*
X166600Y54715D02*
X166653Y54682D01*
X166704Y54645D01*
X166753Y54606D01*
X166800Y54564D01*
X166844Y54519D01*
X166885Y54472D01*
X166924Y54423D01*
X166960Y54371D01*
X166993Y54317D01*
X167022Y54262D01*
X167048Y54205D01*
X167071Y54146D01*
X167091Y54087D01*
X167107Y54026D01*
X167120Y53965D01*
X167129Y53902D01*
X167134Y53840D01*
X167136Y53777D01*
X166600Y54716D02*
X165126Y55520D01*
D11*
X412750Y50800D02*
X425450Y50800D01*
X431800Y44450D01*
X431800Y31750D02*
X425450Y25400D01*
X431800Y44450D02*
X438150Y50800D01*
X450850Y50800D01*
X457200Y44450D01*
X457200Y31750D02*
X450850Y25400D01*
X438150Y25400D01*
X431800Y31750D01*
X406400Y31750D02*
X406400Y44450D01*
X412750Y50800D01*
X406400Y31750D02*
X412750Y25400D01*
X425450Y25400D01*
X457200Y31750D02*
X457200Y44450D01*
D12*
X407035Y52705D02*
X407035Y57531D01*
X408376Y57531D01*
X408447Y57529D01*
X408519Y57523D01*
X408589Y57514D01*
X408659Y57501D01*
X408729Y57484D01*
X408797Y57463D01*
X408864Y57439D01*
X408930Y57411D01*
X408994Y57380D01*
X409057Y57345D01*
X409117Y57307D01*
X409176Y57266D01*
X409232Y57222D01*
X409286Y57175D01*
X409337Y57126D01*
X409385Y57073D01*
X409431Y57018D01*
X409473Y56961D01*
X409513Y56901D01*
X409549Y56840D01*
X409582Y56776D01*
X409611Y56711D01*
X409637Y56645D01*
X409660Y56577D01*
X409679Y56508D01*
X409694Y56438D01*
X409705Y56368D01*
X409713Y56297D01*
X409717Y56226D01*
X409717Y56154D01*
X409713Y56083D01*
X409705Y56012D01*
X409694Y55942D01*
X409679Y55872D01*
X409660Y55803D01*
X409637Y55735D01*
X409611Y55669D01*
X409582Y55604D01*
X409549Y55540D01*
X409513Y55479D01*
X409473Y55419D01*
X409431Y55362D01*
X409385Y55307D01*
X409337Y55254D01*
X409286Y55205D01*
X409232Y55158D01*
X409176Y55114D01*
X409117Y55073D01*
X409057Y55035D01*
X408994Y55000D01*
X408930Y54969D01*
X408864Y54941D01*
X408797Y54917D01*
X408729Y54896D01*
X408659Y54879D01*
X408589Y54866D01*
X408519Y54857D01*
X408447Y54851D01*
X408376Y54849D01*
X408376Y54850D02*
X407035Y54850D01*
X412375Y54046D02*
X412375Y57531D01*
X412374Y54046D02*
X412376Y53975D01*
X412382Y53903D01*
X412391Y53833D01*
X412404Y53763D01*
X412421Y53693D01*
X412442Y53625D01*
X412466Y53558D01*
X412494Y53492D01*
X412525Y53428D01*
X412560Y53365D01*
X412598Y53305D01*
X412639Y53246D01*
X412683Y53190D01*
X412730Y53136D01*
X412779Y53085D01*
X412832Y53037D01*
X412887Y52991D01*
X412944Y52949D01*
X413004Y52909D01*
X413065Y52873D01*
X413129Y52840D01*
X413194Y52811D01*
X413260Y52785D01*
X413328Y52762D01*
X413397Y52743D01*
X413467Y52728D01*
X413537Y52717D01*
X413608Y52709D01*
X413679Y52705D01*
X413751Y52705D01*
X413822Y52709D01*
X413893Y52717D01*
X413963Y52728D01*
X414033Y52743D01*
X414102Y52762D01*
X414170Y52785D01*
X414236Y52811D01*
X414301Y52840D01*
X414365Y52873D01*
X414426Y52909D01*
X414486Y52949D01*
X414543Y52991D01*
X414598Y53037D01*
X414651Y53085D01*
X414700Y53136D01*
X414747Y53190D01*
X414791Y53246D01*
X414832Y53305D01*
X414870Y53365D01*
X414905Y53428D01*
X414936Y53492D01*
X414964Y53558D01*
X414988Y53625D01*
X415009Y53693D01*
X415026Y53763D01*
X415039Y53833D01*
X415048Y53903D01*
X415054Y53975D01*
X415056Y54046D01*
X415056Y57531D01*
X419470Y52705D02*
X419535Y52707D01*
X419599Y52713D01*
X419663Y52723D01*
X419727Y52736D01*
X419789Y52754D01*
X419850Y52775D01*
X419910Y52799D01*
X419968Y52828D01*
X420025Y52860D01*
X420079Y52895D01*
X420131Y52933D01*
X420181Y52975D01*
X420228Y53019D01*
X420272Y53066D01*
X420314Y53116D01*
X420352Y53168D01*
X420387Y53222D01*
X420419Y53279D01*
X420448Y53337D01*
X420472Y53397D01*
X420493Y53458D01*
X420511Y53520D01*
X420524Y53584D01*
X420534Y53648D01*
X420540Y53712D01*
X420542Y53777D01*
X419470Y52705D02*
X419376Y52707D01*
X419282Y52713D01*
X419188Y52723D01*
X419095Y52736D01*
X419003Y52754D01*
X418911Y52775D01*
X418820Y52800D01*
X418730Y52829D01*
X418642Y52862D01*
X418555Y52898D01*
X418470Y52938D01*
X418386Y52981D01*
X418305Y53028D01*
X418225Y53078D01*
X418147Y53131D01*
X418072Y53188D01*
X417999Y53247D01*
X417929Y53310D01*
X417861Y53375D01*
X417996Y56459D02*
X417998Y56524D01*
X418004Y56588D01*
X418014Y56652D01*
X418027Y56716D01*
X418045Y56778D01*
X418066Y56839D01*
X418090Y56899D01*
X418119Y56957D01*
X418151Y57014D01*
X418186Y57068D01*
X418224Y57120D01*
X418266Y57170D01*
X418310Y57217D01*
X418357Y57261D01*
X418407Y57303D01*
X418459Y57341D01*
X418513Y57376D01*
X418570Y57408D01*
X418628Y57437D01*
X418688Y57461D01*
X418749Y57482D01*
X418811Y57500D01*
X418875Y57513D01*
X418939Y57523D01*
X419003Y57529D01*
X419068Y57531D01*
X419154Y57529D01*
X419240Y57524D01*
X419326Y57514D01*
X419411Y57501D01*
X419496Y57485D01*
X419580Y57465D01*
X419663Y57441D01*
X419745Y57414D01*
X419825Y57383D01*
X419905Y57349D01*
X419982Y57311D01*
X420058Y57270D01*
X420132Y57226D01*
X420204Y57179D01*
X420275Y57129D01*
X418531Y55521D02*
X418478Y55554D01*
X418427Y55591D01*
X418378Y55630D01*
X418331Y55672D01*
X418287Y55717D01*
X418246Y55764D01*
X418207Y55813D01*
X418171Y55865D01*
X418138Y55919D01*
X418109Y55974D01*
X418083Y56031D01*
X418060Y56090D01*
X418040Y56149D01*
X418024Y56210D01*
X418011Y56271D01*
X418002Y56334D01*
X417997Y56396D01*
X417995Y56459D01*
X420006Y54715D02*
X420059Y54682D01*
X420110Y54645D01*
X420159Y54606D01*
X420206Y54564D01*
X420250Y54519D01*
X420291Y54472D01*
X420330Y54423D01*
X420366Y54371D01*
X420399Y54317D01*
X420428Y54262D01*
X420454Y54205D01*
X420477Y54146D01*
X420497Y54087D01*
X420513Y54026D01*
X420526Y53965D01*
X420535Y53902D01*
X420540Y53840D01*
X420542Y53777D01*
X420006Y54716D02*
X418532Y55520D01*
X423348Y57531D02*
X423348Y52705D01*
X423348Y55386D02*
X426029Y55386D01*
X426029Y57531D02*
X426029Y52705D01*
D11*
X514350Y342900D02*
X527050Y342900D01*
X533400Y336550D01*
X533400Y323850D02*
X527050Y317500D01*
X533400Y336550D02*
X539750Y342900D01*
X552450Y342900D01*
X558800Y336550D01*
X558800Y323850D02*
X552450Y317500D01*
X539750Y317500D01*
X533400Y323850D01*
X508000Y323850D02*
X508000Y336550D01*
X514350Y342900D01*
X508000Y323850D02*
X514350Y317500D01*
X527050Y317500D01*
X558800Y323850D02*
X558800Y336550D01*
D12*
X508635Y344805D02*
X508635Y349631D01*
X509976Y349631D01*
X510047Y349629D01*
X510119Y349623D01*
X510189Y349614D01*
X510259Y349601D01*
X510329Y349584D01*
X510397Y349563D01*
X510464Y349539D01*
X510530Y349511D01*
X510594Y349480D01*
X510657Y349445D01*
X510717Y349407D01*
X510776Y349366D01*
X510832Y349322D01*
X510886Y349275D01*
X510937Y349226D01*
X510985Y349173D01*
X511031Y349118D01*
X511073Y349061D01*
X511113Y349001D01*
X511149Y348940D01*
X511182Y348876D01*
X511211Y348811D01*
X511237Y348745D01*
X511260Y348677D01*
X511279Y348608D01*
X511294Y348538D01*
X511305Y348468D01*
X511313Y348397D01*
X511317Y348326D01*
X511317Y348254D01*
X511313Y348183D01*
X511305Y348112D01*
X511294Y348042D01*
X511279Y347972D01*
X511260Y347903D01*
X511237Y347835D01*
X511211Y347769D01*
X511182Y347704D01*
X511149Y347640D01*
X511113Y347579D01*
X511073Y347519D01*
X511031Y347462D01*
X510985Y347407D01*
X510937Y347354D01*
X510886Y347305D01*
X510832Y347258D01*
X510776Y347214D01*
X510717Y347173D01*
X510657Y347135D01*
X510594Y347100D01*
X510530Y347069D01*
X510464Y347041D01*
X510397Y347017D01*
X510329Y346996D01*
X510259Y346979D01*
X510189Y346966D01*
X510119Y346957D01*
X510047Y346951D01*
X509976Y346949D01*
X509976Y346950D02*
X508635Y346950D01*
X513719Y349631D02*
X514792Y344805D01*
X515864Y348022D01*
X516937Y344805D01*
X518009Y349631D01*
X520988Y349631D02*
X520988Y344805D01*
X520988Y349631D02*
X522329Y349631D01*
X522400Y349629D01*
X522472Y349623D01*
X522542Y349614D01*
X522612Y349601D01*
X522682Y349584D01*
X522750Y349563D01*
X522817Y349539D01*
X522883Y349511D01*
X522947Y349480D01*
X523010Y349445D01*
X523070Y349407D01*
X523129Y349366D01*
X523185Y349322D01*
X523239Y349275D01*
X523290Y349226D01*
X523338Y349173D01*
X523384Y349118D01*
X523426Y349061D01*
X523466Y349001D01*
X523502Y348940D01*
X523535Y348876D01*
X523564Y348811D01*
X523590Y348745D01*
X523613Y348677D01*
X523632Y348608D01*
X523647Y348538D01*
X523658Y348468D01*
X523666Y348397D01*
X523670Y348326D01*
X523670Y348254D01*
X523666Y348183D01*
X523658Y348112D01*
X523647Y348042D01*
X523632Y347972D01*
X523613Y347903D01*
X523590Y347835D01*
X523564Y347769D01*
X523535Y347704D01*
X523502Y347640D01*
X523466Y347579D01*
X523426Y347519D01*
X523384Y347462D01*
X523338Y347407D01*
X523290Y347354D01*
X523239Y347305D01*
X523185Y347258D01*
X523129Y347214D01*
X523070Y347173D01*
X523010Y347135D01*
X522947Y347100D01*
X522883Y347069D01*
X522817Y347041D01*
X522750Y347017D01*
X522682Y346996D01*
X522612Y346979D01*
X522542Y346966D01*
X522472Y346957D01*
X522400Y346951D01*
X522329Y346949D01*
X522329Y346950D02*
X520988Y346950D01*
X522597Y346950D02*
X523669Y344805D01*
D11*
X527050Y50800D02*
X520700Y44450D01*
X527050Y50800D02*
X539750Y50800D01*
X546100Y44450D01*
X546100Y31750D02*
X539750Y25400D01*
X527050Y25400D01*
X520700Y31750D01*
X488950Y50800D02*
X476250Y50800D01*
X488950Y50800D02*
X495300Y44450D01*
X495300Y31750D02*
X488950Y25400D01*
X495300Y44450D02*
X501650Y50800D01*
X514350Y50800D01*
X520700Y44450D01*
X520700Y31750D02*
X514350Y25400D01*
X501650Y25400D01*
X495300Y31750D01*
X469900Y31750D02*
X469900Y44450D01*
X476250Y50800D01*
X469900Y31750D02*
X476250Y25400D01*
X488950Y25400D01*
X546100Y31750D02*
X546100Y44450D01*
D12*
X473216Y53777D02*
X473214Y53712D01*
X473208Y53648D01*
X473198Y53584D01*
X473185Y53520D01*
X473167Y53458D01*
X473146Y53397D01*
X473122Y53337D01*
X473093Y53279D01*
X473061Y53222D01*
X473026Y53168D01*
X472988Y53116D01*
X472946Y53066D01*
X472902Y53019D01*
X472855Y52975D01*
X472805Y52933D01*
X472753Y52895D01*
X472699Y52860D01*
X472642Y52828D01*
X472584Y52799D01*
X472524Y52775D01*
X472463Y52754D01*
X472401Y52736D01*
X472337Y52723D01*
X472273Y52713D01*
X472209Y52707D01*
X472144Y52705D01*
X472050Y52707D01*
X471956Y52713D01*
X471862Y52723D01*
X471769Y52736D01*
X471677Y52754D01*
X471585Y52775D01*
X471494Y52800D01*
X471404Y52829D01*
X471316Y52862D01*
X471229Y52898D01*
X471144Y52938D01*
X471060Y52981D01*
X470979Y53028D01*
X470899Y53078D01*
X470821Y53131D01*
X470746Y53188D01*
X470673Y53247D01*
X470603Y53310D01*
X470535Y53375D01*
X470669Y56459D02*
X470671Y56524D01*
X470677Y56588D01*
X470687Y56652D01*
X470700Y56716D01*
X470718Y56778D01*
X470739Y56839D01*
X470763Y56899D01*
X470792Y56957D01*
X470824Y57014D01*
X470859Y57068D01*
X470897Y57120D01*
X470939Y57170D01*
X470983Y57217D01*
X471030Y57261D01*
X471080Y57303D01*
X471132Y57341D01*
X471186Y57376D01*
X471243Y57408D01*
X471301Y57437D01*
X471361Y57461D01*
X471422Y57482D01*
X471484Y57500D01*
X471548Y57513D01*
X471612Y57523D01*
X471676Y57529D01*
X471741Y57531D01*
X471827Y57529D01*
X471913Y57524D01*
X471999Y57514D01*
X472084Y57501D01*
X472169Y57485D01*
X472253Y57465D01*
X472336Y57441D01*
X472418Y57414D01*
X472498Y57383D01*
X472578Y57349D01*
X472655Y57311D01*
X472731Y57270D01*
X472805Y57226D01*
X472877Y57179D01*
X472948Y57129D01*
X471205Y55521D02*
X471152Y55554D01*
X471101Y55591D01*
X471052Y55630D01*
X471005Y55672D01*
X470961Y55717D01*
X470920Y55764D01*
X470881Y55813D01*
X470845Y55865D01*
X470812Y55919D01*
X470783Y55974D01*
X470757Y56031D01*
X470734Y56090D01*
X470714Y56149D01*
X470698Y56210D01*
X470685Y56271D01*
X470676Y56334D01*
X470671Y56396D01*
X470669Y56459D01*
X472680Y54715D02*
X472733Y54682D01*
X472784Y54645D01*
X472833Y54606D01*
X472880Y54564D01*
X472924Y54519D01*
X472965Y54472D01*
X473004Y54423D01*
X473040Y54371D01*
X473073Y54317D01*
X473102Y54262D01*
X473128Y54205D01*
X473151Y54146D01*
X473171Y54087D01*
X473187Y54026D01*
X473200Y53965D01*
X473209Y53902D01*
X473214Y53840D01*
X473216Y53777D01*
X472680Y54716D02*
X471205Y55520D01*
X476041Y57531D02*
X476041Y52705D01*
X478186Y52705D01*
X480837Y52705D02*
X480837Y57531D01*
X480300Y52705D02*
X481373Y52705D01*
X481373Y57531D02*
X480300Y57531D01*
X484068Y57531D02*
X484068Y52705D01*
X484068Y57531D02*
X485409Y57531D01*
X485479Y57529D01*
X485549Y57524D01*
X485619Y57514D01*
X485688Y57502D01*
X485756Y57485D01*
X485823Y57465D01*
X485890Y57442D01*
X485954Y57415D01*
X486018Y57385D01*
X486080Y57351D01*
X486139Y57315D01*
X486197Y57275D01*
X486253Y57232D01*
X486306Y57187D01*
X486357Y57138D01*
X486406Y57087D01*
X486451Y57034D01*
X486494Y56978D01*
X486534Y56920D01*
X486570Y56861D01*
X486604Y56799D01*
X486634Y56735D01*
X486661Y56671D01*
X486684Y56604D01*
X486704Y56537D01*
X486721Y56469D01*
X486733Y56400D01*
X486743Y56330D01*
X486748Y56260D01*
X486750Y56190D01*
X486749Y56190D02*
X486749Y54046D01*
X486750Y54046D02*
X486748Y53976D01*
X486743Y53906D01*
X486733Y53836D01*
X486721Y53767D01*
X486704Y53699D01*
X486684Y53632D01*
X486661Y53565D01*
X486634Y53501D01*
X486604Y53437D01*
X486570Y53375D01*
X486534Y53316D01*
X486494Y53258D01*
X486451Y53202D01*
X486406Y53149D01*
X486357Y53098D01*
X486306Y53049D01*
X486253Y53004D01*
X486197Y52961D01*
X486139Y52921D01*
X486079Y52885D01*
X486018Y52851D01*
X485954Y52821D01*
X485890Y52794D01*
X485823Y52771D01*
X485756Y52751D01*
X485688Y52734D01*
X485619Y52722D01*
X485549Y52712D01*
X485479Y52707D01*
X485409Y52705D01*
X484068Y52705D01*
X489940Y52705D02*
X492085Y52705D01*
X489940Y52705D02*
X489940Y57531D01*
X492085Y57531D01*
X491548Y55386D02*
X489940Y55386D01*
X494739Y57531D02*
X494739Y52705D01*
X494739Y57531D02*
X496079Y57531D01*
X496150Y57529D01*
X496222Y57523D01*
X496292Y57514D01*
X496362Y57501D01*
X496432Y57484D01*
X496500Y57463D01*
X496567Y57439D01*
X496633Y57411D01*
X496697Y57380D01*
X496760Y57345D01*
X496820Y57307D01*
X496879Y57266D01*
X496935Y57222D01*
X496989Y57175D01*
X497040Y57126D01*
X497088Y57073D01*
X497134Y57018D01*
X497176Y56961D01*
X497216Y56901D01*
X497252Y56840D01*
X497285Y56776D01*
X497314Y56711D01*
X497340Y56645D01*
X497363Y56577D01*
X497382Y56508D01*
X497397Y56438D01*
X497408Y56368D01*
X497416Y56297D01*
X497420Y56226D01*
X497420Y56154D01*
X497416Y56083D01*
X497408Y56012D01*
X497397Y55942D01*
X497382Y55872D01*
X497363Y55803D01*
X497340Y55735D01*
X497314Y55669D01*
X497285Y55604D01*
X497252Y55540D01*
X497216Y55479D01*
X497176Y55419D01*
X497134Y55362D01*
X497088Y55307D01*
X497040Y55254D01*
X496989Y55205D01*
X496935Y55158D01*
X496879Y55114D01*
X496820Y55073D01*
X496760Y55035D01*
X496697Y55000D01*
X496633Y54969D01*
X496567Y54941D01*
X496500Y54917D01*
X496432Y54896D01*
X496362Y54879D01*
X496292Y54866D01*
X496222Y54857D01*
X496150Y54851D01*
X496079Y54849D01*
X496079Y54850D02*
X494739Y54850D01*
X496347Y54850D02*
X497420Y52705D01*
D11*
X38100Y228600D02*
X38100Y254000D01*
X25400Y254000D01*
X25400Y330200D01*
X381000Y330200D01*
X381000Y152400D01*
X25400Y152400D01*
X25400Y228600D01*
X38100Y228600D01*
D13*
X51308Y203708D02*
X59746Y203708D01*
X59859Y203710D01*
X59972Y203716D01*
X60085Y203726D01*
X60198Y203740D01*
X60310Y203757D01*
X60421Y203779D01*
X60531Y203804D01*
X60641Y203834D01*
X60749Y203867D01*
X60856Y203904D01*
X60962Y203944D01*
X61066Y203989D01*
X61169Y204037D01*
X61270Y204088D01*
X61369Y204143D01*
X61466Y204201D01*
X61561Y204263D01*
X61654Y204328D01*
X61744Y204396D01*
X61832Y204467D01*
X61918Y204542D01*
X62001Y204619D01*
X62081Y204699D01*
X62158Y204782D01*
X62233Y204868D01*
X62304Y204956D01*
X62372Y205046D01*
X62437Y205139D01*
X62499Y205234D01*
X62557Y205331D01*
X62612Y205430D01*
X62663Y205531D01*
X62711Y205634D01*
X62756Y205738D01*
X62796Y205844D01*
X62833Y205951D01*
X62866Y206059D01*
X62896Y206169D01*
X62921Y206279D01*
X62943Y206390D01*
X62960Y206502D01*
X62974Y206615D01*
X62984Y206728D01*
X62990Y206841D01*
X62992Y206954D01*
X62990Y207067D01*
X62984Y207180D01*
X62974Y207293D01*
X62960Y207406D01*
X62943Y207518D01*
X62921Y207629D01*
X62896Y207739D01*
X62866Y207849D01*
X62833Y207957D01*
X62796Y208064D01*
X62756Y208170D01*
X62711Y208274D01*
X62663Y208377D01*
X62612Y208478D01*
X62557Y208577D01*
X62499Y208674D01*
X62437Y208769D01*
X62372Y208862D01*
X62304Y208952D01*
X62233Y209040D01*
X62158Y209126D01*
X62081Y209209D01*
X62001Y209289D01*
X61918Y209366D01*
X61832Y209441D01*
X61744Y209512D01*
X61654Y209580D01*
X61561Y209645D01*
X61466Y209707D01*
X61369Y209765D01*
X61270Y209820D01*
X61169Y209871D01*
X61066Y209919D01*
X60962Y209964D01*
X60856Y210004D01*
X60749Y210041D01*
X60641Y210074D01*
X60531Y210104D01*
X60421Y210129D01*
X60310Y210151D01*
X60198Y210168D01*
X60085Y210182D01*
X59972Y210192D01*
X59859Y210198D01*
X59746Y210200D01*
X59746Y210199D02*
X51308Y210199D01*
X51308Y218003D02*
X62992Y218003D01*
X57150Y218003D02*
X56176Y216380D01*
X56177Y216379D02*
X56130Y216306D01*
X56081Y216235D01*
X56028Y216166D01*
X55972Y216099D01*
X55913Y216035D01*
X55852Y215973D01*
X55788Y215915D01*
X55721Y215859D01*
X55652Y215807D01*
X55580Y215757D01*
X55506Y215711D01*
X55431Y215668D01*
X55353Y215629D01*
X55274Y215593D01*
X55193Y215561D01*
X55111Y215532D01*
X55028Y215507D01*
X54944Y215486D01*
X54859Y215469D01*
X54773Y215455D01*
X54687Y215446D01*
X54600Y215440D01*
X54513Y215438D01*
X54426Y215440D01*
X54339Y215446D01*
X54253Y215456D01*
X54167Y215469D01*
X54082Y215487D01*
X53998Y215508D01*
X53915Y215533D01*
X53832Y215562D01*
X53752Y215594D01*
X53673Y215630D01*
X53595Y215669D01*
X53520Y215712D01*
X53446Y215759D01*
X53375Y215808D01*
X53305Y215861D01*
X53239Y215916D01*
X53175Y215975D01*
X53113Y216036D01*
X53054Y216100D01*
X52999Y216167D01*
X52946Y216236D01*
X52896Y216308D01*
X52850Y216381D01*
X52807Y216457D01*
X52768Y216534D01*
X52732Y216613D01*
X52699Y216694D01*
X52671Y216776D01*
X52645Y216859D01*
X52624Y216943D01*
X52607Y217028D01*
X52606Y217029D02*
X52582Y217169D01*
X52562Y217311D01*
X52546Y217452D01*
X52535Y217594D01*
X52527Y217737D01*
X52523Y217879D01*
X52522Y218022D01*
X52526Y218165D01*
X52534Y218307D01*
X52546Y218449D01*
X52562Y218591D01*
X52581Y218732D01*
X52605Y218873D01*
X52632Y219013D01*
X52664Y219152D01*
X52699Y219290D01*
X52738Y219428D01*
X52781Y219564D01*
X52827Y219698D01*
X52878Y219832D01*
X52931Y219964D01*
X52989Y220094D01*
X53050Y220223D01*
X53115Y220350D01*
X53183Y220476D01*
X53255Y220599D01*
X57150Y218003D02*
X58124Y219625D01*
X58123Y219626D02*
X58170Y219699D01*
X58219Y219770D01*
X58272Y219840D01*
X58328Y219906D01*
X58387Y219970D01*
X58448Y220032D01*
X58512Y220090D01*
X58579Y220146D01*
X58648Y220198D01*
X58720Y220248D01*
X58794Y220294D01*
X58869Y220337D01*
X58947Y220376D01*
X59026Y220412D01*
X59107Y220444D01*
X59189Y220473D01*
X59272Y220498D01*
X59356Y220519D01*
X59441Y220536D01*
X59527Y220550D01*
X59614Y220559D01*
X59700Y220565D01*
X59787Y220567D01*
X59874Y220565D01*
X59961Y220559D01*
X60047Y220549D01*
X60133Y220536D01*
X60218Y220518D01*
X60302Y220497D01*
X60385Y220472D01*
X60468Y220443D01*
X60548Y220411D01*
X60627Y220375D01*
X60705Y220336D01*
X60780Y220293D01*
X60854Y220246D01*
X60925Y220197D01*
X60995Y220144D01*
X61061Y220089D01*
X61125Y220030D01*
X61187Y219969D01*
X61246Y219904D01*
X61301Y219838D01*
X61354Y219769D01*
X61404Y219697D01*
X61450Y219624D01*
X61493Y219548D01*
X61532Y219471D01*
X61568Y219392D01*
X61601Y219311D01*
X61629Y219229D01*
X61655Y219146D01*
X61676Y219062D01*
X61693Y218976D01*
X61694Y218976D02*
X61718Y218836D01*
X61738Y218694D01*
X61754Y218553D01*
X61765Y218411D01*
X61773Y218268D01*
X61777Y218126D01*
X61778Y217983D01*
X61774Y217840D01*
X61766Y217698D01*
X61754Y217556D01*
X61738Y217414D01*
X61719Y217273D01*
X61695Y217132D01*
X61668Y216992D01*
X61636Y216853D01*
X61601Y216715D01*
X61562Y216577D01*
X61519Y216441D01*
X61473Y216307D01*
X61422Y216173D01*
X61369Y216041D01*
X61311Y215911D01*
X61250Y215782D01*
X61185Y215655D01*
X61117Y215529D01*
X61045Y215406D01*
X51308Y228995D02*
X51310Y229102D01*
X51316Y229208D01*
X51326Y229314D01*
X51339Y229420D01*
X51357Y229526D01*
X51378Y229630D01*
X51403Y229734D01*
X51432Y229837D01*
X51464Y229938D01*
X51501Y230038D01*
X51541Y230137D01*
X51584Y230235D01*
X51631Y230331D01*
X51682Y230425D01*
X51736Y230517D01*
X51793Y230607D01*
X51853Y230695D01*
X51917Y230780D01*
X51984Y230863D01*
X52054Y230944D01*
X52126Y231022D01*
X52202Y231098D01*
X52280Y231170D01*
X52361Y231240D01*
X52444Y231307D01*
X52529Y231371D01*
X52617Y231431D01*
X52707Y231488D01*
X52799Y231542D01*
X52893Y231593D01*
X52989Y231640D01*
X53087Y231683D01*
X53186Y231723D01*
X53286Y231760D01*
X53387Y231792D01*
X53490Y231821D01*
X53594Y231846D01*
X53698Y231867D01*
X53804Y231885D01*
X53910Y231898D01*
X54016Y231908D01*
X54122Y231914D01*
X54229Y231916D01*
X51308Y228995D02*
X51310Y228874D01*
X51316Y228753D01*
X51326Y228633D01*
X51339Y228512D01*
X51357Y228393D01*
X51378Y228273D01*
X51403Y228155D01*
X51432Y228038D01*
X51465Y227921D01*
X51501Y227806D01*
X51542Y227692D01*
X51585Y227579D01*
X51633Y227467D01*
X51684Y227358D01*
X51739Y227250D01*
X51797Y227143D01*
X51858Y227039D01*
X51923Y226937D01*
X51991Y226837D01*
X52062Y226739D01*
X52136Y226643D01*
X52213Y226550D01*
X52294Y226460D01*
X52377Y226372D01*
X52463Y226287D01*
X52552Y226204D01*
X52643Y226125D01*
X52737Y226048D01*
X52833Y225975D01*
X52931Y225905D01*
X53032Y225838D01*
X53135Y225774D01*
X53240Y225714D01*
X53347Y225656D01*
X53455Y225603D01*
X53565Y225553D01*
X53677Y225507D01*
X53790Y225464D01*
X53905Y225425D01*
X56501Y230942D02*
X56423Y231021D01*
X56343Y231097D01*
X56260Y231170D01*
X56174Y231240D01*
X56087Y231307D01*
X55996Y231371D01*
X55904Y231431D01*
X55810Y231489D01*
X55713Y231543D01*
X55615Y231593D01*
X55515Y231640D01*
X55414Y231684D01*
X55311Y231724D01*
X55206Y231760D01*
X55101Y231792D01*
X54994Y231821D01*
X54887Y231846D01*
X54778Y231868D01*
X54669Y231885D01*
X54560Y231899D01*
X54450Y231908D01*
X54339Y231914D01*
X54229Y231916D01*
X56501Y230942D02*
X62992Y225425D01*
X62992Y231916D01*
D11*
X279400Y44450D02*
X285750Y50800D01*
X298450Y50800D01*
X304800Y44450D01*
X304800Y31750D02*
X298450Y25400D01*
X285750Y25400D01*
X279400Y31750D01*
X247650Y50800D02*
X234950Y50800D01*
X247650Y50800D02*
X254000Y44450D01*
X254000Y31750D02*
X247650Y25400D01*
X254000Y44450D02*
X260350Y50800D01*
X273050Y50800D01*
X279400Y44450D01*
X279400Y31750D02*
X273050Y25400D01*
X260350Y25400D01*
X254000Y31750D01*
X228600Y31750D02*
X228600Y44450D01*
X234950Y50800D01*
X228600Y31750D02*
X234950Y25400D01*
X247650Y25400D01*
X304800Y31750D02*
X304800Y44450D01*
D12*
X229235Y52705D02*
X229235Y57531D01*
X230576Y57531D01*
X230647Y57529D01*
X230719Y57523D01*
X230789Y57514D01*
X230859Y57501D01*
X230929Y57484D01*
X230997Y57463D01*
X231064Y57439D01*
X231130Y57411D01*
X231194Y57380D01*
X231257Y57345D01*
X231317Y57307D01*
X231376Y57266D01*
X231432Y57222D01*
X231486Y57175D01*
X231537Y57126D01*
X231585Y57073D01*
X231631Y57018D01*
X231673Y56961D01*
X231713Y56901D01*
X231749Y56840D01*
X231782Y56776D01*
X231811Y56711D01*
X231837Y56645D01*
X231860Y56577D01*
X231879Y56508D01*
X231894Y56438D01*
X231905Y56368D01*
X231913Y56297D01*
X231917Y56226D01*
X231917Y56154D01*
X231913Y56083D01*
X231905Y56012D01*
X231894Y55942D01*
X231879Y55872D01*
X231860Y55803D01*
X231837Y55735D01*
X231811Y55669D01*
X231782Y55604D01*
X231749Y55540D01*
X231713Y55479D01*
X231673Y55419D01*
X231631Y55362D01*
X231585Y55307D01*
X231537Y55254D01*
X231486Y55205D01*
X231432Y55158D01*
X231376Y55114D01*
X231317Y55073D01*
X231257Y55035D01*
X231194Y55000D01*
X231130Y54969D01*
X231064Y54941D01*
X230997Y54917D01*
X230929Y54896D01*
X230859Y54879D01*
X230789Y54866D01*
X230719Y54857D01*
X230647Y54851D01*
X230576Y54849D01*
X230576Y54850D02*
X229235Y54850D01*
X234392Y54046D02*
X234392Y56190D01*
X234394Y56261D01*
X234400Y56333D01*
X234409Y56403D01*
X234422Y56473D01*
X234439Y56543D01*
X234460Y56611D01*
X234484Y56678D01*
X234512Y56744D01*
X234543Y56808D01*
X234578Y56871D01*
X234616Y56931D01*
X234657Y56990D01*
X234701Y57046D01*
X234748Y57100D01*
X234797Y57151D01*
X234850Y57199D01*
X234905Y57245D01*
X234962Y57287D01*
X235022Y57327D01*
X235083Y57363D01*
X235147Y57396D01*
X235212Y57425D01*
X235278Y57451D01*
X235346Y57474D01*
X235415Y57493D01*
X235485Y57508D01*
X235555Y57519D01*
X235626Y57527D01*
X235697Y57531D01*
X235769Y57531D01*
X235840Y57527D01*
X235911Y57519D01*
X235981Y57508D01*
X236051Y57493D01*
X236120Y57474D01*
X236188Y57451D01*
X236254Y57425D01*
X236319Y57396D01*
X236383Y57363D01*
X236444Y57327D01*
X236504Y57287D01*
X236561Y57245D01*
X236616Y57199D01*
X236669Y57151D01*
X236718Y57100D01*
X236765Y57046D01*
X236809Y56990D01*
X236850Y56931D01*
X236888Y56871D01*
X236923Y56808D01*
X236954Y56744D01*
X236982Y56678D01*
X237006Y56611D01*
X237027Y56543D01*
X237044Y56473D01*
X237057Y56403D01*
X237066Y56333D01*
X237072Y56261D01*
X237074Y56190D01*
X237073Y56190D02*
X237073Y54046D01*
X237074Y54046D02*
X237072Y53975D01*
X237066Y53903D01*
X237057Y53833D01*
X237044Y53763D01*
X237027Y53693D01*
X237006Y53625D01*
X236982Y53558D01*
X236954Y53492D01*
X236923Y53428D01*
X236888Y53365D01*
X236850Y53305D01*
X236809Y53246D01*
X236765Y53190D01*
X236718Y53136D01*
X236669Y53085D01*
X236616Y53037D01*
X236561Y52991D01*
X236504Y52949D01*
X236444Y52909D01*
X236383Y52873D01*
X236319Y52840D01*
X236254Y52811D01*
X236188Y52785D01*
X236120Y52762D01*
X236051Y52743D01*
X235981Y52728D01*
X235911Y52717D01*
X235840Y52709D01*
X235769Y52705D01*
X235697Y52705D01*
X235626Y52709D01*
X235555Y52717D01*
X235485Y52728D01*
X235415Y52743D01*
X235346Y52762D01*
X235278Y52785D01*
X235212Y52811D01*
X235147Y52840D01*
X235083Y52873D01*
X235022Y52909D01*
X234962Y52949D01*
X234905Y52991D01*
X234850Y53037D01*
X234797Y53085D01*
X234748Y53136D01*
X234701Y53190D01*
X234657Y53246D01*
X234616Y53305D01*
X234578Y53365D01*
X234543Y53428D01*
X234512Y53492D01*
X234484Y53558D01*
X234460Y53625D01*
X234439Y53693D01*
X234422Y53763D01*
X234409Y53833D01*
X234400Y53903D01*
X234394Y53975D01*
X234392Y54046D01*
X240853Y52705D02*
X240853Y57531D01*
X239513Y57531D02*
X242194Y57531D01*
X244633Y56459D02*
X245974Y57531D01*
X245974Y52705D01*
X247314Y52705D02*
X244633Y52705D01*
D11*
X368300Y44450D02*
X374650Y50800D01*
X387350Y50800D01*
X393700Y44450D01*
X393700Y31750D02*
X387350Y25400D01*
X374650Y25400D01*
X368300Y31750D01*
X336550Y50800D02*
X323850Y50800D01*
X336550Y50800D02*
X342900Y44450D01*
X342900Y31750D02*
X336550Y25400D01*
X342900Y44450D02*
X349250Y50800D01*
X361950Y50800D01*
X368300Y44450D01*
X368300Y31750D02*
X361950Y25400D01*
X349250Y25400D01*
X342900Y31750D01*
X317500Y31750D02*
X317500Y44450D01*
X323850Y50800D01*
X317500Y31750D02*
X323850Y25400D01*
X336550Y25400D01*
X393700Y31750D02*
X393700Y44450D01*
D12*
X318135Y52705D02*
X318135Y57531D01*
X319476Y57531D01*
X319547Y57529D01*
X319619Y57523D01*
X319689Y57514D01*
X319759Y57501D01*
X319829Y57484D01*
X319897Y57463D01*
X319964Y57439D01*
X320030Y57411D01*
X320094Y57380D01*
X320157Y57345D01*
X320217Y57307D01*
X320276Y57266D01*
X320332Y57222D01*
X320386Y57175D01*
X320437Y57126D01*
X320485Y57073D01*
X320531Y57018D01*
X320573Y56961D01*
X320613Y56901D01*
X320649Y56840D01*
X320682Y56776D01*
X320711Y56711D01*
X320737Y56645D01*
X320760Y56577D01*
X320779Y56508D01*
X320794Y56438D01*
X320805Y56368D01*
X320813Y56297D01*
X320817Y56226D01*
X320817Y56154D01*
X320813Y56083D01*
X320805Y56012D01*
X320794Y55942D01*
X320779Y55872D01*
X320760Y55803D01*
X320737Y55735D01*
X320711Y55669D01*
X320682Y55604D01*
X320649Y55540D01*
X320613Y55479D01*
X320573Y55419D01*
X320531Y55362D01*
X320485Y55307D01*
X320437Y55254D01*
X320386Y55205D01*
X320332Y55158D01*
X320276Y55114D01*
X320217Y55073D01*
X320157Y55035D01*
X320094Y55000D01*
X320030Y54969D01*
X319964Y54941D01*
X319897Y54917D01*
X319829Y54896D01*
X319759Y54879D01*
X319689Y54866D01*
X319619Y54857D01*
X319547Y54851D01*
X319476Y54849D01*
X319476Y54850D02*
X318135Y54850D01*
X323292Y54046D02*
X323292Y56190D01*
X323294Y56261D01*
X323300Y56333D01*
X323309Y56403D01*
X323322Y56473D01*
X323339Y56543D01*
X323360Y56611D01*
X323384Y56678D01*
X323412Y56744D01*
X323443Y56808D01*
X323478Y56871D01*
X323516Y56931D01*
X323557Y56990D01*
X323601Y57046D01*
X323648Y57100D01*
X323697Y57151D01*
X323750Y57199D01*
X323805Y57245D01*
X323862Y57287D01*
X323922Y57327D01*
X323983Y57363D01*
X324047Y57396D01*
X324112Y57425D01*
X324178Y57451D01*
X324246Y57474D01*
X324315Y57493D01*
X324385Y57508D01*
X324455Y57519D01*
X324526Y57527D01*
X324597Y57531D01*
X324669Y57531D01*
X324740Y57527D01*
X324811Y57519D01*
X324881Y57508D01*
X324951Y57493D01*
X325020Y57474D01*
X325088Y57451D01*
X325154Y57425D01*
X325219Y57396D01*
X325283Y57363D01*
X325344Y57327D01*
X325404Y57287D01*
X325461Y57245D01*
X325516Y57199D01*
X325569Y57151D01*
X325618Y57100D01*
X325665Y57046D01*
X325709Y56990D01*
X325750Y56931D01*
X325788Y56871D01*
X325823Y56808D01*
X325854Y56744D01*
X325882Y56678D01*
X325906Y56611D01*
X325927Y56543D01*
X325944Y56473D01*
X325957Y56403D01*
X325966Y56333D01*
X325972Y56261D01*
X325974Y56190D01*
X325973Y56190D02*
X325973Y54046D01*
X325974Y54046D02*
X325972Y53975D01*
X325966Y53903D01*
X325957Y53833D01*
X325944Y53763D01*
X325927Y53693D01*
X325906Y53625D01*
X325882Y53558D01*
X325854Y53492D01*
X325823Y53428D01*
X325788Y53365D01*
X325750Y53305D01*
X325709Y53246D01*
X325665Y53190D01*
X325618Y53136D01*
X325569Y53085D01*
X325516Y53037D01*
X325461Y52991D01*
X325404Y52949D01*
X325344Y52909D01*
X325283Y52873D01*
X325219Y52840D01*
X325154Y52811D01*
X325088Y52785D01*
X325020Y52762D01*
X324951Y52743D01*
X324881Y52728D01*
X324811Y52717D01*
X324740Y52709D01*
X324669Y52705D01*
X324597Y52705D01*
X324526Y52709D01*
X324455Y52717D01*
X324385Y52728D01*
X324315Y52743D01*
X324246Y52762D01*
X324178Y52785D01*
X324112Y52811D01*
X324047Y52840D01*
X323983Y52873D01*
X323922Y52909D01*
X323862Y52949D01*
X323805Y52991D01*
X323750Y53037D01*
X323697Y53085D01*
X323648Y53136D01*
X323601Y53190D01*
X323557Y53246D01*
X323516Y53305D01*
X323478Y53365D01*
X323443Y53428D01*
X323412Y53492D01*
X323384Y53558D01*
X323360Y53625D01*
X323339Y53693D01*
X323322Y53763D01*
X323309Y53833D01*
X323300Y53903D01*
X323294Y53975D01*
X323292Y54046D01*
X329753Y52705D02*
X329753Y57531D01*
X328413Y57531D02*
X331094Y57531D01*
X335008Y57531D02*
X335076Y57529D01*
X335143Y57523D01*
X335210Y57514D01*
X335277Y57501D01*
X335342Y57484D01*
X335407Y57463D01*
X335470Y57439D01*
X335532Y57411D01*
X335592Y57380D01*
X335650Y57346D01*
X335706Y57308D01*
X335761Y57268D01*
X335812Y57224D01*
X335861Y57177D01*
X335908Y57128D01*
X335952Y57077D01*
X335992Y57022D01*
X336030Y56966D01*
X336064Y56908D01*
X336095Y56848D01*
X336123Y56786D01*
X336147Y56723D01*
X336168Y56658D01*
X336185Y56593D01*
X336198Y56526D01*
X336207Y56459D01*
X336213Y56392D01*
X336215Y56324D01*
X335008Y57531D02*
X334930Y57529D01*
X334852Y57523D01*
X334775Y57513D01*
X334698Y57500D01*
X334622Y57482D01*
X334547Y57461D01*
X334473Y57436D01*
X334401Y57407D01*
X334330Y57375D01*
X334261Y57339D01*
X334193Y57300D01*
X334128Y57257D01*
X334065Y57211D01*
X334004Y57162D01*
X333946Y57110D01*
X333891Y57055D01*
X333838Y56998D01*
X333789Y56938D01*
X333742Y56875D01*
X333699Y56811D01*
X333659Y56744D01*
X333622Y56675D01*
X333589Y56604D01*
X333559Y56532D01*
X333533Y56459D01*
X335812Y55386D02*
X335861Y55435D01*
X335908Y55487D01*
X335951Y55542D01*
X335992Y55599D01*
X336030Y55658D01*
X336064Y55719D01*
X336095Y55782D01*
X336123Y55846D01*
X336147Y55912D01*
X336167Y55978D01*
X336184Y56046D01*
X336197Y56115D01*
X336206Y56184D01*
X336212Y56254D01*
X336214Y56324D01*
X335812Y55386D02*
X333533Y52705D01*
X336214Y52705D01*
D11*
X440690Y237490D02*
X491490Y237490D01*
X491490Y229870D01*
X491490Y222250D01*
X440690Y222250D01*
X440690Y229870D01*
X440690Y237490D01*
X491490Y229870D02*
X494030Y229870D01*
X440690Y229870D02*
X438150Y229870D01*
D12*
X462038Y220091D02*
X462038Y215265D01*
X462038Y220091D02*
X463379Y220091D01*
X463450Y220089D01*
X463522Y220083D01*
X463592Y220074D01*
X463662Y220061D01*
X463732Y220044D01*
X463800Y220023D01*
X463867Y219999D01*
X463933Y219971D01*
X463997Y219940D01*
X464060Y219905D01*
X464120Y219867D01*
X464179Y219826D01*
X464235Y219782D01*
X464289Y219735D01*
X464340Y219686D01*
X464388Y219633D01*
X464434Y219578D01*
X464476Y219521D01*
X464516Y219461D01*
X464552Y219400D01*
X464585Y219336D01*
X464614Y219271D01*
X464640Y219205D01*
X464663Y219137D01*
X464682Y219068D01*
X464697Y218998D01*
X464708Y218928D01*
X464716Y218857D01*
X464720Y218786D01*
X464720Y218714D01*
X464716Y218643D01*
X464708Y218572D01*
X464697Y218502D01*
X464682Y218432D01*
X464663Y218363D01*
X464640Y218295D01*
X464614Y218229D01*
X464585Y218164D01*
X464552Y218100D01*
X464516Y218039D01*
X464476Y217979D01*
X464434Y217922D01*
X464388Y217867D01*
X464340Y217814D01*
X464289Y217765D01*
X464235Y217718D01*
X464179Y217674D01*
X464120Y217633D01*
X464060Y217595D01*
X463997Y217560D01*
X463933Y217529D01*
X463867Y217501D01*
X463800Y217477D01*
X463732Y217456D01*
X463662Y217439D01*
X463592Y217426D01*
X463522Y217417D01*
X463450Y217411D01*
X463379Y217409D01*
X463379Y217410D02*
X462038Y217410D01*
X463647Y217410D02*
X464719Y215265D01*
X467461Y216337D02*
X468533Y220091D01*
X467461Y216337D02*
X470142Y216337D01*
X469338Y217410D02*
X469338Y215265D01*
D11*
X533400Y93980D02*
X584200Y93980D01*
X533400Y93980D02*
X533400Y101600D01*
X533400Y109220D01*
X584200Y109220D01*
X584200Y101600D01*
X584200Y93980D01*
X533400Y101600D02*
X530860Y101600D01*
X584200Y101600D02*
X586740Y101600D01*
D12*
X554748Y90805D02*
X554748Y85979D01*
X554748Y90805D02*
X556089Y90805D01*
X556160Y90803D01*
X556232Y90797D01*
X556302Y90788D01*
X556372Y90775D01*
X556442Y90758D01*
X556510Y90737D01*
X556577Y90713D01*
X556643Y90685D01*
X556707Y90654D01*
X556770Y90619D01*
X556830Y90581D01*
X556889Y90540D01*
X556945Y90496D01*
X556999Y90449D01*
X557050Y90400D01*
X557098Y90347D01*
X557144Y90292D01*
X557186Y90235D01*
X557226Y90175D01*
X557262Y90114D01*
X557295Y90050D01*
X557324Y89985D01*
X557350Y89919D01*
X557373Y89851D01*
X557392Y89782D01*
X557407Y89712D01*
X557418Y89642D01*
X557426Y89571D01*
X557430Y89500D01*
X557430Y89428D01*
X557426Y89357D01*
X557418Y89286D01*
X557407Y89216D01*
X557392Y89146D01*
X557373Y89077D01*
X557350Y89009D01*
X557324Y88943D01*
X557295Y88878D01*
X557262Y88814D01*
X557226Y88753D01*
X557186Y88693D01*
X557144Y88636D01*
X557098Y88581D01*
X557050Y88528D01*
X556999Y88479D01*
X556945Y88432D01*
X556889Y88388D01*
X556830Y88347D01*
X556770Y88309D01*
X556707Y88274D01*
X556643Y88243D01*
X556577Y88215D01*
X556510Y88191D01*
X556442Y88170D01*
X556372Y88153D01*
X556302Y88140D01*
X556232Y88131D01*
X556160Y88125D01*
X556089Y88123D01*
X556089Y88124D02*
X554748Y88124D01*
X556357Y88124D02*
X557429Y85979D01*
X560171Y85979D02*
X561511Y85979D01*
X561582Y85981D01*
X561654Y85987D01*
X561724Y85996D01*
X561794Y86009D01*
X561864Y86026D01*
X561932Y86047D01*
X561999Y86071D01*
X562065Y86099D01*
X562129Y86130D01*
X562192Y86165D01*
X562252Y86203D01*
X562311Y86244D01*
X562367Y86288D01*
X562421Y86335D01*
X562472Y86384D01*
X562520Y86437D01*
X562566Y86492D01*
X562608Y86549D01*
X562648Y86609D01*
X562684Y86670D01*
X562717Y86734D01*
X562746Y86799D01*
X562772Y86865D01*
X562795Y86933D01*
X562814Y87002D01*
X562829Y87072D01*
X562840Y87142D01*
X562848Y87213D01*
X562852Y87284D01*
X562852Y87356D01*
X562848Y87427D01*
X562840Y87498D01*
X562829Y87568D01*
X562814Y87638D01*
X562795Y87707D01*
X562772Y87775D01*
X562746Y87841D01*
X562717Y87906D01*
X562684Y87970D01*
X562648Y88031D01*
X562608Y88091D01*
X562566Y88148D01*
X562520Y88203D01*
X562472Y88256D01*
X562421Y88305D01*
X562367Y88352D01*
X562311Y88396D01*
X562252Y88437D01*
X562192Y88475D01*
X562129Y88510D01*
X562065Y88541D01*
X561999Y88569D01*
X561932Y88593D01*
X561864Y88614D01*
X561794Y88631D01*
X561724Y88644D01*
X561654Y88653D01*
X561582Y88659D01*
X561511Y88661D01*
X561779Y90805D02*
X560171Y90805D01*
X561779Y90805D02*
X561844Y90803D01*
X561908Y90797D01*
X561972Y90787D01*
X562036Y90774D01*
X562098Y90756D01*
X562159Y90735D01*
X562219Y90711D01*
X562277Y90682D01*
X562334Y90650D01*
X562388Y90615D01*
X562440Y90577D01*
X562490Y90535D01*
X562537Y90491D01*
X562581Y90444D01*
X562623Y90394D01*
X562661Y90342D01*
X562696Y90288D01*
X562728Y90231D01*
X562757Y90173D01*
X562781Y90113D01*
X562802Y90052D01*
X562820Y89990D01*
X562833Y89926D01*
X562843Y89862D01*
X562849Y89798D01*
X562851Y89733D01*
X562849Y89668D01*
X562843Y89604D01*
X562833Y89540D01*
X562820Y89476D01*
X562802Y89414D01*
X562781Y89353D01*
X562757Y89293D01*
X562728Y89235D01*
X562696Y89178D01*
X562661Y89124D01*
X562623Y89072D01*
X562581Y89022D01*
X562537Y88975D01*
X562490Y88931D01*
X562440Y88889D01*
X562388Y88851D01*
X562334Y88816D01*
X562277Y88784D01*
X562219Y88755D01*
X562159Y88731D01*
X562098Y88710D01*
X562036Y88692D01*
X561972Y88679D01*
X561908Y88669D01*
X561844Y88663D01*
X561779Y88661D01*
X561779Y88660D02*
X560707Y88660D01*
D11*
X368300Y93980D02*
X317500Y93980D01*
X317500Y101600D01*
X317500Y109220D01*
X368300Y109220D01*
X368300Y101600D01*
X368300Y93980D01*
X317500Y101600D02*
X314960Y101600D01*
X368300Y101600D02*
X370840Y101600D01*
D12*
X338848Y90805D02*
X338848Y85979D01*
X338848Y90805D02*
X340189Y90805D01*
X340260Y90803D01*
X340332Y90797D01*
X340402Y90788D01*
X340472Y90775D01*
X340542Y90758D01*
X340610Y90737D01*
X340677Y90713D01*
X340743Y90685D01*
X340807Y90654D01*
X340870Y90619D01*
X340930Y90581D01*
X340989Y90540D01*
X341045Y90496D01*
X341099Y90449D01*
X341150Y90400D01*
X341198Y90347D01*
X341244Y90292D01*
X341286Y90235D01*
X341326Y90175D01*
X341362Y90114D01*
X341395Y90050D01*
X341424Y89985D01*
X341450Y89919D01*
X341473Y89851D01*
X341492Y89782D01*
X341507Y89712D01*
X341518Y89642D01*
X341526Y89571D01*
X341530Y89500D01*
X341530Y89428D01*
X341526Y89357D01*
X341518Y89286D01*
X341507Y89216D01*
X341492Y89146D01*
X341473Y89077D01*
X341450Y89009D01*
X341424Y88943D01*
X341395Y88878D01*
X341362Y88814D01*
X341326Y88753D01*
X341286Y88693D01*
X341244Y88636D01*
X341198Y88581D01*
X341150Y88528D01*
X341099Y88479D01*
X341045Y88432D01*
X340989Y88388D01*
X340930Y88347D01*
X340870Y88309D01*
X340807Y88274D01*
X340743Y88243D01*
X340677Y88215D01*
X340610Y88191D01*
X340542Y88170D01*
X340472Y88153D01*
X340402Y88140D01*
X340332Y88131D01*
X340260Y88125D01*
X340189Y88123D01*
X340189Y88124D02*
X338848Y88124D01*
X340457Y88124D02*
X341529Y85979D01*
X344271Y85979D02*
X345879Y85979D01*
X345944Y85981D01*
X346008Y85987D01*
X346072Y85997D01*
X346136Y86010D01*
X346198Y86028D01*
X346259Y86049D01*
X346319Y86073D01*
X346377Y86102D01*
X346434Y86134D01*
X346488Y86169D01*
X346540Y86207D01*
X346590Y86249D01*
X346637Y86293D01*
X346681Y86340D01*
X346723Y86390D01*
X346761Y86442D01*
X346796Y86496D01*
X346828Y86553D01*
X346857Y86611D01*
X346881Y86671D01*
X346902Y86732D01*
X346920Y86794D01*
X346933Y86858D01*
X346943Y86922D01*
X346949Y86986D01*
X346951Y87051D01*
X346952Y87051D02*
X346952Y87588D01*
X346951Y87588D02*
X346949Y87653D01*
X346943Y87717D01*
X346933Y87781D01*
X346920Y87845D01*
X346902Y87907D01*
X346881Y87968D01*
X346857Y88028D01*
X346828Y88086D01*
X346796Y88143D01*
X346761Y88197D01*
X346723Y88249D01*
X346681Y88299D01*
X346637Y88346D01*
X346590Y88390D01*
X346540Y88432D01*
X346488Y88470D01*
X346434Y88505D01*
X346377Y88537D01*
X346319Y88566D01*
X346259Y88590D01*
X346198Y88611D01*
X346136Y88629D01*
X346072Y88642D01*
X346008Y88652D01*
X345944Y88658D01*
X345879Y88660D01*
X344271Y88660D01*
X344271Y90805D01*
X346952Y90805D01*
D11*
X215900Y121920D02*
X165100Y121920D01*
X215900Y121920D02*
X215900Y114300D01*
X215900Y106680D01*
X165100Y106680D01*
X165100Y114300D01*
X165100Y121920D01*
X215900Y114300D02*
X218440Y114300D01*
X165100Y114300D02*
X162560Y114300D01*
D12*
X186448Y104521D02*
X186448Y99695D01*
X186448Y104521D02*
X187789Y104521D01*
X187860Y104519D01*
X187932Y104513D01*
X188002Y104504D01*
X188072Y104491D01*
X188142Y104474D01*
X188210Y104453D01*
X188277Y104429D01*
X188343Y104401D01*
X188407Y104370D01*
X188470Y104335D01*
X188530Y104297D01*
X188589Y104256D01*
X188645Y104212D01*
X188699Y104165D01*
X188750Y104116D01*
X188798Y104063D01*
X188844Y104008D01*
X188886Y103951D01*
X188926Y103891D01*
X188962Y103830D01*
X188995Y103766D01*
X189024Y103701D01*
X189050Y103635D01*
X189073Y103567D01*
X189092Y103498D01*
X189107Y103428D01*
X189118Y103358D01*
X189126Y103287D01*
X189130Y103216D01*
X189130Y103144D01*
X189126Y103073D01*
X189118Y103002D01*
X189107Y102932D01*
X189092Y102862D01*
X189073Y102793D01*
X189050Y102725D01*
X189024Y102659D01*
X188995Y102594D01*
X188962Y102530D01*
X188926Y102469D01*
X188886Y102409D01*
X188844Y102352D01*
X188798Y102297D01*
X188750Y102244D01*
X188699Y102195D01*
X188645Y102148D01*
X188589Y102104D01*
X188530Y102063D01*
X188470Y102025D01*
X188407Y101990D01*
X188343Y101959D01*
X188277Y101931D01*
X188210Y101907D01*
X188142Y101886D01*
X188072Y101869D01*
X188002Y101856D01*
X187932Y101847D01*
X187860Y101841D01*
X187789Y101839D01*
X187789Y101840D02*
X186448Y101840D01*
X188057Y101840D02*
X189129Y99695D01*
X191871Y103449D02*
X193211Y104521D01*
X193211Y99695D01*
X191871Y99695D02*
X194552Y99695D01*
D11*
X215900Y68580D02*
X165100Y68580D01*
X165100Y76200D01*
X165100Y83820D01*
X215900Y83820D01*
X215900Y76200D01*
X215900Y68580D01*
X165100Y76200D02*
X162560Y76200D01*
X215900Y76200D02*
X218440Y76200D01*
D12*
X186448Y65405D02*
X186448Y60579D01*
X186448Y65405D02*
X187789Y65405D01*
X187860Y65403D01*
X187932Y65397D01*
X188002Y65388D01*
X188072Y65375D01*
X188142Y65358D01*
X188210Y65337D01*
X188277Y65313D01*
X188343Y65285D01*
X188407Y65254D01*
X188470Y65219D01*
X188530Y65181D01*
X188589Y65140D01*
X188645Y65096D01*
X188699Y65049D01*
X188750Y65000D01*
X188798Y64947D01*
X188844Y64892D01*
X188886Y64835D01*
X188926Y64775D01*
X188962Y64714D01*
X188995Y64650D01*
X189024Y64585D01*
X189050Y64519D01*
X189073Y64451D01*
X189092Y64382D01*
X189107Y64312D01*
X189118Y64242D01*
X189126Y64171D01*
X189130Y64100D01*
X189130Y64028D01*
X189126Y63957D01*
X189118Y63886D01*
X189107Y63816D01*
X189092Y63746D01*
X189073Y63677D01*
X189050Y63609D01*
X189024Y63543D01*
X188995Y63478D01*
X188962Y63414D01*
X188926Y63353D01*
X188886Y63293D01*
X188844Y63236D01*
X188798Y63181D01*
X188750Y63128D01*
X188699Y63079D01*
X188645Y63032D01*
X188589Y62988D01*
X188530Y62947D01*
X188470Y62909D01*
X188407Y62874D01*
X188343Y62843D01*
X188277Y62815D01*
X188210Y62791D01*
X188142Y62770D01*
X188072Y62753D01*
X188002Y62740D01*
X187932Y62731D01*
X187860Y62725D01*
X187789Y62723D01*
X187789Y62724D02*
X186448Y62724D01*
X188057Y62724D02*
X189129Y60579D01*
X193345Y65405D02*
X193413Y65403D01*
X193480Y65397D01*
X193547Y65388D01*
X193614Y65375D01*
X193679Y65358D01*
X193744Y65337D01*
X193807Y65313D01*
X193869Y65285D01*
X193929Y65254D01*
X193987Y65220D01*
X194043Y65182D01*
X194098Y65142D01*
X194149Y65098D01*
X194198Y65051D01*
X194245Y65002D01*
X194289Y64951D01*
X194329Y64896D01*
X194367Y64840D01*
X194401Y64782D01*
X194432Y64722D01*
X194460Y64660D01*
X194484Y64597D01*
X194505Y64532D01*
X194522Y64467D01*
X194535Y64400D01*
X194544Y64333D01*
X194550Y64266D01*
X194552Y64198D01*
X193345Y65405D02*
X193267Y65403D01*
X193189Y65397D01*
X193112Y65387D01*
X193035Y65374D01*
X192959Y65356D01*
X192884Y65335D01*
X192810Y65310D01*
X192738Y65281D01*
X192667Y65249D01*
X192598Y65213D01*
X192530Y65174D01*
X192465Y65131D01*
X192402Y65085D01*
X192341Y65036D01*
X192283Y64984D01*
X192228Y64929D01*
X192175Y64872D01*
X192126Y64812D01*
X192079Y64749D01*
X192036Y64685D01*
X191996Y64618D01*
X191959Y64549D01*
X191926Y64478D01*
X191896Y64406D01*
X191870Y64333D01*
X194150Y63260D02*
X194199Y63309D01*
X194246Y63361D01*
X194289Y63416D01*
X194330Y63473D01*
X194368Y63532D01*
X194402Y63593D01*
X194433Y63656D01*
X194461Y63720D01*
X194485Y63786D01*
X194505Y63852D01*
X194522Y63920D01*
X194535Y63989D01*
X194544Y64058D01*
X194550Y64128D01*
X194552Y64198D01*
X194150Y63260D02*
X191871Y60579D01*
X194552Y60579D01*
D11*
X76600Y101600D02*
X76608Y102214D01*
X76630Y102827D01*
X76668Y103439D01*
X76720Y104050D01*
X76788Y104660D01*
X76871Y105268D01*
X76968Y105874D01*
X77080Y106477D01*
X77207Y107078D01*
X77349Y107675D01*
X77506Y108268D01*
X77676Y108857D01*
X77862Y109442D01*
X78061Y110022D01*
X78275Y110597D01*
X78503Y111167D01*
X78745Y111731D01*
X79000Y112289D01*
X79269Y112840D01*
X79552Y113385D01*
X79848Y113922D01*
X80157Y114453D01*
X80479Y114975D01*
X80813Y115489D01*
X81160Y115995D01*
X81520Y116492D01*
X81891Y116981D01*
X82275Y117460D01*
X82670Y117929D01*
X83076Y118389D01*
X83494Y118839D01*
X83922Y119278D01*
X84361Y119706D01*
X84811Y120124D01*
X85271Y120530D01*
X85740Y120925D01*
X86219Y121309D01*
X86708Y121680D01*
X87205Y122040D01*
X87711Y122387D01*
X88225Y122721D01*
X88747Y123043D01*
X89278Y123352D01*
X89815Y123648D01*
X90360Y123931D01*
X90911Y124200D01*
X91469Y124455D01*
X92033Y124697D01*
X92603Y124925D01*
X93178Y125139D01*
X93758Y125338D01*
X94343Y125524D01*
X94932Y125694D01*
X95525Y125851D01*
X96122Y125993D01*
X96723Y126120D01*
X97326Y126232D01*
X97932Y126329D01*
X98540Y126412D01*
X99150Y126480D01*
X99761Y126532D01*
X100373Y126570D01*
X100986Y126592D01*
X101600Y126600D01*
X102214Y126592D01*
X102827Y126570D01*
X103439Y126532D01*
X104050Y126480D01*
X104660Y126412D01*
X105268Y126329D01*
X105874Y126232D01*
X106477Y126120D01*
X107078Y125993D01*
X107675Y125851D01*
X108268Y125694D01*
X108857Y125524D01*
X109442Y125338D01*
X110022Y125139D01*
X110597Y124925D01*
X111167Y124697D01*
X111731Y124455D01*
X112289Y124200D01*
X112840Y123931D01*
X113385Y123648D01*
X113922Y123352D01*
X114453Y123043D01*
X114975Y122721D01*
X115489Y122387D01*
X115995Y122040D01*
X116492Y121680D01*
X116981Y121309D01*
X117460Y120925D01*
X117929Y120530D01*
X118389Y120124D01*
X118839Y119706D01*
X119278Y119278D01*
X119706Y118839D01*
X120124Y118389D01*
X120530Y117929D01*
X120925Y117460D01*
X121309Y116981D01*
X121680Y116492D01*
X122040Y115995D01*
X122387Y115489D01*
X122721Y114975D01*
X123043Y114453D01*
X123352Y113922D01*
X123648Y113385D01*
X123931Y112840D01*
X124200Y112289D01*
X124455Y111731D01*
X124697Y111167D01*
X124925Y110597D01*
X125139Y110022D01*
X125338Y109442D01*
X125524Y108857D01*
X125694Y108268D01*
X125851Y107675D01*
X125993Y107078D01*
X126120Y106477D01*
X126232Y105874D01*
X126329Y105268D01*
X126412Y104660D01*
X126480Y104050D01*
X126532Y103439D01*
X126570Y102827D01*
X126592Y102214D01*
X126600Y101600D01*
X126592Y100986D01*
X126570Y100373D01*
X126532Y99761D01*
X126480Y99150D01*
X126412Y98540D01*
X126329Y97932D01*
X126232Y97326D01*
X126120Y96723D01*
X125993Y96122D01*
X125851Y95525D01*
X125694Y94932D01*
X125524Y94343D01*
X125338Y93758D01*
X125139Y93178D01*
X124925Y92603D01*
X124697Y92033D01*
X124455Y91469D01*
X124200Y90911D01*
X123931Y90360D01*
X123648Y89815D01*
X123352Y89278D01*
X123043Y88747D01*
X122721Y88225D01*
X122387Y87711D01*
X122040Y87205D01*
X121680Y86708D01*
X121309Y86219D01*
X120925Y85740D01*
X120530Y85271D01*
X120124Y84811D01*
X119706Y84361D01*
X119278Y83922D01*
X118839Y83494D01*
X118389Y83076D01*
X117929Y82670D01*
X117460Y82275D01*
X116981Y81891D01*
X116492Y81520D01*
X115995Y81160D01*
X115489Y80813D01*
X114975Y80479D01*
X114453Y80157D01*
X113922Y79848D01*
X113385Y79552D01*
X112840Y79269D01*
X112289Y79000D01*
X111731Y78745D01*
X111167Y78503D01*
X110597Y78275D01*
X110022Y78061D01*
X109442Y77862D01*
X108857Y77676D01*
X108268Y77506D01*
X107675Y77349D01*
X107078Y77207D01*
X106477Y77080D01*
X105874Y76968D01*
X105268Y76871D01*
X104660Y76788D01*
X104050Y76720D01*
X103439Y76668D01*
X102827Y76630D01*
X102214Y76608D01*
X101600Y76600D01*
X100986Y76608D01*
X100373Y76630D01*
X99761Y76668D01*
X99150Y76720D01*
X98540Y76788D01*
X97932Y76871D01*
X97326Y76968D01*
X96723Y77080D01*
X96122Y77207D01*
X95525Y77349D01*
X94932Y77506D01*
X94343Y77676D01*
X93758Y77862D01*
X93178Y78061D01*
X92603Y78275D01*
X92033Y78503D01*
X91469Y78745D01*
X90911Y79000D01*
X90360Y79269D01*
X89815Y79552D01*
X89278Y79848D01*
X88747Y80157D01*
X88225Y80479D01*
X87711Y80813D01*
X87205Y81160D01*
X86708Y81520D01*
X86219Y81891D01*
X85740Y82275D01*
X85271Y82670D01*
X84811Y83076D01*
X84361Y83494D01*
X83922Y83922D01*
X83494Y84361D01*
X83076Y84811D01*
X82670Y85271D01*
X82275Y85740D01*
X81891Y86219D01*
X81520Y86708D01*
X81160Y87205D01*
X80813Y87711D01*
X80479Y88225D01*
X80157Y88747D01*
X79848Y89278D01*
X79552Y89815D01*
X79269Y90360D01*
X79000Y90911D01*
X78745Y91469D01*
X78503Y92033D01*
X78275Y92603D01*
X78061Y93178D01*
X77862Y93758D01*
X77676Y94343D01*
X77506Y94932D01*
X77349Y95525D01*
X77207Y96122D01*
X77080Y96723D01*
X76968Y97326D01*
X76871Y97932D01*
X76788Y98540D01*
X76720Y99150D01*
X76668Y99761D01*
X76630Y100373D01*
X76608Y100986D01*
X76600Y101600D01*
X109020Y87630D02*
X119180Y87630D01*
X94180Y87630D02*
X84020Y87630D01*
X89100Y82550D02*
X89100Y92710D01*
D12*
X99032Y69469D02*
X100104Y69469D01*
X99032Y69469D02*
X98967Y69471D01*
X98903Y69477D01*
X98839Y69487D01*
X98775Y69500D01*
X98713Y69518D01*
X98652Y69539D01*
X98592Y69563D01*
X98534Y69592D01*
X98477Y69624D01*
X98423Y69659D01*
X98371Y69697D01*
X98321Y69739D01*
X98274Y69783D01*
X98230Y69830D01*
X98188Y69880D01*
X98150Y69932D01*
X98115Y69986D01*
X98083Y70043D01*
X98054Y70101D01*
X98030Y70161D01*
X98009Y70222D01*
X97991Y70284D01*
X97978Y70348D01*
X97968Y70412D01*
X97962Y70476D01*
X97960Y70541D01*
X97959Y70541D02*
X97959Y73223D01*
X97960Y73223D02*
X97962Y73288D01*
X97968Y73352D01*
X97978Y73416D01*
X97991Y73480D01*
X98009Y73542D01*
X98030Y73603D01*
X98054Y73663D01*
X98083Y73721D01*
X98115Y73778D01*
X98150Y73832D01*
X98188Y73884D01*
X98230Y73934D01*
X98274Y73981D01*
X98321Y74025D01*
X98371Y74067D01*
X98423Y74105D01*
X98477Y74140D01*
X98534Y74172D01*
X98592Y74201D01*
X98652Y74225D01*
X98713Y74246D01*
X98775Y74264D01*
X98839Y74277D01*
X98903Y74287D01*
X98967Y74293D01*
X99032Y74295D01*
X100104Y74295D01*
X102560Y69469D02*
X103900Y69469D01*
X103971Y69471D01*
X104043Y69477D01*
X104113Y69486D01*
X104183Y69499D01*
X104253Y69516D01*
X104321Y69537D01*
X104388Y69561D01*
X104454Y69589D01*
X104518Y69620D01*
X104581Y69655D01*
X104641Y69693D01*
X104700Y69734D01*
X104756Y69778D01*
X104810Y69825D01*
X104861Y69874D01*
X104909Y69927D01*
X104955Y69982D01*
X104997Y70039D01*
X105037Y70099D01*
X105073Y70160D01*
X105106Y70224D01*
X105135Y70289D01*
X105161Y70355D01*
X105184Y70423D01*
X105203Y70492D01*
X105218Y70562D01*
X105229Y70632D01*
X105237Y70703D01*
X105241Y70774D01*
X105241Y70846D01*
X105237Y70917D01*
X105229Y70988D01*
X105218Y71058D01*
X105203Y71128D01*
X105184Y71197D01*
X105161Y71265D01*
X105135Y71331D01*
X105106Y71396D01*
X105073Y71460D01*
X105037Y71521D01*
X104997Y71581D01*
X104955Y71638D01*
X104909Y71693D01*
X104861Y71746D01*
X104810Y71795D01*
X104756Y71842D01*
X104700Y71886D01*
X104641Y71927D01*
X104581Y71965D01*
X104518Y72000D01*
X104454Y72031D01*
X104388Y72059D01*
X104321Y72083D01*
X104253Y72104D01*
X104183Y72121D01*
X104113Y72134D01*
X104043Y72143D01*
X103971Y72149D01*
X103900Y72151D01*
X104168Y74295D02*
X102560Y74295D01*
X104168Y74295D02*
X104233Y74293D01*
X104297Y74287D01*
X104361Y74277D01*
X104425Y74264D01*
X104487Y74246D01*
X104548Y74225D01*
X104608Y74201D01*
X104666Y74172D01*
X104723Y74140D01*
X104777Y74105D01*
X104829Y74067D01*
X104879Y74025D01*
X104926Y73981D01*
X104970Y73934D01*
X105012Y73884D01*
X105050Y73832D01*
X105085Y73778D01*
X105117Y73721D01*
X105146Y73663D01*
X105170Y73603D01*
X105191Y73542D01*
X105209Y73480D01*
X105222Y73416D01*
X105232Y73352D01*
X105238Y73288D01*
X105240Y73223D01*
X105238Y73158D01*
X105232Y73094D01*
X105222Y73030D01*
X105209Y72966D01*
X105191Y72904D01*
X105170Y72843D01*
X105146Y72783D01*
X105117Y72725D01*
X105085Y72668D01*
X105050Y72614D01*
X105012Y72562D01*
X104970Y72512D01*
X104926Y72465D01*
X104879Y72421D01*
X104829Y72379D01*
X104777Y72341D01*
X104723Y72306D01*
X104666Y72274D01*
X104608Y72245D01*
X104548Y72221D01*
X104487Y72200D01*
X104425Y72182D01*
X104361Y72169D01*
X104297Y72159D01*
X104233Y72153D01*
X104168Y72151D01*
X104168Y72150D02*
X103096Y72150D01*
D11*
X508400Y203200D02*
X508408Y203814D01*
X508430Y204427D01*
X508468Y205039D01*
X508520Y205650D01*
X508588Y206260D01*
X508671Y206868D01*
X508768Y207474D01*
X508880Y208077D01*
X509007Y208678D01*
X509149Y209275D01*
X509306Y209868D01*
X509476Y210457D01*
X509662Y211042D01*
X509861Y211622D01*
X510075Y212197D01*
X510303Y212767D01*
X510545Y213331D01*
X510800Y213889D01*
X511069Y214440D01*
X511352Y214985D01*
X511648Y215522D01*
X511957Y216053D01*
X512279Y216575D01*
X512613Y217089D01*
X512960Y217595D01*
X513320Y218092D01*
X513691Y218581D01*
X514075Y219060D01*
X514470Y219529D01*
X514876Y219989D01*
X515294Y220439D01*
X515722Y220878D01*
X516161Y221306D01*
X516611Y221724D01*
X517071Y222130D01*
X517540Y222525D01*
X518019Y222909D01*
X518508Y223280D01*
X519005Y223640D01*
X519511Y223987D01*
X520025Y224321D01*
X520547Y224643D01*
X521078Y224952D01*
X521615Y225248D01*
X522160Y225531D01*
X522711Y225800D01*
X523269Y226055D01*
X523833Y226297D01*
X524403Y226525D01*
X524978Y226739D01*
X525558Y226938D01*
X526143Y227124D01*
X526732Y227294D01*
X527325Y227451D01*
X527922Y227593D01*
X528523Y227720D01*
X529126Y227832D01*
X529732Y227929D01*
X530340Y228012D01*
X530950Y228080D01*
X531561Y228132D01*
X532173Y228170D01*
X532786Y228192D01*
X533400Y228200D01*
X534014Y228192D01*
X534627Y228170D01*
X535239Y228132D01*
X535850Y228080D01*
X536460Y228012D01*
X537068Y227929D01*
X537674Y227832D01*
X538277Y227720D01*
X538878Y227593D01*
X539475Y227451D01*
X540068Y227294D01*
X540657Y227124D01*
X541242Y226938D01*
X541822Y226739D01*
X542397Y226525D01*
X542967Y226297D01*
X543531Y226055D01*
X544089Y225800D01*
X544640Y225531D01*
X545185Y225248D01*
X545722Y224952D01*
X546253Y224643D01*
X546775Y224321D01*
X547289Y223987D01*
X547795Y223640D01*
X548292Y223280D01*
X548781Y222909D01*
X549260Y222525D01*
X549729Y222130D01*
X550189Y221724D01*
X550639Y221306D01*
X551078Y220878D01*
X551506Y220439D01*
X551924Y219989D01*
X552330Y219529D01*
X552725Y219060D01*
X553109Y218581D01*
X553480Y218092D01*
X553840Y217595D01*
X554187Y217089D01*
X554521Y216575D01*
X554843Y216053D01*
X555152Y215522D01*
X555448Y214985D01*
X555731Y214440D01*
X556000Y213889D01*
X556255Y213331D01*
X556497Y212767D01*
X556725Y212197D01*
X556939Y211622D01*
X557138Y211042D01*
X557324Y210457D01*
X557494Y209868D01*
X557651Y209275D01*
X557793Y208678D01*
X557920Y208077D01*
X558032Y207474D01*
X558129Y206868D01*
X558212Y206260D01*
X558280Y205650D01*
X558332Y205039D01*
X558370Y204427D01*
X558392Y203814D01*
X558400Y203200D01*
X558392Y202586D01*
X558370Y201973D01*
X558332Y201361D01*
X558280Y200750D01*
X558212Y200140D01*
X558129Y199532D01*
X558032Y198926D01*
X557920Y198323D01*
X557793Y197722D01*
X557651Y197125D01*
X557494Y196532D01*
X557324Y195943D01*
X557138Y195358D01*
X556939Y194778D01*
X556725Y194203D01*
X556497Y193633D01*
X556255Y193069D01*
X556000Y192511D01*
X555731Y191960D01*
X555448Y191415D01*
X555152Y190878D01*
X554843Y190347D01*
X554521Y189825D01*
X554187Y189311D01*
X553840Y188805D01*
X553480Y188308D01*
X553109Y187819D01*
X552725Y187340D01*
X552330Y186871D01*
X551924Y186411D01*
X551506Y185961D01*
X551078Y185522D01*
X550639Y185094D01*
X550189Y184676D01*
X549729Y184270D01*
X549260Y183875D01*
X548781Y183491D01*
X548292Y183120D01*
X547795Y182760D01*
X547289Y182413D01*
X546775Y182079D01*
X546253Y181757D01*
X545722Y181448D01*
X545185Y181152D01*
X544640Y180869D01*
X544089Y180600D01*
X543531Y180345D01*
X542967Y180103D01*
X542397Y179875D01*
X541822Y179661D01*
X541242Y179462D01*
X540657Y179276D01*
X540068Y179106D01*
X539475Y178949D01*
X538878Y178807D01*
X538277Y178680D01*
X537674Y178568D01*
X537068Y178471D01*
X536460Y178388D01*
X535850Y178320D01*
X535239Y178268D01*
X534627Y178230D01*
X534014Y178208D01*
X533400Y178200D01*
X532786Y178208D01*
X532173Y178230D01*
X531561Y178268D01*
X530950Y178320D01*
X530340Y178388D01*
X529732Y178471D01*
X529126Y178568D01*
X528523Y178680D01*
X527922Y178807D01*
X527325Y178949D01*
X526732Y179106D01*
X526143Y179276D01*
X525558Y179462D01*
X524978Y179661D01*
X524403Y179875D01*
X523833Y180103D01*
X523269Y180345D01*
X522711Y180600D01*
X522160Y180869D01*
X521615Y181152D01*
X521078Y181448D01*
X520547Y181757D01*
X520025Y182079D01*
X519511Y182413D01*
X519005Y182760D01*
X518508Y183120D01*
X518019Y183491D01*
X517540Y183875D01*
X517071Y184270D01*
X516611Y184676D01*
X516161Y185094D01*
X515722Y185522D01*
X515294Y185961D01*
X514876Y186411D01*
X514470Y186871D01*
X514075Y187340D01*
X513691Y187819D01*
X513320Y188308D01*
X512960Y188805D01*
X512613Y189311D01*
X512279Y189825D01*
X511957Y190347D01*
X511648Y190878D01*
X511352Y191415D01*
X511069Y191960D01*
X510800Y192511D01*
X510545Y193069D01*
X510303Y193633D01*
X510075Y194203D01*
X509861Y194778D01*
X509662Y195358D01*
X509476Y195943D01*
X509306Y196532D01*
X509149Y197125D01*
X509007Y197722D01*
X508880Y198323D01*
X508768Y198926D01*
X508671Y199532D01*
X508588Y200140D01*
X508520Y200750D01*
X508468Y201361D01*
X508430Y201973D01*
X508408Y202586D01*
X508400Y203200D01*
X515820Y217170D02*
X525980Y217170D01*
X540820Y217170D02*
X550980Y217170D01*
X545900Y222250D02*
X545900Y212090D01*
D12*
X531904Y230505D02*
X530832Y230505D01*
X530767Y230507D01*
X530703Y230513D01*
X530639Y230523D01*
X530575Y230536D01*
X530513Y230554D01*
X530452Y230575D01*
X530392Y230599D01*
X530334Y230628D01*
X530277Y230660D01*
X530223Y230695D01*
X530171Y230733D01*
X530121Y230775D01*
X530074Y230819D01*
X530030Y230866D01*
X529988Y230916D01*
X529950Y230968D01*
X529915Y231022D01*
X529883Y231079D01*
X529854Y231137D01*
X529830Y231197D01*
X529809Y231258D01*
X529791Y231320D01*
X529778Y231384D01*
X529768Y231448D01*
X529762Y231512D01*
X529760Y231577D01*
X529759Y231577D02*
X529759Y234259D01*
X529760Y234259D02*
X529762Y234324D01*
X529768Y234388D01*
X529778Y234452D01*
X529791Y234516D01*
X529809Y234578D01*
X529830Y234639D01*
X529854Y234699D01*
X529883Y234757D01*
X529915Y234814D01*
X529950Y234868D01*
X529988Y234920D01*
X530030Y234970D01*
X530074Y235017D01*
X530121Y235061D01*
X530171Y235103D01*
X530223Y235141D01*
X530277Y235176D01*
X530334Y235208D01*
X530392Y235237D01*
X530452Y235261D01*
X530513Y235282D01*
X530575Y235300D01*
X530639Y235313D01*
X530703Y235323D01*
X530767Y235329D01*
X530832Y235331D01*
X531904Y235331D01*
X535834Y235331D02*
X535902Y235329D01*
X535969Y235323D01*
X536036Y235314D01*
X536103Y235301D01*
X536168Y235284D01*
X536233Y235263D01*
X536296Y235239D01*
X536358Y235211D01*
X536418Y235180D01*
X536476Y235146D01*
X536532Y235108D01*
X536587Y235068D01*
X536638Y235024D01*
X536687Y234977D01*
X536734Y234928D01*
X536778Y234877D01*
X536818Y234822D01*
X536856Y234766D01*
X536890Y234708D01*
X536921Y234648D01*
X536949Y234586D01*
X536973Y234523D01*
X536994Y234458D01*
X537011Y234393D01*
X537024Y234326D01*
X537033Y234259D01*
X537039Y234192D01*
X537041Y234124D01*
X535834Y235331D02*
X535756Y235329D01*
X535678Y235323D01*
X535601Y235313D01*
X535524Y235300D01*
X535448Y235282D01*
X535373Y235261D01*
X535299Y235236D01*
X535227Y235207D01*
X535156Y235175D01*
X535087Y235139D01*
X535019Y235100D01*
X534954Y235057D01*
X534891Y235011D01*
X534830Y234962D01*
X534772Y234910D01*
X534717Y234855D01*
X534664Y234798D01*
X534615Y234738D01*
X534568Y234675D01*
X534525Y234611D01*
X534485Y234544D01*
X534448Y234475D01*
X534415Y234404D01*
X534385Y234332D01*
X534359Y234259D01*
X536639Y233186D02*
X536688Y233235D01*
X536735Y233287D01*
X536778Y233342D01*
X536819Y233399D01*
X536857Y233458D01*
X536891Y233519D01*
X536922Y233582D01*
X536950Y233646D01*
X536974Y233712D01*
X536994Y233778D01*
X537011Y233846D01*
X537024Y233915D01*
X537033Y233984D01*
X537039Y234054D01*
X537041Y234124D01*
X536639Y233186D02*
X534360Y230505D01*
X537041Y230505D01*
D11*
X508400Y279400D02*
X508408Y280014D01*
X508430Y280627D01*
X508468Y281239D01*
X508520Y281850D01*
X508588Y282460D01*
X508671Y283068D01*
X508768Y283674D01*
X508880Y284277D01*
X509007Y284878D01*
X509149Y285475D01*
X509306Y286068D01*
X509476Y286657D01*
X509662Y287242D01*
X509861Y287822D01*
X510075Y288397D01*
X510303Y288967D01*
X510545Y289531D01*
X510800Y290089D01*
X511069Y290640D01*
X511352Y291185D01*
X511648Y291722D01*
X511957Y292253D01*
X512279Y292775D01*
X512613Y293289D01*
X512960Y293795D01*
X513320Y294292D01*
X513691Y294781D01*
X514075Y295260D01*
X514470Y295729D01*
X514876Y296189D01*
X515294Y296639D01*
X515722Y297078D01*
X516161Y297506D01*
X516611Y297924D01*
X517071Y298330D01*
X517540Y298725D01*
X518019Y299109D01*
X518508Y299480D01*
X519005Y299840D01*
X519511Y300187D01*
X520025Y300521D01*
X520547Y300843D01*
X521078Y301152D01*
X521615Y301448D01*
X522160Y301731D01*
X522711Y302000D01*
X523269Y302255D01*
X523833Y302497D01*
X524403Y302725D01*
X524978Y302939D01*
X525558Y303138D01*
X526143Y303324D01*
X526732Y303494D01*
X527325Y303651D01*
X527922Y303793D01*
X528523Y303920D01*
X529126Y304032D01*
X529732Y304129D01*
X530340Y304212D01*
X530950Y304280D01*
X531561Y304332D01*
X532173Y304370D01*
X532786Y304392D01*
X533400Y304400D01*
X534014Y304392D01*
X534627Y304370D01*
X535239Y304332D01*
X535850Y304280D01*
X536460Y304212D01*
X537068Y304129D01*
X537674Y304032D01*
X538277Y303920D01*
X538878Y303793D01*
X539475Y303651D01*
X540068Y303494D01*
X540657Y303324D01*
X541242Y303138D01*
X541822Y302939D01*
X542397Y302725D01*
X542967Y302497D01*
X543531Y302255D01*
X544089Y302000D01*
X544640Y301731D01*
X545185Y301448D01*
X545722Y301152D01*
X546253Y300843D01*
X546775Y300521D01*
X547289Y300187D01*
X547795Y299840D01*
X548292Y299480D01*
X548781Y299109D01*
X549260Y298725D01*
X549729Y298330D01*
X550189Y297924D01*
X550639Y297506D01*
X551078Y297078D01*
X551506Y296639D01*
X551924Y296189D01*
X552330Y295729D01*
X552725Y295260D01*
X553109Y294781D01*
X553480Y294292D01*
X553840Y293795D01*
X554187Y293289D01*
X554521Y292775D01*
X554843Y292253D01*
X555152Y291722D01*
X555448Y291185D01*
X555731Y290640D01*
X556000Y290089D01*
X556255Y289531D01*
X556497Y288967D01*
X556725Y288397D01*
X556939Y287822D01*
X557138Y287242D01*
X557324Y286657D01*
X557494Y286068D01*
X557651Y285475D01*
X557793Y284878D01*
X557920Y284277D01*
X558032Y283674D01*
X558129Y283068D01*
X558212Y282460D01*
X558280Y281850D01*
X558332Y281239D01*
X558370Y280627D01*
X558392Y280014D01*
X558400Y279400D01*
X558392Y278786D01*
X558370Y278173D01*
X558332Y277561D01*
X558280Y276950D01*
X558212Y276340D01*
X558129Y275732D01*
X558032Y275126D01*
X557920Y274523D01*
X557793Y273922D01*
X557651Y273325D01*
X557494Y272732D01*
X557324Y272143D01*
X557138Y271558D01*
X556939Y270978D01*
X556725Y270403D01*
X556497Y269833D01*
X556255Y269269D01*
X556000Y268711D01*
X555731Y268160D01*
X555448Y267615D01*
X555152Y267078D01*
X554843Y266547D01*
X554521Y266025D01*
X554187Y265511D01*
X553840Y265005D01*
X553480Y264508D01*
X553109Y264019D01*
X552725Y263540D01*
X552330Y263071D01*
X551924Y262611D01*
X551506Y262161D01*
X551078Y261722D01*
X550639Y261294D01*
X550189Y260876D01*
X549729Y260470D01*
X549260Y260075D01*
X548781Y259691D01*
X548292Y259320D01*
X547795Y258960D01*
X547289Y258613D01*
X546775Y258279D01*
X546253Y257957D01*
X545722Y257648D01*
X545185Y257352D01*
X544640Y257069D01*
X544089Y256800D01*
X543531Y256545D01*
X542967Y256303D01*
X542397Y256075D01*
X541822Y255861D01*
X541242Y255662D01*
X540657Y255476D01*
X540068Y255306D01*
X539475Y255149D01*
X538878Y255007D01*
X538277Y254880D01*
X537674Y254768D01*
X537068Y254671D01*
X536460Y254588D01*
X535850Y254520D01*
X535239Y254468D01*
X534627Y254430D01*
X534014Y254408D01*
X533400Y254400D01*
X532786Y254408D01*
X532173Y254430D01*
X531561Y254468D01*
X530950Y254520D01*
X530340Y254588D01*
X529732Y254671D01*
X529126Y254768D01*
X528523Y254880D01*
X527922Y255007D01*
X527325Y255149D01*
X526732Y255306D01*
X526143Y255476D01*
X525558Y255662D01*
X524978Y255861D01*
X524403Y256075D01*
X523833Y256303D01*
X523269Y256545D01*
X522711Y256800D01*
X522160Y257069D01*
X521615Y257352D01*
X521078Y257648D01*
X520547Y257957D01*
X520025Y258279D01*
X519511Y258613D01*
X519005Y258960D01*
X518508Y259320D01*
X518019Y259691D01*
X517540Y260075D01*
X517071Y260470D01*
X516611Y260876D01*
X516161Y261294D01*
X515722Y261722D01*
X515294Y262161D01*
X514876Y262611D01*
X514470Y263071D01*
X514075Y263540D01*
X513691Y264019D01*
X513320Y264508D01*
X512960Y265005D01*
X512613Y265511D01*
X512279Y266025D01*
X511957Y266547D01*
X511648Y267078D01*
X511352Y267615D01*
X511069Y268160D01*
X510800Y268711D01*
X510545Y269269D01*
X510303Y269833D01*
X510075Y270403D01*
X509861Y270978D01*
X509662Y271558D01*
X509476Y272143D01*
X509306Y272732D01*
X509149Y273325D01*
X509007Y273922D01*
X508880Y274523D01*
X508768Y275126D01*
X508671Y275732D01*
X508588Y276340D01*
X508520Y276950D01*
X508468Y277561D01*
X508430Y278173D01*
X508408Y278786D01*
X508400Y279400D01*
X515820Y293370D02*
X525980Y293370D01*
X540820Y293370D02*
X550980Y293370D01*
X545900Y298450D02*
X545900Y288290D01*
D12*
X531904Y306705D02*
X530832Y306705D01*
X530767Y306707D01*
X530703Y306713D01*
X530639Y306723D01*
X530575Y306736D01*
X530513Y306754D01*
X530452Y306775D01*
X530392Y306799D01*
X530334Y306828D01*
X530277Y306860D01*
X530223Y306895D01*
X530171Y306933D01*
X530121Y306975D01*
X530074Y307019D01*
X530030Y307066D01*
X529988Y307116D01*
X529950Y307168D01*
X529915Y307222D01*
X529883Y307279D01*
X529854Y307337D01*
X529830Y307397D01*
X529809Y307458D01*
X529791Y307520D01*
X529778Y307584D01*
X529768Y307648D01*
X529762Y307712D01*
X529760Y307777D01*
X529759Y307777D02*
X529759Y310459D01*
X529760Y310459D02*
X529762Y310524D01*
X529768Y310588D01*
X529778Y310652D01*
X529791Y310716D01*
X529809Y310778D01*
X529830Y310839D01*
X529854Y310899D01*
X529883Y310957D01*
X529915Y311014D01*
X529950Y311068D01*
X529988Y311120D01*
X530030Y311170D01*
X530074Y311217D01*
X530121Y311261D01*
X530171Y311303D01*
X530223Y311341D01*
X530277Y311376D01*
X530334Y311408D01*
X530392Y311437D01*
X530452Y311461D01*
X530513Y311482D01*
X530575Y311500D01*
X530639Y311513D01*
X530703Y311523D01*
X530767Y311529D01*
X530832Y311531D01*
X531904Y311531D01*
X534360Y310459D02*
X535700Y311531D01*
X535700Y306705D01*
X534360Y306705D02*
X537041Y306705D01*
D14*
X666623Y114554D02*
X666623Y109474D01*
X666623Y93218D02*
X666623Y88646D01*
D12*
X638525Y127776D02*
X637721Y127776D01*
X638525Y127776D02*
X638525Y125095D01*
X636916Y125095D01*
X636851Y125097D01*
X636787Y125103D01*
X636723Y125113D01*
X636659Y125126D01*
X636597Y125144D01*
X636536Y125165D01*
X636476Y125189D01*
X636418Y125218D01*
X636361Y125250D01*
X636307Y125285D01*
X636255Y125323D01*
X636205Y125365D01*
X636158Y125409D01*
X636114Y125456D01*
X636072Y125506D01*
X636034Y125558D01*
X635999Y125612D01*
X635967Y125669D01*
X635938Y125727D01*
X635914Y125787D01*
X635893Y125848D01*
X635875Y125910D01*
X635862Y125974D01*
X635852Y126038D01*
X635846Y126102D01*
X635844Y126167D01*
X635844Y128849D01*
X635846Y128914D01*
X635852Y128978D01*
X635862Y129042D01*
X635875Y129106D01*
X635893Y129168D01*
X635914Y129229D01*
X635938Y129289D01*
X635967Y129347D01*
X635999Y129404D01*
X636034Y129458D01*
X636072Y129510D01*
X636114Y129560D01*
X636158Y129607D01*
X636205Y129651D01*
X636255Y129693D01*
X636307Y129731D01*
X636361Y129766D01*
X636418Y129798D01*
X636476Y129827D01*
X636536Y129851D01*
X636597Y129872D01*
X636659Y129890D01*
X636723Y129903D01*
X636787Y129913D01*
X636851Y129919D01*
X636916Y129921D01*
X638525Y129921D01*
X641760Y129921D02*
X641760Y125095D01*
X641760Y129921D02*
X643100Y129921D01*
X643171Y129919D01*
X643243Y129913D01*
X643313Y129904D01*
X643383Y129891D01*
X643453Y129874D01*
X643521Y129853D01*
X643588Y129829D01*
X643654Y129801D01*
X643718Y129770D01*
X643781Y129735D01*
X643841Y129697D01*
X643900Y129656D01*
X643956Y129612D01*
X644010Y129565D01*
X644061Y129516D01*
X644109Y129463D01*
X644155Y129408D01*
X644197Y129351D01*
X644237Y129291D01*
X644273Y129230D01*
X644306Y129166D01*
X644335Y129101D01*
X644361Y129035D01*
X644384Y128967D01*
X644403Y128898D01*
X644418Y128828D01*
X644429Y128758D01*
X644437Y128687D01*
X644441Y128616D01*
X644441Y128544D01*
X644437Y128473D01*
X644429Y128402D01*
X644418Y128332D01*
X644403Y128262D01*
X644384Y128193D01*
X644361Y128125D01*
X644335Y128059D01*
X644306Y127994D01*
X644273Y127930D01*
X644237Y127869D01*
X644197Y127809D01*
X644155Y127752D01*
X644109Y127697D01*
X644061Y127644D01*
X644010Y127595D01*
X643956Y127548D01*
X643900Y127504D01*
X643841Y127463D01*
X643781Y127425D01*
X643718Y127390D01*
X643654Y127359D01*
X643588Y127331D01*
X643521Y127307D01*
X643453Y127286D01*
X643383Y127269D01*
X643313Y127256D01*
X643243Y127247D01*
X643171Y127241D01*
X643100Y127239D01*
X643100Y127240D02*
X641760Y127240D01*
X643368Y127240D02*
X644441Y125095D01*
X647385Y125095D02*
X649530Y125095D01*
X647385Y125095D02*
X647385Y129921D01*
X649530Y129921D01*
X648994Y127776D02*
X647385Y127776D01*
X652140Y125095D02*
X654285Y125095D01*
X652140Y125095D02*
X652140Y129921D01*
X654285Y129921D01*
X653748Y127776D02*
X652140Y127776D01*
X656875Y129921D02*
X656875Y125095D01*
X659556Y125095D02*
X656875Y129921D01*
X659556Y129921D02*
X659556Y125095D01*
D14*
X438277Y164846D02*
X438277Y169926D01*
X438277Y186182D02*
X438277Y190754D01*
D12*
X442339Y154305D02*
X443948Y152026D01*
X445556Y154305D01*
X443948Y152026D02*
X443948Y149479D01*
X448296Y149479D02*
X450441Y149479D01*
X448296Y149479D02*
X448296Y154305D01*
X450441Y154305D01*
X449904Y152160D02*
X448296Y152160D01*
X453051Y154305D02*
X453051Y149479D01*
X455195Y149479D01*
X457805Y149479D02*
X457805Y154305D01*
X457805Y149479D02*
X459950Y149479D01*
X462358Y150820D02*
X462358Y152964D01*
X462357Y152964D02*
X462359Y153035D01*
X462365Y153107D01*
X462374Y153177D01*
X462387Y153247D01*
X462404Y153317D01*
X462425Y153385D01*
X462449Y153452D01*
X462477Y153518D01*
X462508Y153582D01*
X462543Y153645D01*
X462581Y153705D01*
X462622Y153764D01*
X462666Y153820D01*
X462713Y153874D01*
X462762Y153925D01*
X462815Y153973D01*
X462870Y154019D01*
X462927Y154061D01*
X462987Y154101D01*
X463048Y154137D01*
X463112Y154170D01*
X463177Y154199D01*
X463243Y154225D01*
X463311Y154248D01*
X463380Y154267D01*
X463450Y154282D01*
X463520Y154293D01*
X463591Y154301D01*
X463662Y154305D01*
X463734Y154305D01*
X463805Y154301D01*
X463876Y154293D01*
X463946Y154282D01*
X464016Y154267D01*
X464085Y154248D01*
X464153Y154225D01*
X464219Y154199D01*
X464284Y154170D01*
X464348Y154137D01*
X464409Y154101D01*
X464469Y154061D01*
X464526Y154019D01*
X464581Y153973D01*
X464634Y153925D01*
X464683Y153874D01*
X464730Y153820D01*
X464774Y153764D01*
X464815Y153705D01*
X464853Y153645D01*
X464888Y153582D01*
X464919Y153518D01*
X464947Y153452D01*
X464971Y153385D01*
X464992Y153317D01*
X465009Y153247D01*
X465022Y153177D01*
X465031Y153107D01*
X465037Y153035D01*
X465039Y152964D01*
X465039Y150820D01*
X465037Y150749D01*
X465031Y150677D01*
X465022Y150607D01*
X465009Y150537D01*
X464992Y150467D01*
X464971Y150399D01*
X464947Y150332D01*
X464919Y150266D01*
X464888Y150202D01*
X464853Y150139D01*
X464815Y150079D01*
X464774Y150020D01*
X464730Y149964D01*
X464683Y149910D01*
X464634Y149859D01*
X464581Y149811D01*
X464526Y149765D01*
X464469Y149723D01*
X464409Y149683D01*
X464348Y149647D01*
X464284Y149614D01*
X464219Y149585D01*
X464153Y149559D01*
X464085Y149536D01*
X464016Y149517D01*
X463946Y149502D01*
X463876Y149491D01*
X463805Y149483D01*
X463734Y149479D01*
X463662Y149479D01*
X463591Y149483D01*
X463520Y149491D01*
X463450Y149502D01*
X463380Y149517D01*
X463311Y149536D01*
X463243Y149559D01*
X463177Y149585D01*
X463112Y149614D01*
X463048Y149647D01*
X462987Y149683D01*
X462927Y149723D01*
X462870Y149765D01*
X462815Y149811D01*
X462762Y149859D01*
X462713Y149910D01*
X462666Y149964D01*
X462622Y150020D01*
X462581Y150079D01*
X462543Y150139D01*
X462508Y150202D01*
X462477Y150266D01*
X462449Y150332D01*
X462425Y150399D01*
X462404Y150467D01*
X462387Y150537D01*
X462374Y150607D01*
X462365Y150677D01*
X462359Y150749D01*
X462357Y150820D01*
X467771Y154305D02*
X468844Y149479D01*
X469916Y152696D01*
X470989Y149479D01*
X472061Y154305D01*
D11*
X628650Y190500D02*
X628650Y292100D01*
X666750Y292100D01*
X673100Y292100D01*
X673100Y190500D01*
X666750Y190500D01*
X628650Y190500D01*
X666750Y190500D02*
X666750Y292100D01*
X491490Y135890D02*
X491490Y85090D01*
X483870Y85090D01*
X476250Y85090D01*
X476250Y135890D01*
X483870Y135890D01*
X491490Y135890D01*
X483870Y85090D02*
X483870Y82550D01*
X483870Y135890D02*
X483870Y138430D01*
D12*
X494665Y106438D02*
X499491Y106438D01*
X494665Y106438D02*
X494665Y107779D01*
X494667Y107850D01*
X494673Y107922D01*
X494682Y107992D01*
X494695Y108062D01*
X494712Y108132D01*
X494733Y108200D01*
X494757Y108267D01*
X494785Y108333D01*
X494816Y108397D01*
X494851Y108460D01*
X494889Y108520D01*
X494930Y108579D01*
X494974Y108635D01*
X495021Y108689D01*
X495070Y108740D01*
X495123Y108788D01*
X495178Y108834D01*
X495235Y108876D01*
X495295Y108916D01*
X495356Y108952D01*
X495420Y108985D01*
X495485Y109014D01*
X495551Y109040D01*
X495619Y109063D01*
X495688Y109082D01*
X495758Y109097D01*
X495828Y109108D01*
X495899Y109116D01*
X495970Y109120D01*
X496042Y109120D01*
X496113Y109116D01*
X496184Y109108D01*
X496254Y109097D01*
X496324Y109082D01*
X496393Y109063D01*
X496461Y109040D01*
X496527Y109014D01*
X496592Y108985D01*
X496656Y108952D01*
X496717Y108916D01*
X496777Y108876D01*
X496834Y108834D01*
X496889Y108788D01*
X496942Y108740D01*
X496991Y108689D01*
X497038Y108635D01*
X497082Y108579D01*
X497123Y108520D01*
X497161Y108460D01*
X497196Y108397D01*
X497227Y108333D01*
X497255Y108267D01*
X497279Y108200D01*
X497300Y108132D01*
X497317Y108062D01*
X497330Y107992D01*
X497339Y107922D01*
X497345Y107850D01*
X497347Y107779D01*
X497346Y107779D02*
X497346Y106438D01*
X497346Y108047D02*
X499491Y109119D01*
X496810Y111861D02*
X496810Y113469D01*
X496812Y113534D01*
X496818Y113598D01*
X496828Y113662D01*
X496841Y113726D01*
X496859Y113788D01*
X496880Y113849D01*
X496904Y113909D01*
X496933Y113967D01*
X496965Y114024D01*
X497000Y114078D01*
X497038Y114130D01*
X497080Y114180D01*
X497124Y114227D01*
X497171Y114271D01*
X497221Y114313D01*
X497273Y114351D01*
X497327Y114386D01*
X497384Y114418D01*
X497442Y114447D01*
X497502Y114471D01*
X497563Y114492D01*
X497625Y114510D01*
X497689Y114523D01*
X497753Y114533D01*
X497817Y114539D01*
X497882Y114541D01*
X497882Y114542D02*
X498150Y114542D01*
X498221Y114540D01*
X498293Y114534D01*
X498363Y114525D01*
X498433Y114512D01*
X498503Y114495D01*
X498571Y114474D01*
X498638Y114450D01*
X498704Y114422D01*
X498768Y114391D01*
X498831Y114356D01*
X498891Y114318D01*
X498950Y114277D01*
X499006Y114233D01*
X499060Y114186D01*
X499111Y114137D01*
X499159Y114084D01*
X499205Y114029D01*
X499247Y113972D01*
X499287Y113912D01*
X499323Y113851D01*
X499356Y113787D01*
X499385Y113722D01*
X499411Y113656D01*
X499434Y113588D01*
X499453Y113519D01*
X499468Y113449D01*
X499479Y113379D01*
X499487Y113308D01*
X499491Y113237D01*
X499491Y113165D01*
X499487Y113094D01*
X499479Y113023D01*
X499468Y112953D01*
X499453Y112883D01*
X499434Y112814D01*
X499411Y112746D01*
X499385Y112680D01*
X499356Y112615D01*
X499323Y112551D01*
X499287Y112490D01*
X499247Y112430D01*
X499205Y112373D01*
X499159Y112318D01*
X499111Y112265D01*
X499060Y112216D01*
X499006Y112169D01*
X498950Y112125D01*
X498891Y112084D01*
X498831Y112046D01*
X498768Y112011D01*
X498704Y111980D01*
X498638Y111952D01*
X498571Y111928D01*
X498503Y111907D01*
X498433Y111890D01*
X498363Y111877D01*
X498293Y111868D01*
X498221Y111862D01*
X498150Y111860D01*
X498150Y111861D02*
X496810Y111861D01*
X496719Y111863D01*
X496628Y111869D01*
X496538Y111878D01*
X496447Y111892D01*
X496358Y111909D01*
X496270Y111930D01*
X496182Y111955D01*
X496095Y111984D01*
X496010Y112016D01*
X495926Y112051D01*
X495844Y112091D01*
X495764Y112133D01*
X495685Y112179D01*
X495609Y112229D01*
X495535Y112281D01*
X495462Y112337D01*
X495393Y112396D01*
X495326Y112457D01*
X495261Y112522D01*
X495200Y112589D01*
X495141Y112658D01*
X495085Y112730D01*
X495033Y112805D01*
X494983Y112881D01*
X494937Y112960D01*
X494895Y113040D01*
X494855Y113122D01*
X494820Y113206D01*
X494788Y113291D01*
X494759Y113378D01*
X494734Y113465D01*
X494713Y113554D01*
X494696Y113643D01*
X494682Y113733D01*
X494673Y113824D01*
X494667Y113915D01*
X494665Y114006D01*
M02*
