M48
;GenerationSoftware,Autodesk,EAGLE,9.3.1*%
;CreationDate,2019-05-02T00:29:31Z*%
FMAT,2
ICI,OFF
METRIC,TZ,000.000
T5C0.350
T4C0.700
T3C0.900
T2C0.965
T1C1.016
%
G90
M71
T1
X50800Y5080
X48260Y5080
X45720Y5080
X20320Y5080
X22860Y5080
X64770Y5080
X62230Y5080
X27940Y5080
X30480Y5080
X33020Y5080
X38100Y5080
X40640Y5080
X55880Y5080
X58420Y5080
T2
X24130Y27305
X12700Y39370
X20320Y36830
X17780Y36830
X15240Y36830
X10160Y36830
X53340Y36830
X53340Y29210
X53340Y34290
X53340Y31750
X53340Y26670
X45720Y39370
X21590Y27305
X19050Y27305
X30480Y39370
X12700Y24130
X15240Y24130
X17780Y24130
X20320Y24130
X22860Y24130
X25400Y24130
X27940Y24130
X30480Y24130
X33020Y24130
X35560Y24130
X38100Y24130
X40640Y24130
X40640Y39370
X38100Y39370
X35560Y39370
X33020Y39370
X16510Y27305
X27940Y39370
X25400Y39370
X22860Y39370
X20320Y39370
X17780Y39370
X15240Y39370
X10160Y24130
X13970Y27305
X10160Y39370
X7620Y24130
X7620Y39370
X43180Y24130
X43180Y39370
X45720Y24130
X48260Y24130
X50800Y24130
X53340Y24130
X55880Y24130
X58420Y24130
X60960Y24130
X63500Y24130
X66040Y24130
X66040Y39370
X63500Y39370
X60960Y39370
X58420Y39370
X55880Y39370
X53340Y39370
X50800Y39370
X48260Y39370
T3
X45720Y16510
X45720Y8890
X50800Y16510
X50800Y8890
X36830Y12700
X29210Y12700
X15240Y12700
X7620Y12700
X55880Y16510
X55880Y8890
T4
X22840Y12700
X20340Y12700
T5
X62230Y12700
X22860Y44450
X3810Y3810
M30